<mxfile host="app.diagrams.net" agent="Mozilla/5.0 (Windows NT 10.0; Win64; x64) AppleWebKit/537.36 (KHTML, like Gecko) Chrome/130.0.0.0 Safari/537.36" version="24.8.3">
  <diagram name="Page-1" id="sarh6I-Re6jWcUb2jpK0">
    <mxGraphModel dx="2074" dy="1179" grid="1" gridSize="10" guides="1" tooltips="1" connect="1" arrows="1" fold="1" page="1" pageScale="1" pageWidth="850" pageHeight="1100" math="0" shadow="0">
      <root>
        <mxCell id="0" />
        <mxCell id="1" parent="0" />
        <mxCell id="LVKXbkrXhxO3vj0SjaUr-1" value="" style="shape=image;verticalLabelPosition=bottom;labelBackgroundColor=default;verticalAlign=top;aspect=fixed;imageAspect=0;image=data:image/png,iVBORw0KGgoAAAANSUhEUgAADvsAAAe0CAYAAADFrU+XAAAAAXNSR0IArs4c6QAAAARnQU1BAACxjwv8YQUAAAAJcEhZcwAAFiUAABYlAUlSJPAAAP+lSURBVHhe7N0HnF11mT/+Z2pmkkwS0ntIJQUSSkISIlWKgEpRUHQta0F0xV1XdNXVP+5vd+1lVdZlXXFF14oFpAkoEFoCCQQCKaSSkN6TSZlk2v+ee0+YkkmZySST4Pv98pDn+d5z76lR9/Xaj0/e5Re9pTYAAAAAAAAAAAAAAAAAAICj6t6H7s7Lu/HmmcK+AMexaQ/dlFYAAAAAAAAAAAAAAAAAHE9mPvVoXn5aAwAAAAAAAAAAAAAAAAAAR5mwLwAAAAAAAAAAAAAAAAAAtBFhXwAAAAAAAAAAAAAAAAAAaCPCvgAAAAAAAAAAAAAAAAAA0EaEfQEAAAAAAAAAAAAAAAAAoI0I+wIAAAAAAAAAAAAAAAAAQBsR9gUAAAAAAAAAAAAAAAAAgDYi7AsAAAAAAAAAAAAAAAAAAG1E2BcAAAAAAAAAAAAAAAAAANqIsC8AAAAAAAAAAAAAAAAAALQRYV8AAAAAAAAAAAAAAAAAAGgjwr4AAAAAAAAAAAAAAAAAANBG8m68eWZtWgNwHJr20E1pdeSVnzoxto86Nao6dcn8J0heuvpXprY2CrdtiY7zno+y559OFwEAAAAAAAAAAAAAAACab+ZTj+aZ7AvAQSXh3tXXfSS2njElqjqf8Ncb9E1krj25B8m9SO5JNvgMAAAAAAAAAAAAAAAA0ELCvgAc1PrL35ENuNYWFacrJPciuSfJvQEAAAAAAAAAAAAAAABoKWFfAA6o/NSJUd2+Q9rRWHJvknsEAAAAAAAAAAAAAAAA0BLCvgAc0PZRp5roewDJvUnuEQAAAAAAAAAAAAAAAEBLCPsCcEBVnbqkFfvjHgEAAAAAAAAAAAAAAAAtlXfjzTNr0xqA49C0h25KqyPj1Rs+m1YcyIBbv5pWAAAAAAAAAAAAAAAA0HyVY/OjcnR+1HTPi8j8izZSG5G/oTaK5tZE0eyadPHImfnUo3nCvgDHOWHfY4OwLwAAAAAAAAAAAAAAAC1VcVFB1LbPi+KZ1VGwujbiyGdM2Z/8iOo+ebFnfEHk7ayNkoeq0w+OjCTsmzkkAAAAAAAAAAAAAAAAAABtIZnomwR9S++qioKVgr5tLnP/k+eQPI/kuSTP50gT9gUAAAAAAAAAAAAAAAAAaCOVo/OzE3059iTPJXk+R5qwLwAAAAAAAAAAAAAAAABAG6npnhcFq2vTjmNJ8lyS53OkCfsCAAAAAAAAAAAAAAAAALSVJEtakys5xiTP5chnfYV9AQAAAAAAAAAAAAAAAACgrQj7AgAAAAAAAAAAAAAAAABAGxH2BQAAAAAAAAAAAAAAAACANiLsCwAAAAAAAAAAAAAAAAAAbUTYFwAAAAAAAAAAAAAAAAAA2oiwLwAAAAAAAAAAAAAAAAAAtBFhXwAAAAAAAAAAAAAAAAAAaCN5N948szatATgOTXvoprQ6Ml694bNp1braFxbERf17RGlBQbpyZO2qro6HVqyPnVXV6UrrGnDrV9MKAAAAAAAAAAAAAAAADt32G4ui4/cr045jzZF+PjOfejTPZF8A2kT/DqUxvHPH6N+x9KhsybH6dShJjw4AAAAAAAAAAAAAAABwbDDZF+A4dzxP9j21W+e0Ozqe37jVZF8AAAAAAAAAAAAAAF6Xxl72rpjUpzhiz+qY/rMHYna63vY6xtg3XR6T+pVG9eaF8dDvn4zl6Setq2uMOXdKnDawS7QvLsgt1VRH9Z7yWLtsYTw3e06s2pZbPupOvSw+eEbPSM6qeu1zcds9h/F0Tr4k3j+xTxQf0ed8tJ5ZPWdfGdeP6JI2jVRXx56dG2Plovkx/bklUZ4uv54clcm+pxfEjin5Eauqo/3vaiIvXebgjsZk34KJ513/pbQH4Di0YsmDaXVkbBv/hrRqXZU1tfHqjl1HdUuOeaR0nvlEWgEAAAAAAAAAAAAAwNHXa/gp0b+sIKJ6e6yYvTjWputHw5g3vSuuOndodJg1P5ala3VOj3PP7hMleRH5pe2jeOecWLQx/ai1dBoTb7rq3Dild4coKsiPPTu2RPmOiqgpbB/t2pVEWfd+MWJI96h4cUmsT79y9HSMKZMmRK/2uS6/fXGULFkQr+7O9c3Wc1ic2r8sCo7ocz4Kz6yxQSPjjG4lmaI6dm7eFjsqKqIi2aryo6ioKIpKOsQJfQbFSYNKYtP8FbE1963XjT0TC6L4mZq0a6Z2eVF1eWFUnF8QuycXZH+r8pT8qD2hNgqWR+SlcZrqswqjsixTZLbCZ2ojP7fcNrrlReX5hbHnjXXnvGd8QVSNSiLImfNuxRe7+rKCqK7N/OamdKEFDuv5HIJVr77yL236PAAAAAAAAAAAAAAAAAA4vnVrX5xWTXkp5q/ela2qN6+IuS9ny1Y19g3jYmCHgoiK1THjrp/ET351Z/zm93fG//3sJ/H7aUtiy56IneuXxZx0/6Oq3+kxsFtSVEd1Mhg0v1sMPL1PsnAMO/LPbP/KY3nm2SXPL7v95hdx20/+GI8t2pK5gxHF3UbGORcNz+1KRMe82P2ewqgYlJd5yWui3fPV0W5xTeQX5EXlmMLY8Y782Ds6r+C56ijcmflzXk12ynRbqbkgc17vKozdQ/OiNnPORQuqoyRz3kUbM2faMT92n1MU299XENWd0y8cjv6Z3xuaH9X7GRp9LBH2BQAAAAAAAAAAAAAAAKCFhkT7ZCDrfm2P2X/6dfzwtp/Ebb9/Mpanq63n9BjcPQkbV8faeQ/ErA251b02zH0sfvOzn8T/PbQwXTm6+p7UIxmkGrFnXSzcsCe7VtZ3TIzMVseqI/3MmmtTzJ/655i9Lon7RrTvMzwmZCtqzimIytKIwhmV0f6n1VH0eE0U3VcdpT/M9C/URMm0mkhm5WYtzfS3VUbpn/fGf4++mksKY+eYvKjdVROlv8idc7sHaqIwc97tfl0V7f87c36LM+fXKT92XdcKgd8TMsdKy2OdsC8AAAAAAAAAAAAAAAAALdQl2hWmZZsojXZFyZ/VUZ3L0h5DhsfY3tmob+xctyQeW7QudiZNaZ846dTsModse8xYuTE73TeKyqLbsOziX7m8qO6TRHlromh6bqW+/Meqo3Bp2hwLhhVExYjM+VbWROkd1VGwMV2vL/OAC+6rivZLazPPOT8qzn8tqtwynY6fsG/ejTfPPF7OFYAmTHvoprQ6Ml694bNpxYEMuPWraQUAAAAAAAAAAAAAAEff2MveFZP6FEfsWR3Tf/ZAzE7Xz3nb+2Nkl2R5Rvzkvjnpap29n29Z8JP4zePpYqL7yLhgyrgY2LU0itORk9UVW2Llotnx5NNLojwmxdXvHR7diwpyHzZS/3ivnduWhfHD3z2ZXUvsXd/5ymPxfzOK44Lz6x2vpjr2bFsRL0x9ZJ9pvQ1NiWs/ODwyl5A95u8yxyzPfdCksslvietGd8v8fnksevB38fDK9IP6Ok2Iq68eE90LqmPtrD/EXc9tz6wNiUmTx8bIPl2iOL3k6j27YvPyF+KxqfOjyVM89bL44Bk9oyB2xfKpv44/LeoTF1xzSQzrlPls45z44Z0zcvs1oWzohJhy6vDo16k4CrL3Y0/s3LQiZi0pjQln9oniRs+5/r2865Vuce4Zw6NvWTLxOHOe5SviuYf/nL2PA8+8MCYN7xNdSnIXkX2mC2fGn55Zke33avqZjYk3v2dC9C3eFUsz1zO96Jy4aFz/6N4hd5wkbb3l1Zfi4b/Mbvp+HMjZV8b1I5KnuCXm33ZnPJZbbejkS+L9EzPXHnti1dO/iHteStfTZzOsZ1m0r3s4sXPbulj0wvSYvjjz/OpLj1W9YU7cdtfiGHPulDhtYLfMd3Mf79mxMZbPfjIenrspt1Df3r8XJ2Te00N9Dw7B9huLouP3K9PuUOVF5QcLY3f72mh3R1UUrUmX92d8QWyfnHmZ1lRHxztq0sWMdnlRdVlB7O6bF7VNjZdN989O5R2R2f0PVVHYOT92Ty6IqtLcLvmZfUr+WBP5u3N9U6qvKYpdvSMK5lRG6cPp4v50zI+Kv838fmSu7VeZa1ufWRuUHzvfWhA1jc8/0fiz/vmx680FUZ39HwJoqHBaZZTMTJtD1LLnc+hmPvVoXlO3HgAAAAAAAAAAAAAAAIC/Vv2mxLVvnhTDupdmg5U7t2yJLTv2RBR3iYEnnxOXnt0js1N5bNma2Tbvyk1bzfxz5+bMfum2eduu7OqhKOw4PK69OnO8rsUROzLfL9+T+bWCzOEGxYRLLomxSTh2v5bEhm25qrjPhLj2XW+JC5IAam5pH+XTlsSqZAJwfln0PXl4brGRvqcPjO5JkHPX6ng5CfomIde3nBNj+3eJ4rzq2FOeO8coLI3uwybFmy8bk/1eQx1jyolJ0Ddj2+qYvSgpVsf89WkU+YTeMWU/11V2yiXxtvPGxMAuxZnv773/Ee26DokpZ/TMPJP9K+w6Nq44Z0z0LanOPIfy2JNMSi3rHxMuOD/GnH1lXHRK/+hSsCf7jHZWZj4ryTzTU86Pqyd2TH/hUBRE2Ygr49qzhkT3ksw9zfxWeUVyoOLocuLp2fuRm2fcuvr27Jhe++7YuTxbRAycFFdfkXs27Qsj92yS687s2f6E/jH2vLfG1ZP7pzs3VFDcMS64+vKYMqxbFFZmvrdlV+ypybxHHbrFsMlvijef0vCelJ1yYfxN478X9d6DK66eEgPTfY+O2sjLvBdJ6Hf3lQVROTK72DwFme/+bWFU9M+L/A010W5GdRRvbDhfNn9H/T4vqs4pjB3n5Uft5uoomVMThTsjanoXxM63ZdbSvfaV+V7v5M/aKHwxu3Bg2zO/uy4p8qJ6RHalebbURvHz1dEu+xuZy1yaOdfMtSVb8d535xhTMPG867+U1gAch1YseTCtjoxt49+QVq2vR0lxdMtsnYuLjvjWLj8/dlbl/s+HI6HzzCfSCgAAAAAAAAAAAAAAjr5ew0+J/mUFEdXbY8XsxbE2XR80+tRsILN6+6p4fmEyHrOhvZ9XbHw+5qQhuGGTzopRJxRFbFsSD999Tzz6/PyY89KLMWvJtsgv3B6rZi+M9bvXx9KXM+vzusTw07tFSWyLxb+4M+6bl6zNj5eXb879WMZr51axKZ6d92q6Wrde0L4s8jfPj6n33RcPP5f5/pzMsTZ1iKEnZn63uCw6l6yNl15pNJ31Ndtj6fZ03/yI/KL20bXvkBh16ikxakif6FK4Mzat2x5JvjdnfWzvOjRGdG0XRaUlUfPCwmg4EHV4TDlrWHTOXP6WpdNi6vLMcSdOivP6to/Ysy5m3Pu7+NOM9ByfXx4VmYNuWPxsrNmafn2vfpPiDWNPiHaZcsPiv8QzK3JnUL6pcwwa1T3a57eP0qauq9OEePMbh0RZ5lr2rJsTU+9/IHf/k+MtqYiuA/vFCe0yHzZ6zq/dy3ZFUfHKM/H7O6fGrHnz4vnMM+s6cFCcUFYW/bq0j+q1z8Vdv304ZmSe0ewXNkSHIYMyz78g2pd1iq0vLom9s2ybfmY9Y8S4flFWkOyfH5vmPRl33f1Y5vP58dKLs2N9xxNjcLeSKMr8Vum6ebH0QCOWGxs0Ms7IfDdzwNgwa34sy63W6TQmzp0wOHPsTL1tZTw1a1mUR/+46JIzo1/m0VRvWxbTHrgrHkqeTXLdybPp2jd7zR179IiuG+fFkr3PaO+x2nWJzjWr4tn7fx9/eib53pzs/ercr390LSmKsq6dYkfmnmSn9XY6PS49f3icUFgdWxY9EX+467GYmbzr2eeS+073E7pH945rM3+P9veu7t+eiQVR/EyjabWHID9zj6uH50dtYV5UDy2IPePzo7pPZn1nbeSnIfjX9M2PPQPyMn9laqN4bi6WW3tuYVT0yYvC5yqj9P7aKFiR2V6sicIT8qOyW14UPZpZTwc71w7LrdXW1Ebpr6ujeFbmGEtrozDzZ94pmeN2zov8tTVR0PjvQmJQ5tgnZc6zOnPsqZnvpcsH1D93vKiojaIFmb5LXlQmv1Hv/F/T+LPMX7f8zLXkpb9RMD9zvs9kjpusZQPSzdPS53OoVr36yr+Y7AtAmxjYsTTed9LAeMfQfkdlS47Vv0NpenQAAAAAAAAAAAAAAGB/+pbl/v/v9+zYGIvqBwa3LYkZT8yIOY1DhIcr87u/u3N6w2MtfzLmr8sFZMu6Dsn+uV+ZfX9zT+b7G3ZF9d48Xn5BtD+hT4w885K49toL47R6o35XPbcyNiT7FfWMwZMbTbQ9dXj0Sy6/cl0sfHx1dmnMCemc2ortmWPkypxNMWfakzGriUmhI0/uk5tuW7Mx1s6pF/7cNj1e3ZAbZlbWd0w0Hsb62lThzPHnTJ3R6P7Pj4fmrasXXG7CtmVxz8Pz47WcbebeTl+bdAVRUFAey5+YnQuvZq2Ixxakv1faMfpm1w5N+aI/xu+fWlJ3nIzljy+MtdkfK4vug7NLh69T5hmOPz+uvWJC9E3G+tbsiqUvPBarks9OHRsDszc5c11PPxJzGj+bvzwdy7MnWBYDx47NrjZQuTHm3PfnmFX/e0nA/cXVsTOpS3vGsJOzq5nnMjh6FWWKjQvj/qkNr7v+d7r0Gdms+3jYltVE6a+qot2a2shL+oK8qB5UELuuLIod78qPmiRtfgA1nZJvJSHfXL9X/oJcILe6V/ZXGyh8sbpRoDcXEs5O4U2Gfh/I7vQ8m6GmtLnfOD4J+wIAAAAAAAAAAAAAAADwmkWbclHG4j7j4tpzx8bAekHZI6KmumF4srFDyfptmB8P3/XruO13D8RjLyyJVVv2vBb8LSjrHxMuvrAuWLtteizKpVKje//T64UzO8aUE3tGkrXduXZhzMotxpw1WyIbz+00KK64bFKM7NMoILyPsXFSr1xgunr9sniyUTh6xqsbc79X2idOOjW79JphXXPB4urNa2JGS0LVTdzL8sxa1p7tsaHxby7bFbvTsjmqaw4yvfa1ZzYkznnzlXHt1Y23y+KcYekuDXSJkR98f1y/d7vmkjhn3KDokgR992yJRdPvjYeSKa8ZY3p3yT6rKN/02lTqhlbEnA25u1HQuU+MyVb11O6JnU3d4wWrI/P6ZBRHWbfcs977XKJDv7h0n2vJbCd3y05xjpLS6Jfd8SjaWBtFd1RFhx9URvtHq6Noazq1t1tB7HxHfjSagdtA3s5cSLemS65/Td/MWuaP/O0H+nYLtMs74Pk0JX9XK5/DMUrYF4A2sXz7rrj95eXx68Urj8qWHGvFjl3p0QEAAAAAAAAAAAAAgP1Z9ejTMXt1eVRHcXQZdnq86Yr3xwfffWW8+Q1jom+ndKdj1bbVMX/mY3HP734Rt909PZZuS4OujYK1s19YkQvFdhoUE/au9zs9BnZLivJY9dLC7FLW84/F9EVbYk9NQbTvMzLOueztcf173hFXv/H0GNlUEPr0/tE9mQIbe2LtK7OzSw08vzBWZiMOBdHrxEm5CcBZY6JTh1xVXZmdLXvkZe5PeoeOkNLodEKX6NLE1qkk3aWB6ti5eUtsqbdtWL0s5jzzQPzyZ3fGw/PqQsbdOiQJ4IyqPblJv01YVZleXUlpZB/tIdkUu9MEdLsOgzL/HBmdctntzO+UNXktXU4ozQWPCwpyf7aFzKXmv1gT7X5aFR3vr8mFRzvnR9UBpu3mv1STPd/KyYVROTIvajP71ozLj12n5GUWa6Lopdx+h21ZbXp/8qLmYNN/UzVdconx/M3CvgBwRK2v2BOvbt91VLbkWAAAAAAAAAAAAAAAwKFYEdPv+13cdteTMWvR6tiyY08UlHSJvidNiDdffWWcMzDd7Vi3YX489MDC2JCd8FsQ7epStRErn4vlG5OiLnA78uQ+2T+r1y2NGSuTz/baHnOm3hk/+d0DMX3uilhbvieqC0uj+4lj45y3vCPefEr9Sb8dY8rA3HTgZDJs34n1ptS+tk2JgXvDo936xYQmRsFWVb9echBz4p6f/SR+eFvj7RdxT5NB0vJY/vs74zf1tt/f90g8+eLq/U9/rmnte1UaBYVpmbU1dlfmqi0LmrqWetv/3h3Tc7u2rUXVUZx9vzPap382ZU1NlDxWE/lFebH7osLY8c6i2HlOQVRHbbR7oDoKDjLA+dDVRsH65M+8qDolu3BgHfOjqmdSZL63OLvyuifsCwAAAAAAAAAAAAAAAPB6UV0drTYTdsPCmDH1gfjNr34RP7wrnZJb0CVGnj4h3eE4sK089lSldYMBodvjyUWrIxsTzQZux8ZJvZIE7q5Y+fJzTQdLt62O2dP+HHf95hdx2+8ei9nrMt/OL42+p0yKYekuddOBI/aUN5xQ23DLnFd2r7LodVKfbBWxLHZW5KrCor1pYPZn44405FvcMfrmqn30LUrn7Fbsir3Z14PrEu3SsO/ObXMy/1wd5emh2peNyRXHgdr0GvIOdOEFebFncn7Eiupo/6uqKJ1RlfmzMjreWhVFS9N9Wknh87lpw9UjCqK6c25tf2rOy4/kr23equooWpNbe83rNBUr7AsAAAAAAAAAAAAAAABwXBsefbsUZ6vqbetiUbZKNQi4NtYxCg81YZZMyV2TRmALcsc6JnQaEhPGj4zuabuPgT0jd2vKY0Pj8OJLs2P5tqQoi76ThkT3okyZBHoXJGsHsW1JTF+6MRfYLSh4bXjq3unAUbMxFv6p4YTahtsDsTANYZb1HhMjs9X22JAGWIu79EnXGiprX5xODWbOmi1RnRRlXWNkE9ORI/rHmO65cc7VW1dHEts9FGWn9869C/XemTlrcw+ruPugmNApW7a93vmx6+8KY/fkvHShTu34gtiTBGrX10ThgabzjsyPqsy11rbL1O1qI39xbSS/VnuQMG6LzK+OkgWZf0Mqypz3NQVRnYbiG8i83NWXFcbOwZmzqKyJkj/X+zewFWkgtlteVNU/v4JMP7kgsgO89ye5vmOcsC8AAAAAAAAAAAAAAADAcatjjHnj2BiYHQS7K1YumJ1d3WvRplxAt7jn8DhnYLbM6TQkJr3lrTGsieBi34mXxLWXTYmRDRK0/eOcnmlwcndTc2/LovuZHXNl9z7R9ygFIseeNSlOGzcprrj2kpg0ND3+Xt3HxpvO6p8N4lZvXB4zVuaW66yOGStyIc72XbpkQ7QbVjwXq7Ir9Zx8Tlx9xfkxoU/93+8YYwd2i2yOuGJXbMiu7Z0OnDne+mXxZDZIvD/b48lX1uXCqqV94qRTs4sxe9G63GTmzNrYc4fkgsOp7qPPjzeP7ibsu9fzs2N59lUsi8FnnR9jGryvmb8XF0yMgdkbWB7LZzf8e5FV3DNGNrrHZUMnxAWjembvcf13pnzakliVTF0u6hljL8kcq9H73X3EpHjztW+LN5/S6B08knrkRRLNrRxfGNuvL4yKy/Kj6uz82P2uwtgxOT9qK2ui9P4DRmAj5tdE8eaI2h4FsfOqotjxznR7b1Fs/7vC2HVZcozWk/9AVbSfkznr0vzY9a6i2Pnegth9SXre7yiMnR8pil1D8yJ2Zs79l9VRsDX9YqK6JopezfxZkB8V1xVmv1eZBIM/kqkLa5sMy+avyYWXq07J3J+3FcSuG4qiYlLus2NNwcTzrv9SWgNwHFqx5MG0OjK2jX9DWnEgnWc+kVYAAAAAAAAAAAAAAHAk9YlJb7owzho7MsaMGhMTJp4Wg7smYyurY8uCx+KuWQ0TpuWb8qPP0H5RVlwS3QefEqeMGBIjxpwek8YNiT6l5bF2a1F0LM2Pio3Px5zlyTeGx6SzR0efrt1i0IjM/iMz+49IjjMqerXPzxxmSyyYPjWWvRbCK4q+Jw2KE4rzo32Pk+LUseNiwujhMbR3USyavyo7+bbX8FOif1lBRMWmeHZektbL2d/6Xgf7PAl0lnXrFb26d4h2JWXR68TRcerJJ8XwYcNjzLjTY8op/aNz5ryqd6yIGQ8+Ea/uTr9Wz54VJdH/lD7RMUl37loRM++fnwZ39+oRUyaPjxO7nxB9hmd+f/TQGD78pDht/OkxuEvypT2x6oVH49l1e6Js8pkxqXcSLd4VK2Y9HIvSyb37tSZzjaMGRuei/OjYriQWzF8RezauyzziYZnrLoqSroPilMz1DM1cz2njJ8TYEztF9drNUVnWPoqqt8eK2YtjbfpTB7xXg0bGGd1KMs+u4XdyBsaY07tFSVTEhlnzY1m62vTv9YwR4zLvUrL82vtS38E+P4C959joPA5sWywpL4lBA7pHx/ZdYmDyvibv90l1fy/yM89nw9yn4t459f5e7D1WTW0UdRscY8eNjhFDhsbozDszYUTmXSjM7FOxOp554LF678z6WLC1Qww9sVu0L80ca1T9vxsT4+QTu0dZu3ZRkF8RaxeujR3ptw7VnokFUfzMQYK5ja3LnP/s2igoi6jtmnnPu+dHVe/8qCmKKFhRE6W/rYmC+ifSN3M3BuRFbK+N4rm5CG/tWQVRcWLmb/Gz1VEyJ7P/ptooXJXZttT9Zm1BTRSuyPTD8qOyW17kZ367sFEi/kCfNZa3tCaKkwnCnfKiJjlGz/S8S/Iib3vms1nVUXpvTeQ38fc1f2HmHDtn9u2elz236sy1Fz6f2f++2qiZmFmvd21ZazP3J/Pb1V0zxyrLXPuOzO9n7ln+AYP4+2rR82mGVa++8i8m+wIAAAAAAAAAAAAAAAAcN/pEr25l0eWELpmtLIrzqmPPjo2xaNq98ZvHV6T71LNtTtzzwHOxdMueqI6CKC7LfK9DxO5NS+LJe+6MOVuTOG59C+OhX/0xnly0MXZWRRR3SI8Te2Lnhtx3HmsQ4lwSDz01P9buqI7IL4iCooLs+SxdsDiamv/burbHoqfvi/+7+8mY9UrmfPdkrrC4NHdvOhRHdcWWWPXy9LjrV3+O2fsN9y2JtVuz83WjfNWcmJ+t6lsfT971h3j4pRWxpSLz+yW5e9++MHPft6yI2Y/+Me55cXtmvz4xoX+37DeqN2fWF2TLg1gYs5dvyU337dYvJvRLiu0x+74/5e5/8mjS6yms3JJ9xv9335rYmTtdEsunx+/veixmr9iSe1+T93vv+5o8h8zz+f20Jv5eJKrWxYynlsSGioiy9J2J6j2xZcWcePjuB/Z9Z5Y/Gb+5Z3rMX70l9tRm/i7V/7uxeXXMn/bHzPOZ3ShMfYTtro2CB6qj9NbK6Pj9dLu1Kkr/2ERYdmZ17vM70tBqx/zYfXp+5C2rjnbTaiN/fm0UTq/JbQ9nfnNqTXYqbk2n5J+5qbzJ90tmZtsGDvRZkzbWRtEfq6J9/fP+QWW0/2l1FM08wCzhzLtfkEwH/s/0O5lrTc49ojbaJf3ea6unIHOcDukxOtxeHYVN/e8GHAPybrz5QFcOwLFu2kM3pdWR8eoNn02r1lWUnxendO0UJQXJ/4rNkVdRXR2zN26Lqtoj8x97A279aloBAAAAAAAAAAAAAADHjX7nxHVvGhJlNRtjzu/ujiebOfGT49DZV8b1I7pE7Fkd03/2QMxOl9vS9huLsmHUo6pHfux6Z0HUrKuO9r/OBXvrq7msMHYOjSi+vyqKF6WLf6WO9POZ+dSjecK+AMe54zXsO7xzh7jixD5pd3T8YenqWLxtR9q1LmFfAAAAAAAAAAAAAAA4/pz25vfEhF4FUb32ubjtnmMh9skRJ+z7muq3FcWuvplid20UrqmJwnURtT3zoqp3flS3i8hfUBXtHxBBPRph3/y0BoCjauWOili4dXus2L7rqGzJsVbvrEiPDgAAAAAAAAAAAAAA/NXrNCkG9yjIFOWxfLagL399Cn5XGe1n1kRBdV5UDyqIigkFsXtQftRW1ES7hzOfCfoeNSb7AhznjtfJvq83JvsCAAAAAAAAAAAAAMDxZeQl74hz+pdG9cY58Zs7Z0R5us7rnMm+NNPRmOx7jId928U1N5wcZ/dO24xti1fEd362Njam/WE5aVD88zXdo1dh2kdNLH1kVnxnatpGr/j4Z/vHiJK0PRwbNsQnblmWNoeu/0l9YvL4zjGiV0l0bV8QRa+da0ZNTVRW1ca2DTtjxatb4/Gn18aCTelnR9nkd4+N64YXpV1id8z82Uvx08VpezRMHhFfu6QsStO2pff8aBp90Yi4ZkJZdCvONDt3xuP3L4k7Xtyd+xAOkbDvsUHYFwAAAAAAAAAAAAAAgJYQ9j22HY2wb35aH6N2xx3zdkT9W9BpaI+4fGjaHKYkRFsX9M3YXh7TXwv6tqV2Mf6SYfHPnzkjPnNd3zh7eIfo1alR0DeRnx9FxQXRrW9ZjJvYPz7+8dPi364fHGf3TT8/anrFGQPqB30T7WLEpO5pTZOGDo5rpqRB30T79nH2JQNictoCAAAAAAAAAAAAAAAAAK9/x3jYN2Pq1lixJ62z2sXgU8vS+nD0iUmDGgZUNy5dG9PSus2c1D8+/g+j472TO0ev9unaocrPj059u8Y1Hzo1/vmqHtEtXT7izj0hBjcx/bjToO5xcVrThJHt931GHdvFiWkJAAAAAAAAAAAAAAAAALz+5d1488zatD5mTX732LhueL1g7vat8ctvLjq8YO4lo+J7k+ulaWt2xuO3zIs7NqV9Vq/4+Gf7x4h6Qda1s56Nf78rbVpZtynD4pPnd45OjSf47qyIBUvLY8GCrTH3ha2xIl3uNrhLDO7fKcaP6hLDexdFUaPo9q416+P2W5fH3LQ/MtrFNTecHGf3TtsGamLpI7PiO0drWvLkEfG1S8qiNG1jw4b4xC3L0uYYNHRw3Pyerg0DvxXlcedXF8TDaQuHYtpDN6XVkfHqDZ9NKw5kwK1fTSsAAAAAAAAAAAAAAAA4dNtvLIqO369MO441R/r5zHzq0bxjf7JvxrTp5bExrbM6dowzJqd1i7SLawY3Gpu7bkc83CDoe3R1mzIiPvnGRkHfqt2xYNrS+Jevz4lb7lgeD9YL+iY2Lt0SMx9fHrf+cHZ86kfL4vHlDV+W0t494oMfHxSj0/6I6No7RtQP+lZUx660TAZHDx418OhNGD7eLF4adzyZebf3Tq7euTMev3eZoC8AAAAAAAAAAAAAAAAA/BU5LsK+sXhVzF2T1lkFMXhUn7RugaF9Y3SDSbQ1sXTe8oaB4qNp6KC44fyy6FTvaVRu2xr3/PiluOWBTYd2Xqs2xB0/nh23Pr2zXtg2oqh793jf+3odscDtiMx590rrxLZlG+LVirRJ9O4Ulw9Na/Yx96EF8S9ffjY+8aXM9vV5cceLu9NPAAAAAAAAAAAAAAAAAPirUJvZjo+051+f5Lkkz+cIO04e/+64Y+nOtM4p6t8lrumaNs00/syyhuHX7eUxfWpaH3Vlcd0lXaNX/Ym+O8vj3p8sigdXpX0zzL1/Xtw+qyLqz/gtHdwnrpvSLu1aU/e4YHD9362MFfNXxIJ1NWmfaBeDTy1LawAAAAAAAAAAAAAAAACgvvwNtVHdJy/tOJYkzyV5Pkfa8ZP1fmBLLN2T1on89jHi7JYEWLvH+H5FaZ2zcenamJbWR925/WJ8z/qPoToWPL4gHt6Uti0w965F8fia+oHbghgxeUBMTrtWM7lrDO6Y1ontO+OFWREPztvRYLpwt8G9Wv/YAAAAAAAAAAAAAAAAAPA6UDS3JvaML0g7jiXJc0mez5F2HA12Xh3Tl9WfVxvRa1DfGJHWh+zc7jGsfkA1dsfS58vT+mgri/eO6xD1o8eVK9bFLw87ebw77nxoS2xMu6yOZTHp3LRuJReP6hClaZ3YtnJTLjQ9bVMs3Z5dyjkCxwYAAAAAAAAAAAAAAACA14Oi2TWRt7M2dl1RGNX98o6r5OfrUub+J88heR7Jc0mez5GWd+PNM4/8/ODWMnRw3PyertEtbSMqY+5ds+PWWWl7CN78odPi4v713vQ16+Nfbl3eMBj7ml7x8c/2jxElaZuxdtaz8e93pc3hGjo0cz1dDut69q9dXHPDyXF277RNHPBam6nrwPjMx3tE3a3cHTN/9lL8dHGuG3/d2HjvSXUx5srlq+JTP16dds3VPia/sU9MOqUs+ncsiKLCdLmmJnZt2xULXlgXdz6yKTZOHhFfu6SsLoC8YUN84pZlaVPngvedGlcOzv2vHFSuWRtfvnVF7p507RpXXtonJg8uidK9x6iqjrVLN8QD96+ImY2nLfftEddd1DNO7VccpcXpjcicU2XFnlg6L3NOd6+PFbnV/ap/Ltmpzg88H7c0Ffauf21VO+PhH8yLO/eeT3oeY/oUR6eSune7sqIye+4PP7Rq33PndWXaQzel1ZHx6g2fTSsOZMCtX00rAAAAAAAAAAAAAAAAaL7KsflROTo/arrnRWT+RRupjcjfUJud6Hs0gr4zn3o07/gK+yaTcD8xIsZ3TduMXUtXxD/dvjbtDmKfgGpNLH1kVnxnatru48iGfUdcc3J8fEy7tMvYvjV++s1FMTNtD9slo+J7k9unTUbNznj4/82LO9P2cHS7YkzcfFq9G7NpU9zyvaWxIG33CTJnjv34LfPijmaGTrudMjA+eHnmmdU7VFMqN22JO58tiDdf1Lywb1SUx51fXRAvTBgaH78kc757Q76N7czs96MF8XD2/NvF+MuHxDVntI/SernxfWzfEQ/fPT/ufDntm9CisO9r+7WLs68aFm8+peTA51G1O154YGHcNmN3usDrzREP+37knzL/5cB/Ozig2toY8N9fSxsAAAAAAAAAAAAAAACAQ5OEfQ8UETwGlce9C3emdU5pvxPi4rQ+mBHnd6oX9M3YXh7T9xv0PfLO6FEv6Juxa3156wV9EzN2RoMYdH676D8lrQ9LWVw+qGH6dsXCVXVB38TidbG0frA3v32MOLvh9R5MtynD4pNXHDzomyjq2iWuOb9DXdD3UJUUZe7JiPjM5QcI+ibaZ675nYNiRKYcfcWwuG7CQYK+iY4d4oIrRsQF9cLpraMgOvfsHNfcMCquGXeQoG+isF2MuyRzzielPTRT4bYtacX+uEcAAAAAAAAAAAAAAABASx1nYd+IjfdviaV70iZR3CFOvfRQQqRlMalfw/22rd4STQ1RPTp6RbdOaZnatuUQJxQfqk07Y2uDbHRBdOvZvMBtk07rFSPqB1hrdsbSpxtPjS2Pe5dVpHVOr0F9s2HZQzJ0UNxwfufoVD+AW7U7lj67Km67/aX4xJeezW5f/+WqmLZ0d+xKPi9syetcHOPOz03Mrdy2I6b9ZVF8PfvbL8Utd6+PBdvqRmwX9ewcF0wZFFeNK4miZKGqMns+t/4wdy6f+OGyeHBeRe5c9mpfFhdc0j1tWk/XUYPj7N65icCVW5LzXhy3fG/veSyKe57dEduqsh/nFJbE+PP7101ahmboOO/5yKus/2+81Jfcm+QeAQAAAAAAAAAAAAAAALTEcRf2jVgd05dVpnVO/0G9Dh5ibBxQjd2xYPqGtG4LJdG5wcTa6ti6Li1bzfrY2HAQcrTv1CXy0rqlLhjbMRrklNeVxx31p/imNj5eHivqsrIRXcvigtPS+oDaxZUXdY1e9YO+O8vjnh+/FN+5e3W8sLQuWLzi5dXxy9tfiq//blOsrR9uPWT5UZQ5zq6lq+I7354fv3x8a6zIrmfej2eXxy3ffjXmbs8uZBTF8PMz55X8ramqiGl3zM6ez9xVuU9j1Ya459dz4vZZFVH/De00qGtckNatpagkCfpWx9JpS+PL/5Gc95ZYsPcZrNoaD949P77zSHmD4HFR7y5x+dC0gWYoe/7pKNi5I+1oLLk3yT0CAAAAAAAAAAAAAAAAaInjMOwbMe2lnbEtrbN6dzpoiHGfgOqabXHv4rRuhl6nnRHf+9KhbmPiuvR7x4rS0uxM2sPQJ8b1y02UzamJpfNy8dh9bFoeCxoEmIti8NheBw8bD+0b43rXezVrdsfMuxbEg3tDtU3Y+OLSuPXpnQ1CtoeqctXa+P7tq9OQb2Mb4o45dYnponR68MZ5y+OXL2fLfcy9a20sfC0gnFHSPkZPTOtWUx0LHpoX33lgU2xMVxrb+OSCeLxB2rpdDBidltBMPe79dRRu3WzCbz3JvUjuSXJvAAAAAAAAAAAAAAAAAFrquAz7xgtr66aYZrWLEZO6p3VTmgiovrx8vyHJ15O15dVplSqsfx+ar9ulXWJwcdok9uyKOVPTugl3ztvRIIBb2u+EuCit92f8mWUNJjVXrtgYP91PsLa+jduroyXDfTetXbGfoG/OxqcrGr0rFbHgkfK0bsqGWLC+/n0viM4907K1bNgctzxZN+F4f+55tSKtcjp17ZVW0DyF27ZEn1/+d3R+9slswDVqa9NP/gplrj25B8m9SO5Jcm8AAAAAAAAAAAAAAAAAWirvxptnHpeJrW6XjoqbJ7ZPu4ztW+OX31wU09K2vn323bMj7vny/HgwbfevV3z8s/1jREnaNltFTPvSnPhl2jU0KP75S90zR9irOhY88Hzc0tQFHIbrPn5GTK6fg16zNv7+1hXRsofeLvN7Jzf4vW0Ll8UXfr4h7ZrSJz75+b4NAsIrnn4pvn7//oKqZfHBfxgR47qkbXPuy+QR8bVLyqI0bWPDhvjELcvSps4F7zs1rhxcF3peO+vZ+Pe70qZJjZ5VRXnc+dUF8XDaNumKMfG90+penP0do+G5HOBaD/Ha9tHoe5UrVsenfnSAEckcl6Y9dFNaAQAAAAAAAAAAAAAAAHA8mfnUo3nH52TfjI33b4mle9Im0bEsJp2b1g20iwsG1Qv6ZmxbtuEQgr5NS0Kbn/jSoW77C/q2nV276s/ZbaahfWNEgwHKlbFi7oGCvonV8cLKhtOF+w/t3WByb0Odo1untEzU7I4VrRyA/mtWVFKUVgAAAAAAAAAAAAAAAADAseC4DfsmIdI5a2rSOpEfg0cN3DdEOrRvjO6d1lm7Y8H0gwVUj4aK2FqRllkF0blnWraaHtGtYc45du7c2cKpvhGTJ5U1vL9bdsTDs9L6AB6evT22pXVW97K4fGhaNza0XZTWfyv3VDf8LgAAAAAAAAAAAAAAAADA68hxHPaNeHBWecMgaM8OcUHXtE7tE1Bdsy3uXZzWbWptbGyUYu3UpVdatZKu7aNzg7BvdWxcVZ7WzdUrzhjQcCrsxlfXxYK0PqBZm2LF9rTOahcjJjUYEVynZ0E0OOXtu+PhtAQAAAAAAAAAAAAAAAAAeL05rsO+MWttLNiU1on89jH6/LK0SXSPcX0aBlRXLFsbG9O6rT27fnda5ZT2KIvxad0qJrSPBvHhmt2x4sm0bq5zT4jBJWmd6nbKiPjel844hG1wjO6YfinVaUDXuCCtAQAAAAAAAAAAAAAAAAD+Wh3fYd8oj3sX7kzrnG6De9UFZs/tHsPrh0z37Ijn728YsG1LCxZUNJxM3LF9jD8trQ9bu7hmcIMZuRHrdsTjadk8md8a1SEaxqYPU0mHGHduWtdXk/65V2FhjEhLAAAAAAAAAAAAAAAAAIDXm+M87Bux8ekdsaJ+QLReYPbKRgHVbcs2xINpfUx4odFk4szZDj+jb3RLu8MytG+M7p3WWTWxYmkLpxp37RWDe6Z1q8mPwaMG7nutT+9uGIAuKYj+aQkAAAAAAAAAAAAAAAAA8Hpz3Id9Y9PyeL5B2rcohp/WJ6LrwBjRIKC6O5ZO35DWx4ryuPfFHVGZdomi/t3jmsOe7tsurryoS8Mg7fbyePyBlk01HnF+p+hf/03ZsyPu+dKz8Ynmbo80vNboXRYXd03r11TE1oq0TJQUR/999gEAAAAAAAAAAAAAAAAAeH04/sO+GQ/OKo+taZ0o6lkWF0zo0DCgumlHPL44rY8hGx9ZGTPXNQwrj75oRFxwGAHX0VcMi7N717/46lgw7dWYlnbN0z0uGNwurXNaPCF56uZYWj/IGyUx4vyytN5rS2zcnpZZ7aL3xIbHBwAAAAAAAAAAAAAAAAB4vXhdhH1j1tpYuCmtEyUlMb5RQHXFwlWxIK2PLeXxy79sirVVaZtoXxaXv39YiwK/oy8aGe87rSSK0j6xa+nq+OWTLZvqG6d1if4d0zprdyxo8YTktfHsqw1m+0a3wb1iclrn7I5nVzc81/4n9Y/Rab1/neO6MzpEadoBAAAAAAAAAAAAAAAAABwPXh9h3yiP6SvrB0SLon/vgrTO2LMjnr+/hWHXo+HlZXHrI+WxK20TRZ06x5UfOzk+OKUsuqVrB9S1a1z5vrGZ/RsGXis3bIjbb18bG9O+uS4+rSw6pXXWhvK49zAmJE+bXh4NosId28e409I6teCRbbGi/rDjLp3iqqu67v8+dO0RH/zEkJjc/XXyOgMAAAAAAAAAAAAAAAAAfzVeN+nIfQKi9WxbtiEeTOtj1cYnF8TXH9oa2+pP+C1sF+MuGhE3f2ZMfPyagXHxuM7RP/0oq2/nGH/2wLjh+rHxrY8PjgsGFzWY6Fu5blP88hfLYm7aN1vXgXFq/4avyIrFa1ocHM5avCrmrUnrrKIYflqftE5tWh6PL6w/ATg/eo0bHJ/52NB48xl14edug7vExW8ZGTd/bGCM65o5z6qaaDg3GAAAAAAAAAAAAAAAAADg2JZ3480za9P6uHfxB06LNw9snF+ujLl3zY5bZ6Vts/SKj3+2f4woSdvDsWFDfOKWZWlzACf1j49f2iNGdDmMHHZNdax9cWXc/of1sSJdaolul46Kmye2T7uMPTvini/PP/zg9Pkj41vndqgLJtfsjMdvmRd3bEr7rM5x3cebMa23qiKm3bEhul1V73nt555f8L5T48rBdZOf1856Nv79rrRp0qD45y91z7wNqYryuPOrC+LhtG3SFWPie6fVvTj7O0bDc6mOBQ88H7dMS9v6Jo+Ir11SVje1+VDfp5Z+j+PKtIduSisAAAAAAAAAAAAAAAAAjiczn3o073UV9o3ThsW/XdE5OqVt1qZNccv3lsaCtG2eNgj7ZrWL8ZcMiEvGdY5e9bK2B1VTE9vWbIkH7lkaj69K11qsLN77iRExvmvaZmxbuCy+8PMNaXc4+sQnP983BhenbcaKp1+Kr9+/O+1SXXvEB/+mf25q7wFUbtoSd/52ceaa22XO+eS6cxb2Ffb9K/Gtfx6bVgAAAAAAAAAAAAAAAAAcT4qLi/MOY3zsMWjWllixPa1TKxauamHQty3tjpkPLIp///qz8fW7Vse0hTti7bbqqKxKP96rpiYq91THxlXl8cLTK+KWW2bFF37YGkHfjNN6xYh6Qd9kcu6c6a0R9E2sjgfmVERl2iX6D+8bI9L6NZvWx23fmxu3PLQplm7JXH9Nup6oqo5t68pj2kML4svfS4K+yeLuWLG5OvsxAAAAAAAAAAAAAAAAAMDx4PU12Rfgr5DJvgAAAAAAAAAAAAAAAADHp9ffZF8AAAAAAAAAAAAAAAAAADiOCPsCAAAAAAAAAAAAAAAAAEAbEfYFAAAAAAAAAAAAAAAAAIA2IuwLAAAAAAAAAAAAAAAAAABtRNgXAAAAAAAAAAAAAAAAAADaiLAvAAAAAAAAAAAAAAAAAAC0EWFfAAAAAAAAAAAAAAAAAABoI8K+AAAAAAAAAAAAAAAAAADQRoR9AQAAAAAAAAAAAAAAAACgjQj7AgAAAAAAAAAAAAAAAABAGxH2BQAAAAAAAAAAAAAAAACANiLsCwAAAAAAAAAAAAAAAAAAbUTYFwAAAAAAAAAAAAAAAAAA2oiwLwAAAAAAAAAAAAAAAAAAtBFhXwAAAAAAAAAAAAAAAAAAaCPCvgAAAAAAAAAAAAAAAAAA0EaEfQEAAAAAAAAAAAAAAAAAoI0I+wIAAAAAAAAAAAAAAAAAQBsR9gUAAAAAAAAAAAAAAAAAgDYi7AsAAAAAAAAAAAAAAAAAAG1E2BcAAAAAAAAAAAAAAAAAANqIsC8AAAAAAAAAAAAAAAAAALQRYV8AAAAAAAAAAAAAAAAAAGgjwr4AAAAAAAAAAAAAAAAAANBGhH0BAAAAAAAAAAAAAAAAAKCNCPsCAAAAAAAAAAAAAAAAAEAbEfYFAAAAAAAAAAAAAAAAAIA2IuwLAAAAAAAAAAAAAAAAAABtRNgXAAAAAAAAAAAAAAAAAADaiLAvAAAAAAAAAAAAAAAAAAC0EWFfAAAAAAAAAAAAAAAAAABoI8K+AAAAAAAAAAAAAAAAAADQRoR9AQAAAAAAAAAAAAAAAACgjQj7AgAAAAAAAAAAAAAAAABAGxH2BQAAAAAAAAAAAAAAAACANiLsCwAAAAAAAAAAAAAAAAAAbUTYFwCOQz+67X/jpDHjGmzv+8CHY+fOnekeAAAAAAAAAAAAAAAAwPFA2BeAFvnVb367T9h09NjT45vf/m5UVVWle7WO2tra+MUvfx2nn3nWa8d693v/NtasXZvu0XpemjMnLrj40gbXlWzf/8//SvcA5syZGxMmn93g74iwOQAAAAAAAAAAAAAAQMsI+wLQIhPGnx49enRPu5zq6ur4yU9/Fs/MmJmutI4lS5fGD/77h7Fjx450JWLms8/FbT/+Sdq1jiSo+I1v/UesXLkqXckpLS2NsyZPSjsAAAAAAAAAAAAAAACA1iPsC0CL9OvbL0aNHJl2dSorK+PpZ2akXeuYMfO5WL9+Q9rVefqZmbF585a0O3yr16yJxUuWpF2dEcOHxfBhQ9MOAAAAAAAAAAAAAAAAoPUI+wLQIiUl7WLihPFp11ASwi0v3552h2f37t3x6KNT066hZOLvvPnz0+7w7S9UPG7sKdGpU6e0AwAAAAAAAAAAAAAAAGg9wr4AtNjkSRObDMEm03GXL1+edodnxcqV8dLcuWnXUDJF+JH9BIGbq7q6OqZNfzrt6hQVFcX5552bdgAAAAAAAAAAAAAAAACtS9gXgBYbOHBgDB0yJO3qbNu2LV6c03RAt7mmP/1Mk9N290qmCG/evCXtWm7Dho0xb96+U4JPPHFQjBgxPO0AAAAAAAAAAAAAAAAAWpewLwAtVlbWMSaeOT7tGkqm5CbTcg9HRcXueHTq42nXtCVLl8a8+fuGdJtrzty5sWLlirSrM/bkk6Nb165pBwAAAAAAAAAAAAAAANC6hH0BOCznnP2GKC0tTbs6L7wwO1atXp12LfPqq6/GnINMCK6srIxHHp2adi2XCyfXpF1OQUF+XPjG8yMvLy9dAQAAAAAAAAAAAAAAAGhdwr4AHJYhgwfHwAED0q7OuvXrYuHCRWnXMs/MnBkbN21Ku5wuXbqkVZ1pTz8T6zdsSLvm27ZtW7ww+8W0q9OnT58YMXx42gEAAAAAAAAAAAAAAAC0PmFfAA7LCSd0iYlnjk+7OsmU3Cefmh61tbXpSvNUVOyOqY89kXY5yaTdv3nXO6NTp07pSs4rryyLefPmp13zLVy0OBY0EUw+ecyY6NOnd9oBAAAAAAAAAAAAAAAAtD5hXwAO2zlnvyGKi4vTrs6Mmc/Gli1b0655Xn311ZgzZ27a5SSTdt94wfkxdMiQdCWnsrIyGwxuabB41qznY9euXWlX543nnxsFBQVpBwAAAAAAAAAAAAAAAND6hH0BOGwjhg+Pvn36pF2d5a++GkuWLk275nlm5szYsHFj2uWcNm5cnDRieEw5a1K6UufpGTNi46ZNaXfokgnCT8+YmXZ1evToHqNHj0o7AAAAAAAAAAAAAAAAgCND2BeAw9azZ48Yf8ZpaVcnmZb71LTpaXfodu7cGQ8+9Je0yykoyI/zz8tN2n3DlLOiY8cO6Sc5r7yyLObNm592h27lqpUxb/6+3zt59Ojo369f2jVPElL+7e/+EB/48A1xzgUXxeixp8VJY8Zlt4lTzo2rr70uvvPd72fPuaXTiI+E6uqaWLxkSfbcknNMznXvee8993e++33xvVt+0Crnnnx/5cpV8b+3/yz7u1POuaDB8U4/86x48xVXx79/9esx/elnoqqqKv1m8z386NQGv331Ne+MNWvXpp/mJOezaPGS+NL/+7e44OJLX3tu4844M3N+7427770vGw4/kOQ3knvzzW9/Ny57y1XZ7+49ZnL/knfij3ffm33HW1N5+fb40wMPxt//46fj/AvflDn30187bv37+MLsF7PPGQAAAAAAAAAAAAAAgGOHsC8Ahy0vLy/Omjw5G8htbOazzzU72Lh06Ssxt1Fwt0+fPjFu7CnZetjQoTF82PBsvVdlZWU8OvXxZgdQ586dF+vXb0i7OmefPSVKSkrS7tAkQdEPXv/ROOf8C+Of/78vxZNPTYu1a9c1CFdu2bIl5syZG7f+8EdxyeVvjbdc9fZskPVwg7OHIzm/+//0YLwpcz5JQDU5t+Qck3OtL+lnPf98/Od//Xf23N/+jnfHjJnPNvvck+P95eFHsteehGq/+vVvZn+38STnHTt2xMJFi+OnP/t5vO8DH47JbzgvfnDrD2P79h3pHi03J/Pc679jW7dujX/89D/FW696W/zy13dkQ8h7n1sS8J31/Atx02c+F29/57uygeimJN95799+KC5765XxP7f9OLtf/XBwcv+Sd+LTn/18vOG8C+O2/739sALMidVr1sTnv3BzTJxyTjbomwR+V61enTn36nSPhvfx2uv+Js6/6JK45777G7yXAAAAAAAAAAAAAAAAtB1hXwBaxdixJ0fPHj3Trk4SeEwCic0xbfrTsW3btrTLmThhQvTr1zdbl5V1jAsvOC9b1/f0jBmxcdOmtDu4JBA59bEn0q5Op06d4tSxY9Pu4JJA5ze+9Z1461VvjyeefKpZIcqFCxfFBz78kfjnL36p1ae9HopkCu273vO++IdPfTqWv/pqunpoXpozJ973gQ9lQ7Jbtm5NVw8sCcQm3/nYjf+Qvfbm2FZeHt/9/n/GRZdeHo9MfeywA9JLFudCu0no923Xvivuu/+Bgz675Jw/8tEbY8GChelKThI0v+qad8YzM2Ye0vNPArhf/+a34/NfvLlFzz05xs9+/su4/K1Xx+/+cGf2XT5USQD9U5/+bHz4ho/Fhg37Bt0BAAAAAAAAAAAAAAA4uoR9AWgVfZPJu+P2DcgmU3OT6bmHKgk+Pv7kU2mXk0wMvvCN52cnCO81edLEbCi3viS4Oq/RROAD2bBhY8x+8aW0qzN0yJAYOHBg2h1YEpZMQpM/+vFPmhW4rC8JbiaBzb/7xCezE2aPlqemTY93vef98fwLs9OV5kvOPQnJvu9vPxzLli9PV5uWTMd959+8NzsN+HBs2rQ5/u7Gf8hOxj2UYO3+rF23Lvv8P3T9R+PVFSvS1YNL9v3aN7/9Wkj34Uenxqc+89kWPbu7/nhPfP1b32nWu5Mc93Nf+GL825e/mg0Nt1QyZTiZmHyw5wYAAAAAAAAAAAAAAMCRJewLQKsoKCjIBnCb8ueHHz3kMOPSpa9kJ63W179f/xgzenTa5QwefGKMHjUy7XIqKyuzE1YPdeJrMnV41erVaVdn4pnjs9ODD6a8fHt85nNfyE5zbaykpF2c/YYp8dUv/2s8cO8f44lH/5LdfvaT2+LDH/xA9Oq17xTkJHz7uS/cnJ0UfKQlIdebPvO5JichJ8/yDWdN3ufc7/jVz+Mf/+ETMWTw4HTPOuvXr4+tWxtOY64vOV4S0F23bn26Uie5V5df9qb47re/EY889KdDulfJ+/Tt//hu/O/tP23xhN8XX5obn/vnL752D5LzuOqKt8b//ui/s8ef+vCD8V//+b14w5SzsoHz+qZNnx6PPPpYrFm7NnMe34vt27enn0QMHDAgbv7C51+7d8mfSd/UfUv84c67YvrTz6TdgVVVVcVXv/6tbEi4seS5jRt7SvZY99z5u9fu44Ge26LFS+IT/3BTsyZiAwAAAAAAAAAAAAAA0LqEfQFoNRPGnx49enRPuzrJtN1kiu6hmDb96di2rWFodPwZp0fPnj3SLqd9+/Zx9pSz0q7O0zNmHHJw8ZFHp2YDwvWVlpbGOWe/Ie32LwldfuNb38lOR60vCYUmgdGpf3kwfvTfP8jWJ544KHtfku3MCePjpn/8+3jwvnuyfyYB0/oenTo1/nDXH9PuyEgCqp//4s1N3qdTx42NP/7ht3Hb/9y6z7mPPeXk+MiHPxj33f2HuP3H//NaeDS5hv/vi5/Pft6U/R2v/r369je+Fm+65OLo27fPPvfqkYceiG9+/Sv7THJOpvp+/z9/kH2OLTHr+eezYdfEhW+8IP507x+zAeezJk/KHr93r15xwXnnZp/jN7/21QbPKjn2nX+8O372f7+IhQsXZdeSzz/9qU/G/ffcGe+67h2v3bvkz6S/+87fxsc/dsM+weEk3P2Tn/7fQUPeSag52e+3v/99ulJnylmT44F7747f/PL/sscaPnzYa/dx73O7567fN3kf57/8cvz3/9zW4tA0AAAAAAAAAAAAAAAAh0fYF4BW069vvxg1suG03UQyPXfBwoVpt387d+6Mx598Ku1ykmDkhW88P/Ly8tKVOskk4cbBxVdeWZYNFx9MEih+YfaLaVcnmcq6vwms9T39zIy46+670y4nOdd/+MSN8e//+i/RpUuXdLVpSTA0mVr79a9+eZ8Q6c9/+avYsPHQwtHNlQQ6f/yTn74WUK3vmrdfHbf/+EcxbOiQdKVpybOYNPHM+MNvf50NjybXcNEb35h+2tD+jtece5Xs+5bLL4vbfvhf0a1r13Q1JwnIfvf7P2jx/Up++4N/+77sVOE+vXunqw0l13vpmy6Ov/voDelKThJM/+Wv78jWye/c+Hcfy/5WYWFhdq2xZP2jH/lwvP3qq9OVOs+/MDsWL16cdk1Lgsm3/+z/su9Ifclz+8H3vxsDBvRLV5p2oPt4zz33xaJFBz4+AAAAAAAAAAAAAAAAR4awLwCtJgmtTpwwPu3qJNNzH3v8ibTbv5cXLIyX5sxJu5z+/frHmNGj066hwYNPjNGjGoaLk2M9OvXxg04pffXVFbH0lWVpV2fimePjhBMOHD5NQsk//NGP95nEeuVb3xofeP97s6HKQ3XxhW+Md1x7TdrlJMHYadOmp13rSgKjf3rgwbSrk0yG/aebPtUgeHwwyb5JePSSiy7c7zUnAdIkSNpYS+5VMqH2C5//bBQVFaUrOclk2gcefCjtmicJ3v7jP3xivwHdvZLA72VvuiT6968L1Cbv2o4dO7L1hPHj47p3XNNkKL2+5Djvefd1+4Rtk/D5i3Pmpt2+qqurs0HfdevWpys5yfTj5j635D7e+PGPNbj3ydTle+67P+0AAAAAAAAAAAAAAAA4moR9AWhVTU3bTSRTdJNA44E88eRTsX17Ljy51/gzTo+ePXukXUPt27ePs6eclXZ1np4xIxtePJDnZ8/e53ySEOk5Z78h7fbv2edmZbf6knP82/e/96Ch0caScOg1V1+1T/jz3vv+FBUVFWnXepKg79q169Iup2PHDvGxG66PsrKO6Urr+c1vf7fPs+jbp0985PoPNvteJS44/7zsO9bY3ffcH+Xl29Pu0CTB3Y999PpDPo8+fXrHyWPGpF1Db7vqiujQoUPaHdjAgQOygdvGGgfd61uyZGk8/PCjaZeTBHxvuP5DLXpuF114QQwZ0nCC8yOPPhabN29JuwPLLyhoVlAbAAAAAAAAAAAAAACA/ZPSAKBVDRjQPwafOCjt6ixesiSzLU27fSVBzSefajjNNgnfXvqmiw84LbWpcPErryyLefPmp92+du/eHY8//mTa1UlCqCOGD0+7piUTg5PJwclU1/ouvvDCGDa0YXjyUDUV/ly6bFmUb29eePVgknDz40/se93nn3tunHbquLRrPUlw9OlnZqZdnSSwO3DAgLRrniTgeuVb37JP0DQJyr740ktpd2jy8/KjIL8g7Q6uoKAgRo08Ke3q9OjRPUaPHpV2B9euXbs46aQRaVdn1arVsWvXrrRr6JmZM/cJTZ85YUKccfrpadc83bt1i8kTz0y7nHXr18WatWvT7sCS75d1LEs7AAAAAAAAAAAAAAAADoewLwCtKgneNjV5NZnY++yzz6XdvhYtXhwLFy1Mu5wTTxwUo0aNTLumDR58YoxutE8SxE0CuUkwtynr1q+P+S8vSLs6B5oivFd5efk+odIkeHrW5IkHDCUfSFPhz02bNsfaNYcWvDxUr766Ipa+sizt6px7zhuyQdbWtmTp0lj+6qtpl5MEuJPjtfReJZLn1L9f/7TLSZ7508/MSLsjJwkbN1ZaUhqdyvadZn0gZR33ncZbXV3d5DubrD8z49m0qzNxwvgmz+dQNQ6YJ+Hs1WvWpF3z9endOzttGwAAAAAAAAAAAAAAgOYR9gWg1U08c0I21NnYzGefi4qKirRr6Iknn8oGguubOGFCdOvaNe2aloQLz55yVtrVSSbYrlu3Pu0amj37pewU0/qSwO6UsyYfNIS6ctXqfQKsXTPnOGjQwLRrmcbhz2QK79r1TZ9/SyXh2+R362vuVNrmSELRjSfVJhNhkxD34ejSpXMMGXxi2tV5+eUF2anNR9LAgYf3nFti85YtMf/ll9MuJ/n7dbjPrUMTgeMli5ek1YG1a1ccJ5zQJe0AAAAAAAAAAAAAAAA4HMK+ALS6USNHxpDBg9OuTjJNN5mq21h5+fZ48qnpaZfTnAmwySThzp07p13OipUrYs7cuWlXJ5mc+tS0aVFdXZOu5PTs0TPGjm046bQp6zPn3zgwu379hrj8rVfHSWPGtXj7xrf/I/21I2dRE0HOrid0zW5HQlPHSyYnd+7UvCm4jTU1CTmxavWa2LmzYbj49SB5v7Zu3Zp2Ockk47/90EeafJcOdfvo330i/bXmKywsjNLS0rTLGTZ0SFoBAAAAAAAAAAAAAADQHMK+ALS6ZPLqhPFnpF2d1WvWxPPPv5B2dRYtXhwLFy1Mu5xk+uuoUSPT7sAGDz4xRjfaNwnz/vkvj2TDvfVt2bI1XpozL+3qjBs3Nvr26ZN2+1exe/c+QeHjxdq1DacZJ5LprMmU1taWTNjdsH5D2tXp2LFjk1Ofm6vxJOTEjp07YveeIzvZty1UVVVFdVV12h0bkqBvEtyur7CoMK0AAAAAAAAAAAAAAABoDmFfAFpdMo13ylmToqBg3/+Ymf70jH0CuE88+VRs374j7XImTpgQ3bt1S7sDa9++fVx04QVpV2fms8/FunUNJwnPmz8/lixdmnZ1kunABQUFabd/y5ctT6sjq0/v3jFo4IC0O3xJ+HbLli1pVyc5TnL/Wlt1dXXsqqhIuzo9e/TYZyJsSwwcNDCt6mzbVh4bN2xMu9eP9Rs2xLby8rQ7cjp06BCjR49KuwNL/o4nE5brGzCg9d5XAAAAAAAAAAAAAACAvybCvgAcEWNGj47+/fqnXZ3ZL70UGzdtSrskoLktHn/iybTLSSa/nnfu2dlA4aE6c/z46Na1a9rlrFi5IubMnZt2OU8/MyP27NmTdjk9enSPCeNPT7vmmzTxzHjumafi5TkvtNr26F8eiGFDh6ZHOHz7C98erwoL/7qnyA4cMCCeePQvTb47Ld2Sd/isyZPSIxzciQPrAtdJgLtzp05pBwAAAAAAAAAAAAAAQHPkF7crDZvNZrMdv9uxqnv3bjH2lJPTrs4rryyLBQsWpl3EwkWLY8HCRWmXM2Tw4Dh5zJi0OzTJVNExY0anXU51dU38+S+PvDZJeOfOnfH8C7OzdX2jRo6Mfn37pd2BNTVRdteuXVFVVZV2x6YkOH0ok4s59vTo3j06lZWlXU5lZWVU7G7b8PaHPvi3rwWFn585Pcaf0fLAPAAAAAAAAAAAAAAAwF8zk30BOCKSYOm557wh7eokIcVkuu5ejz3+RDYsW9/EM8fHCSd0SbtDU1LSLjsNuLGZzz4X69atz9ZLl74Sc+fNz9b1TZwwPvv9Q9HURNnNm7fE7t0NpwUfa5LJqz179Ei7OqvXrMmGoFtb8vxLS0rSrs669ev3ed4tsWTxkrSq06lTWXTr3i3tXj/ykwnXjaZc78g8s21bt6UdAAAAAAAAAAAAAAAAxzNhXwCOmFNPHRd9evdOuzpPPzMzysu3x7Zt22La9KfT1ZyioqI4/7xz0655zhw/Prp17Zp2OStWrog5c+dm6xfnzM0es75OnTrF5EkT0+7gevXokf1OfVu2bIk1a9em3bGrrKxjWtU5UkHldu3aRZcu+wa2k7B3TU1N2rVc+fbtaVUnCWI3FcY+3vXs2TO6dO6cdjnJe7xy9eq0AwAAAAAAAAAAAAAA4Hgm7AvAEZNMkh150oi0q7N4yZJYvnx5LFy0OBYsXJSu5gwZPDhGjRyZds0zYMCAGDNmdNrlVFfXxJ//8khUVVXtEyxODB0yJAYOHJh2B5dMjk0myNa3rbw8XnnllbQ7dg0dOjSt6mzavCm7HQkjR+777F99dUXmeJvTrmWqq6vjlWXL067O4EGDoqzjvoHm41379qXRu3evtKszZ04uxA4AAAAAAAAAAAAAAMDxTdgXgCMmme56XhNTepOppEuWLo0ZM5+NXbt2pas5E88cHyecsO9E2ENRUpI53rlnp12dmc8+Fy8vWBjzX345XamTHK+pibf7c0KXLjG8idDsXx6Zmg2hHsuGDxsapaWlaZezfv2GmDt3Xtq1rhHDh2cnNde3YePGbOD3cGzYsDHmzZufdnVOOmlE9p17venQoUOTofkkvN54UjUAAAAAAAAAAAAAAADHH2FfAI6oM047Nbp17Zp2dZ6Z8Ww8//wLaZeTBEPPbyIc3Bxnjh+/z/HWrV8fM2bOjE2bGk6UTYKv55z9hrQ7NEmY9Oyzp6RdnRkzZsaSJUvT7tiUTE0eOGBA2tV58M9/yU4+bm0jRgyPE08clHY5lZWV8fAjU6O2tjZdab45c+fGipUNA8PJuzPxzAlp9/qTvKeNg9Nz582PF2a/mHYAAAAAAAAAAAAAAAAcr4R9ATii+vXrG8OHD0u7Osm03RdfmpN2OUkYddTIkWnXMgMGDIgxY0anXU4yPfi++x/YZwpqEnxNjtlcTQWKN27aFHf8/g+HFWI90pKJyckk48aemjY9nn9hdtq1nuQeTZywbwD34UcejeWvvpp2zVNRsTt++/s7o7q6Jl3JaY1351g2atTIJoPTv/z1Hdl7AgAAAAAAAAAAAAAAwPFL2BeAI6p9+/Zx9pSz0q7OkqVLY8PGjWmXc/5552QDqYejpKRdnHfu2WlXp6kJqEnwtSXHGzJkcFxwwXlpV+fXv7kjOyW3pZLpups3b9knyNqarnzrW6Jz585pl7N9+474wa0/jPLy7enKoUvOdceOHWnXUF5eXlx95VujU6dO6UrOqtWr47Yf396iacJJUPixx59IuzrvuPZth/3uHMu6d+sWV77lzWlX59GpU+P/fvHLFofMk+eXvHPNfRZJwPi2/709zjr7/Bg99rS47m/eFwsXLU4/BQAAAAAAAAAAAAAAoDmEfQE44s444/To2LFD2jWttLQ0zjn7DWl3eJqavNtYUVFRi49XUFAQ73vP30TPnj3SlZwkAPkv/+/fY9bzz6crhyYJak5/+pl4y5Vvj0lvODf+9ctfierq6vTT1jVy5ElxyUVvTLs6Tz41Lb72zW81a0rsypWr4rq/eW9MmPyG+NGPf9Jk4HT06FFx1ZVvTbs6v/397+PHP/lps4LNs198Kf7ty1/NTrStb+RJmWu6+KK0e/266qorstdaX3L/vv+fP4j7//RgswO/ixYviXe9533Zd+4jH7sxdu7cmX5yYMm7+dVvfDO+/s1vZydaJ+fw3Kzn431/+6HsMwIAAAAAAAAAAAAAAKB5hH0BOOKGDhmc2YakXdNGDB8Ww4cNTbvDM2DAgBgzZnTaNa1vnz6ZYw5Pu+ZLzvUD739fFBQ0/I/SJPz4wes/lg2/Hiw4m4QzX16wID70kY/FBz78key048Qf7rwr/vzwI9m6tSVB5Ruu/3CceOKgdKXOHb/9fXzsxr+P1WvWpCtNS67rF7/8dbzlqrdnJyYnYc//+u8fxrPPzUr3qJNM933/e/4mhg1t+PyT7/zH974f//zFm2PLli3patOSfe++977Mff1o9v7Wl0xy/vsbP5adfPt6lwTYk2tNrrm+5Hnc9E+fi3//yteyU5oPZsWKlfH5L9wcb808v+dfmJ1dmzZ9evziV785pMBwEui9+557065O8mx++rOfZ8PAAAAAAAAAAAAAAAAAHDphXwCOuE6dOsXkSRPTrmnJ58l+rSEJQ5537tlp17TxZ5y+z2Te5nrPu6+Lt199ddrV2bFjR3zjW9+Js897Y3zp//1bPPb4E7Fm7dpYv35Ddntmxsz45re/G2+85LJ461XXxBNPPpUNtO6VhDf/ePe9hzxptbn69esb//gPn9gnNJpIJvy+8eLL4oMfviF7DqtWrW5w3l/+2jey1/Uv//bl7HXulYRMk+my9a9jr759+8RX/v1f95m2nOz7h7v+GOe+8eL4x0//U/zpgQf3OV5yn86/6JK46TOfi23btqXfzEmC1jf+3cfi/PPOTVde/5JrTa65ccg8Cdj+7Oe/jCnnnt/kvUwCuv/9P7fFm6+4Oi6+7M3xuz/c2SCUmzyL+/70QHbfg3l5wcL9hoqT8PemTZvTDgAAAAAAAAAAAAAAgEOR96kvzzn4CDcAjllfuanl02mPpqemTY/rP/rxqKysTFfqlJaWxm0//K844/TT0pXDt3jJknjfBz7cZHgxCUp+46tficsve1O60nJJMPerX/9G/Oa3v2sy6NoSl77p4vjXL90cZWUd05V9/ei2/41vfPs/0i5n0sQz479u+W60b98+Xdm/ZIJrEs793Be+eNAJxAeT3M9r3/62+OxnPt1kgHivWc+/EJ/45Kdi3br16UrLJcf86Eeuz2wfjsLCwnR1/x5+dGp89O8+kXY5AwcMiF/87CfRo0f3dOXg9vc7P//p/zYrPH44zy95z/739p/Gt//jew0Cu4dj3NhT4nv/8a3o3atXurJ/v/rNb+Pmf/nXtGuoJfcUAAAAAAAAAAAAAADgr1lxcXGeyb4AHBWjRo6MIYMHp11DI4YPi+HDhqZd6+jfr1+cPHp02jXUs0fPGDv25LQ7PEm49Yv//Pn43D99Jjp06JCutkzXrifEt77x1fjW1792wKBva8jLy4vLLr0k/vsHtxzWhOPkmpNrT+7BgYK+idNOHRe/+r+fxoTxZ6QrLZPcp//8/nfj4x+74ZCCvq83SdD5g3/7vsw9+I/svTgcyfP79Kc+GT/939sOKeibOGnE8OjYsel3feiQwdGpU1naAQAAAAAAAAAAAAAAcCiEfQE4Krp06bzfkOfkSROjU6dOadc62rVrF+edd27aNTRu3Njo26dP2h2+JHz5nndfF/f+8ffx9rddddDQa2O9evXMBi4fuv/eePNll2Z/72hJpsnef/dd8aEPvL9ZYeXkGt993TvjgXv/mL32Qz3nfv36xu0//lH8x7e+sd/w9/50KiuLD3/wA9n7dP6552QDy3+tkmtP7kFyL5J7ktyb5kj2/8D735t9fsmzb847e8rJY+LySy9NuzrdunaNj330I9m/ewAAAAAAAAAAAAAAABw6YV8AjooknDjlrElRWFiQruQkE0LPO/ectGtdE8afHj16dE+7OpMmToyCgobn0Rr69O4d//7/vhTTHn80/us/vxdXX3lFDBo0sEGQMjluEjSectbk+OxnboqHH7w/pv7lwWzgcn/TUo+05LhJ2PiJR/8c3/32N+JNl1ycDSDXD/B26dIlO335ve95d9z+4/+JZ59+Kv6/L3yuyft7MMnvXvqmi+O+u/+QDZsmxz7t1FOje7du6R45Sfi4/jGnPfFo3PSPf99m9+lYlNyL5J4k9ya5R8m9Su5Z/eB2cr+T55nc47/76Eey9336k4/FP336Uy16fsk05c9/9jNx4999NBsaTn7/1HFj4/vf/XaMPaV1JmYDAAAAAAAAAAAAAAD8Ncn71Jfn1KY1AMehr9w0PK0AAAAAAAAAAAAAAAAAOJ4UFxfnmewLAAAAAAAAAAAAAAAAAABtRNgXAAAAAAAAAAAAAAAAAADaiLAvAAAAAAAAAAAAAAAAAAC0EWFfAAAAAAAAAAAAAAAAAABoI8K+AAAAAAAAAAAAAAAAAADQRoR9AQAAAAAAAAAAAAAAAACgjQj7AgAAAAAAAAAAAAAAAABAGxH2BQAAAAAAAAAAAAAAAACANiLsCwAAAAAAAAAAAAAAAAAAbUTYFwAAAAAAAAAAAAAAAAAA2oiwLwAAAAAAAAAAAAAAAAAAtBFhXwAAAAAAAAAAAAAAAAAAaCPCvgAAAAAAAAAAAAAAAAAA0EaEfQEAAAAAAAAAAAAAAAAAoI0I+wIAAAAAAAAAAAAAAAAAQBsR9gUAAAAAAAAAAAAAAAAAgDYi7AsAAAAAAAAAAAAAAAAAAG1E2BcAAAAAAAAAAAAAAAAAANqIsC8AAAAAAAAAAAAAAAAAALQRYV8AAAAAAAAAAAAAAAAAAGgjwr4AAAAAAAAAAAAAAAAAANBGhH0BAAAAAAAAAAAAAAAAAKCNCPsCAAAAAAAAAAAAAAAAAEAbEfYFAAAAAAAAAAAAAAAAAIA2IuwLAAAAAAAAAAAAAAAAAABtRNgXAAAAAAAAAAAAAAAAAADaiLAvAAAAAAAAAAAAAAAAAAC0EWFfAAAAAAAAAAAAAAAAAABoI8K+AAAAAAAAAAAAAAAAAADQRoR9AQAAAAAAAAAAAAAAAACgjQj7AgAAAAAAAAAAAAAAAABAGxH2BQAAAAAAAAAAAAAAAACANiLsCwAAAAAAAAAAAAAAAAAAbUTYFwAAAAAAAAAAAAAAAAAA2oiwLwAAAAAAAAAAAAAAAAAAtBFhXwAAAAAAAAAAAAAAAAAAaCPCvgAAAAAAAAAAAAAAAAAA0EaEfQEAAAAAAAAAAAAAAAAAoI0I+wIAAAAAAAAAAAAAAAAAQBvJ+9SX59Sm9SG59vrRcWa3tGlC1Z7q2LZuRzz3wob40+yKdBWAI+UrNw1PKwAAAAAAAAAAAAAAAACOJ8XFxXmHNdm3ak9t3VaTWyssLoiu/TvFhZcPjpvf3i265pYBAAAAAAAAAAAAAAAAAIBGWj7Zt2JH3P2dZTE1t5wqimGTesZVkztHr5Kkr42VzyyK7/ylMvspAK3PZF8AAAAAAAAAAAAAAACA49NhT/bdV2Usmr4yvnHPttiU7fOi3yCzfQEAAAAAAAAAAAAAAAAAoCmtHPZNLSyPtTvSumO7OC0tAQAAAAAAAAAAAAAAAACAOnmf+vKc2rQ+JNdePzrO7JYpKnbE3d9ZFlNzy410jg9+ol+M6pApN2+NL9+6Mp30m3H50PjG2HaRt9/vd4sbPtkrhpVE7Fq2Nr74i42ZtS6Z3+v72u/dmvm9Rdl993Xhe0bFm/rnRWzdFrf9YEXMS9fjhM7xlou6x+n92kVZ5rezqqpj7bIt8eeH1saszenaXpnz/GbmPPceb9f4fvGuN3SKXqWZ306s3RQ3/XhNro6iOO2cXnHh6WV1n9fUxq7NO+KZJ1bH3XMrc2sAR8BXbhqeVgAAAAAAAAAAAAAAAAAcT4qLi/OOzGTfsZ2jfxLMzdi0ektd0LfFtsTUZWlg9oQOce7YXLmPE3rHKX1zYdtNKzfXBX2H945Pvr9fnDu0LuhbVZP5R2FB9BraLd79/iFx1f6ycqWFMeryoXHjRZ1zQd6q3PKuir0B3qI4952D491T6gWBk9/Oz4vSbh3j3CuGxI3nl+bWgWNeXuav8cVn92jRlnwXAAAAAAAAAAAAAAAAAJqjdcO+J3SIMy8aFJ+/pGOUZdqq9VviD3ftyH12mBY9Vh4rkxBtFMaJJyejhffV9awO0S+5opqKmPfY3uN2ixsu7xr9SjLnU74jnrx3Sdz0lbnx2a/NjS//Ym28uLk2oqQkppzfN4al32ggvyTOHN0uKtduid/8ZG7c9I3M9pPl8YtHkonDGYN7xpTBhdly18qN8fNbM59nfvumW5fF3S9VRPmuPfHK87uynwPHvtrMvyU8N2drnDa6c1z8hh6HtCX7Jt9JvgsAAAAAAAAAAAAAAAAAzdHysG9Jh7j0U6Piq3u3fxod37xhUFw7vkN0raqMRc+vie//aFXddN3DtXlNvLgql6Qr7dMpLsxW9WXOZ0C7bFW1alv8YXO2jGFXdI1hyWDdPbvi0Z8viz/Mrsh9kLFp2ca4/dcbY9meTNOtLC48M7feQHFBlO7YFr/48ap4ZnW6tnp7zNtbjy6Jrsmfmd9/8qdrY1Z63Ni8I6bevST+5T+Wxt1714DjwoZNe+K2O5bH+syfB5Psk+ybfAcAAAAAAAAAAAAAAAAAmuuwJvsWFufVbfV/qaQohp10QrzpjZ1zQdhW8ueXd0Z2Rm5xaZxyUVF27TUnd4thJyRFVSx8YUN2KQkAT+mX26/81c3xp6ZCt5vXxcL1SYi4IHoN7Jxba6A2lr2wYv+h5ey04Yziwug1PK2B496hBH4FfQEAAAAAAAAAAAAAAAA4XC0P+1bsiLu/MjduarAtidse2hAvrq+OKG0Xo87sGze+rVv6hVbwzNZ4ZUeu7De4R4Mg8ZmjS6IsKbbujKmzs0sZHaNrdjGibFCfuinEjbbz+uRl9yksLsz+2dCeWPtkWjZl+vZYWZUURXHKlSPik2/rGWcOahREBo5LBwr8CvoCAAAAAAAAAAAAAAAA0BoOa7Lvvipi3sx1cfuPVsYzG5NpuXlRNqJrvHtw7tPDtyWmLqvMld06xKWv/W73mDggF9TdtHJzLMpWiYK6icOF9aYQN9727lOTnHMzbV4btz++PTYlgd/Cwug3ontc+67h8c1/GBo3XNo1+uX2Ao5TTQV+BX0BAAAAAAAAAAAAAAAAaC2tHPbda3v8ZvbO2JWti6LvyGzRKhY9Vh4ra5KqKIZN6JJdiyll0bc482dNRcx7LB3928ja2Y2nEO+7ffFXm9K9m2fT9OXx5W8sid9M2xbLtlZHVXJ+pe1i2Km945OfGBTnnpDbDzg+1Q/8CvoCAAAAAAAAAAAAAAAA0JqOUNg3IxvITbXmUTaviRdX5SbwlvXrHOdGUVx1UmnmnxFVq7bFHzZnP0pVRUWaxysq7pArjpiKeObRFfH9H7wcn/3hsrj7pd25sHOHDnHeRWkoGThu7Q38CvoCAAAAAAAAAAAAAAAA0JqOXNi3JD8bwM2qH/zdq6QweqVlc/35hR1RnhQl7WPsOd3ixB5JUxULX9iQFPVsjrXZHSO69uoSw3Llkbd5R0y9e3E8uTINJXdpn/0TOL4lIV9BXwAAAAAAAAAAAAAAAABa0xEK+xbFW4aVRGG2roxV87NFTnlNVGWL4ug1JVs00HV0SXQtTpv9mb01VuxIirzoeWqn6JdcxdadMXV2slZfZfx5aUWuPKFjXDjptfhxIyUxanhJWh8BVdVpAQAAAAAAAAAAAAAAAAAAdVo97Nt1ULd494eGxLm98rL9rqWb4udLs2XOYztjXTbtmxeDJgyOt4zeG8AtiSmXDokb39I5uh70rLbG1GWV2aq0Qy5SvGnl5liUrRra9NCmmJcNBhfEsLMHxw0XdYl+2U8SJXHmef3j058cEh98+6C44cx0uRm6vnFIfPVzo+Lm9/SNcwfVXcuZFw2OKf1y92Dlq5uyfwIAAAAAAAAAAAAAAAAAQH15n/rynNq0PiTXXj86zuyWq6v2NPxqYXEu3LrXrtWb4hc/WRPz0n6vUZcPjfeNbZdO/s2oyvxOYe67VZu3xYsVZXFan7zYtWxtfPEXG7Pr+zihd3zy+q65qb41FfHkD5fEHzbnPtrH8F5x46XdYlCHtE8kgePXTiDTlm+P+3++PKbu/Y3MOX4zc44Ru+OZryyO3+RW97HPtdRkriW/7j5Urd8St/9o1T73AKC1fOWm4WkFAAAAAAAAAAAAAAAAwPGkuLg477Am+ybh3vpbVlVt7Nq4I555ZFl8p4mgb2Levcvj189sj7W70rBwYV5UVVTFypfWxPdvXRFzy6tz6weyeU28sj5XVq3aFnfuL+ibWLg2vv+zZXH3SxVRXrH3mJmtJnOu5RXx4rRV8f1b6gV9m2HevYvj63dtjHkbq6OqJrOQBn2rdlXGsuR6BH0BAAAAAAAAAAAAAAAAANiPZk/2PWYM7hufvrZL9Mqvinn3LojbZqfrAH9lTPYFAAAAAAAAAAAAAAAAOD4d9mTftnTmhI7RKzn7HRXxnKAvAAAAAAAAAAAAAAAAAADHoeM07Ns9Jg4ozFablm2MWdkKAAAAAAAAAAAAAAAAAACOL8dl2LfrRZ1iUHGmqKmIeY/tyC0CAAAAAAAAAAAAAAAAAMBx5jgM+3aMtwwvyVa7lm2NP2zOlgAAAAAAAAAAAAAAAAAAcNzJ+9SX59SmNQDHoa/cNDytAAAAAAAAAAAAAAAAADieFBcX5x2Hk30BAAAAAAAAAAAAAAAAAOD1QdgXAAAAAAAAAAAAAAAAAADaiLAvAAAAAAAAAAAAAAAAAAC0EWFfAAAAAAAAAAAAAAAAAABoI8K+AAAAAAAAAAAAAAAAAADQRoR9AQAAAAAAAAAAAAAAAACgjQj7AgAAAAAAAAAAAAAAAABAGxH2BQAAAAAAAAAAAAAAAACANiLsCwAAAAAAAAAAAAAAAAAAbUTYFwAAAAAAAAAAAAAAAAAA2oiwLwAAAAAAAAAAAAAAAAAAtBFhXwAAAAAAAAAAAAAAAAAAaCPCvgAAAAAAAAAAAAAAAAAA0EaEfQEAAAAAAAAAAAAAAAAAoI0I+wIAAAAAAAAAAAAAAAAAQBsR9gUAAAAAAAAAAAAAAAAAgDYi7AsAAAAAAAAAAAAAAAAAAG1E2BcAAAAAAAAAAAAAAAAAANqIsC8AAAAAAAAAAAAAAAAAALQRYV8AAAAAAAAAAAAAAAAAAGgjwr4AAAAAAAAAAAAAAAAAwP/P3v8HeVXfeaL/q+kfdNO09A+ggTa2aKNpNrrqdYgTkpBEnI3XobLMZNiU3IzWmEpRd8eptZQ7o7emZnOtUr+je70Vp6ao3Lg7ZEcrxUyGzWVdnYibYIbEsI5m/QEqrdjGRhvobpqm/TT0p+H7+XzOaWh+SkPjAX08qg6f13mdcz7nfc6n9b9nvYCMCPsCAAAAAAAAAAAAAAAAAEBGhH0BAAAAAAAAAAAAAAAAACAjwr4AAAAAAAAAAAAAAAAAAJARYV8AAAAAAAAAAAAAAAAAAMiIsC8AAAAAAAAAAAAAAAAAAGRE2BcAAAAAAAAAAAAAAAAAADIi7AsAAAAAAAAAAAAAAAAAABkR9gUAAAAAAAAAAAAAAAAAgIwI+wIAAAAAAAAAAAAAAAAAQEaEfQEAAAAAAAAAAAAAAAAAICPCvgAAAAAAAAAAAAAAAAAAkBFhXwAAAAAAAAAAAAAAAAAAyIiwLwAAAAAAAAAAAAAAAAAAZETYFwAAAAAAAAAAAAAAAAAAMiLsCwAAAAAAAAAAAAAAAAAAGRH2BQAAAAAAAAAAAAAAAACAjAj7AgAAAAAAAAAAAAAAAABARoR9AQAAAAAAAAAAAAAAAAAgI8K+AAAAAAAAAAAAAAAAAACQEWFfAAAAAAAAAAAAAAAAAADIiLAvAAAAAAAAAAAAAAAAAABkRNgXAAAAAAAAAAAAAAAAAAAyIuwLAAAAAAAAAAAAAAAAAAAZEfYFAAAAAAAAAAAAAAAAAICMTEDYtzKW/tH8eOjuZFt5U2XaZ/xqY9HSubHym3Pi6rQDAAAAAAAAAAAAAAAAAMDH15mHfefOjPbmtC5o/tTMaEtrxmtaLPh0TTRPr4wL0g4AAAAAAAAAAAAAAAAAAB9fZxz2bbtySjSmdUlDbSy6Mq0Zn89UxJS0BAAAAAAAAAAAAAAAAADg4+8Mw771sai1Mim7B6Nzf7GoiHn/cnqpxTg1lkdNWgIAAAAAAAAAAAAAAAAA8PF3ZmHfhQ0xrzYpuzo7Y8uOg6W6YmZdLC5VjEfjtIqoSGsAAAAAAAAAAAAAAAAAAD7+yu6879UkoXsavvqH7bG4pSxify6e+g/bYv2VF8Vf3DQ16grHup7fGg8/PZyceCIN02LJDdPjmpaqqKsufE9RfiQGdu6N9f/YFRvfS1qHVcbV18+Oxe010VRbHhXFqPKBg5Eb3BevPbc9Hnt+KDltjJZr58SSa+ri4ob0/IL8UD6639kdP/vvO+LFvqR32JxYeXd9NMdIdDzzeqzalLbHWHTz5bGktTxiaDDWPdwZG9J+LGiNe6+vjZr0fbwwvzmWfr4+5o3e+0Dh2boLz/bjwrONue/SW9vjs00RFVXpOzhKrrM7/vzxnnSv8A6+2ByLC8/UXJOeX3wHfYOx6Z/ei3WbP+SdAx879981L60AAAAAAAAAAAAAAAAAOJ9UVVWVnf5k34ZZ0T47CZsO/KYv1heLl/rj3cFSK1ounRltSXl882bFHbe2xKJLJx8K+ubzhX8qyqNu9rRY+oeXxYrrKkv9xNRY+keXxPIFU6O5Lg3P5g9GTCqLmrrquPqGS+IvvtEUjcnJBZWx6OuXxe031Edb05jzCyqqK6Llsumx/JtzY8nZyMhVTYqWL8+N25c0RXvx3mk7JqXPdktrLEpbRQP7R0qf+QOlj5L8/oOHtlxhSxSe6RtzY/nCC8YEfQtb8R00TY1FX7skbv9yTdIHTktZ4T+t3/nCjNPaitcCAAAAAAAAAAAAAAAAwHiUf+76f/vv03pc2v7V7PjKzPJClY+3ftkVL3YXu/tiYFZ9XDuj0K8pj8ldvfE/dxf7R2uKFX84Iy4u5lLz+eh44f1Yvfo3sfYXO+Mnbw5HbUN1zKk7EG+9uCte7U2uKIZcF19YvN/BGOjsix//l23xn/5xV/zknwZid01VzJ5ZGfsK93tm6/7S+e03zY2vz68qBW1zhf7afxg9f3fsnFwdc5urYnJ1ZVzcWhO7f9UfXaWriupi4ReqY2rhPr3beuL5wwcOufiK6XF5/aTC2ofjjef6ozPtR0t9fOWSqqgs3LX5wsoo370nnlj7Tvy/T3SX1jnYPDXmNZXHpMqqmNH0Qfz89WQK71sv98T6X+6K4dbG5HuHBuOJ/7sjHi30iv2fb86Vzou5s2P5F6ZE8bXlunpizeNvxw/WF97Zqx/EvuriOxuJLf+4M944dsAxMA79e/Pxv36pOa68/IK49KLaD90umFoZ/+1nO+KDXBLc/6gt/lxTWgEAAAAAAAAAAAAAAABwPrn33nu/c5qTfafFotZ06m7fYGx4KSmLOp4djFLuNyrj4t+qL1VHa/taY7SVBtCORMfPt8Wqp3cfDtu+tzvWPr41/uzBN2PN1rQ3tyUWzi0GfSNynTvikcffj03vlXYLhmLT051x34Nb4sEn9qa96bH405NLQd/8zt2x+gdjzx+OF5/pjEd+PhilCG3t1Fh4w9gJwhOjtM5V78aGziTQW1znxh9tjy39yV5j87QxU4hP0fzq5Jr9udj4g+54sa/UTX6DdW/Fd/6fbbFutAectl29++PRv3sndhY+P0zxnOK5xWsAAAAAAAAAAAAAAAAAYLxOL+x75bS4sDYpu3+zIzqSMtG3MzqStG/UfaohFiflGLWxsCUN1/YPxvrnRsOwJ9Z21ZQ0GDscHb/siXTY74l9sS5aqorFSLz90vYj15fqfW5XdKTB25a5M8YfvD2pkejq2DVmWvCowXh7dzr5s7YyrkiqU3cg/ayqiOZ5aQ2cFacS+BX0BQAAAAAAAAAAAAAAAOBMnVbYd/G/rI26YnFgKDp+cXRYdzjWvp6LfLGsqokrri81x5gajaWLI3K9Hxw3iHu09oY0HJzbHx3bkvJkFs6pKk31jQPD0bWp1DqOMcHbusmxIKnObc/tja7Si62MK/71ZXHH78+MBaMTloEJd7LAr6AvAAAAAAAAAAAAAAAAABNh/GHfhllxxZyyUpnfvifW9pXKI20ciK40/9bSOuuoqbnlUZHedc/Ah87oLakpJXcLPhiOjWl5MqPfH/tHYk9aHs/LA+mo3KpJcUFSndv6umP1z/dGbzHwW1ERLZdNj2U3z4uH/t2lseLGxmhJzgIm0PECv4K+AAAAAAAAAAAAAAAAAEyUcYd9G6+dEi3pVRUXzoyH7p5/nG1mtFYl50RzXdw4N605Y73PvRP3PfhWrPnlnujsH4l8Ma9cMznarpoVd/xJayxqSM4DJs7YwK+gLwAAAAAAAAAAAAAAAAATaZxh39q48dLqtD5VldH2W/VpXZQGVAsuqDty5u+J5IqTbIumVMbCtDyZ0e+PqvKTTuy9oi59/P0HTjoB+NwzFJt+9m488tevx599rzPWvbIvcsV2bW186Yax7xqYKKOBX0FfAAAAAAAAAAAAAAAAACbS+MK+VzZFWzo5duDN7XHX/ZtPsnXGi33JuXUt02JRUhbsjd6BpKppnBJtSXlSW/qGk6KmKtpOYUrwxp3p+ZMqo2VBUh6rNi6uL0/KgX2xKanGKI+6prQ8l/UNxoZ1b8bGroOl3br6KaVPYOIVQ76CvgAAAAAAAAAAAAAAAABMpHGFfRd9pibqStVwdPyP3aXqxAbjV++lodvqKXHloZG8g7GxK+1Pq43F11Um9REqo21ebYzO/e349QfRW6oK/d9uOtQfq7F16qEgcjyzJzpLebzyuPjKOccNFDdeNz3apiV117ad6fcX5WMozfI1TZ8eZUl5WMO0uPCCNCR8LsqPpAUAAAAAAAAAAAAAAAAAAOe6cYR9p8eVs9OQa98H8attSXkyHc8ORNeBYlUWrZfPOhzefbY3OnLFqjzavjA3Vlw/7dCxxtamWP6tS2LF1y+K226amjS37YiNnUmItaZ1Ztx+c3NcPRrsbaiNRUsujTu+cVF86w/mRHupuSvWv7Yv8oWqYkZ93PKHs2LB7NKBgspo++JFcfsXaqOmuDu4NzY+nYaPS3bE2z3JlNyKC5vij8esreXaOXHHN1sO33uCdeVKLyuiujraF1YXi1i4pDWWp9OJG6+/JB64uz3+4ptzYlHraEi6OhbcMDcWtiSx5K7fHI4tAwAAAAAAAAAAAAAAAABwbiu7875Xk2Trh2i84ZK459piADWi6/mt8fARAdkTW/zN9vjqhcUg6nC8+MOt8VgaEm6c3xK33TQtmiuS/aL8gYiK0fhxfjhefubtWP1Cep+GabH8D+bE1U1jZu2W0rxJGXEwel/rjlVrew9NAV709blx47yKw6fkC49aMeb6oaHY+F/firVb0/1R8+bEyn9df3htBw4WblWWrK24rtdGov0z1VExNBjrHu6MDclZEQta497riyHikeh45vVYtSntj7Ho5stjSWt54d5HXVs078K45+sXHDu5uK8/Vq3qisqbLo1brpx8+HkK64pJh58nv3N3rP7+9tiS7gOfDPffNS+tAAAAAAAAAAAAAAAAADifVFVVlZ3iZN/auPHSJOhbDKm+fIpB36L1r38QpSG+URmtV6WTegt6N3fFg3/7frz4Xj5yxdBuQTFMmx/KR/ebvbHmb7ceDvoW9fXHY9/bFmtfGYqBoTSfXEy95kdiYOfe2PjEtrjvUNC3aDg2/P0b8cjTu6OjZ6QUJB4N+hbv0fXGrnjsb44T9C3auj0efaIntoxeN6ksKg4U7vNef6wtrmvb/vSZJtjWd2Ptc4PRO5TuHzgYuZ69seHZHdFR2N3yxJvxlz8+cl1F+dxwdL7yfjwi6AsAAAAAAAAAAAAAAAAAcF455cm+AJybTPYFAAAAAAAAAAAAAAAAOD+NY7IvAAAAAAAAAAAAAAAAAAAw0YR9AQAAAAAAAAAAAAAAAAAgI8K+AAAAAAAAAAAAAAAAAACQEWFfAAAAAAAAAAAAAAAAAADIiLAvAAAAAAAAAAAAAAAAAABkRNgXAAAAAAAAAAAAAAAAAAAyIuwLAAAAAAAAAAAAAAAAAAAZEfYFAAAAAAAAAAAAAAAAAICMCPsCAAAAAAAAAAAAAAAAAEBGhH0BAAAAAAAAAAAAAAAAACAjwr4AAAAAAAAAAAAAAAAAAJARYV8AAAAAAAAAAAAAAAAAAMiIsC8AAAAAAAAAAAAAAAAAAGRE2BcAAAAAAAAAAAAAAAAAADIi7AsAAAAAAAAAAAAAAAAAABkR9gUAAAAAAAAAAAAAAAAAgIwI+wIAAAAAAAAAAAAAAAAAQEaEfQEAAAAAAAAAAAAAAAAAICPCvgAAAAAAAAAAAAAAAAAAkBFhXwAAAAAAAAAAAAAAAAAAyIiwLwAAAAAAAAAAAAAAAAAAZETYFwAAAAAAAAAAAAAAAAAAMiLsCwAAAAAAAAAAAAAAAAAAGRH2BQAAAAAAAAAAAAAAAACAjAj7AgAAAAAAAAAAAAAAAABARoR9AQAAAAAAAAAAAAAAAAAgI8K+AAAAAAAAAAAAAAAAAACQEWFfAAAAAAAAAAAAAAAAAADIiLAvAAAAAAAAAAAAAAAAAABkRNgXAAAAAAAAAAAAAAAAAAAyIuwLAAAAAAAAAAAAAAAAAAAZEfYFAAAAAAAAAAAAAAAAAICMCPsCAAAAAAAAAAAAAAAAAEBGhH0BAAAAAAAAAAAAAAAAACAjwr4AAAAAAAAAAAAAAAAAAJARYV8AAAAAAAAAAAAAAAAAAMiIsC8AAAAAAAAAAAAAAAAAAGRE2BcAAAAAAAAAAAAAAAAAADIi7AsAAAAAAAAAAAAAAAAAABkR9gUAAAAAAAAAAAAAAAAAgIwI+wIAAAAAAAAAAAAAAAAAQEaEfQEAAAAAAAAAAAAAAAAAICPCvgAAAAAAAAAAAAAAAAAAkBFhXwAAAAAAAAAAAAAAAAAAyIiwLwAAAAAAAAAAAAAAAAAAZETYFwAAAAAAAAAAAAAAAAAAMiLsCwAAAAAAAAAAAAAAAAAAGRH2BQAAAAAAAAAAAAAAAACAjAj7AgAAAAAAAAAAAAAAAABARoR9J1xlLPrGZfHQ3fPjoT9pjUUNafsc1H7TpfFAcZ0rL41l89ImAAAAAAAAAAAAAAAAAAAfmbI773v1YFqfhspou25GLP7M1GhpqIiairRdkB/KR0/3YLz86x3x1ObhtPtJMCdW3l0fzele90ub48En0p2P0tymuOXz9XHBrl3xyJP9aXOsxljx72ZFW02yl+vsjj9/vCfZAc4r998lrQ8AAAAAAAAAAAAAAABwPqqqqio77cm+jfObY8X/3hYrvlwfbTMOB33z+eSzoroimlunxeKvzYt7v9USC8/hCbcTa2ds2pa+hMHB2PSLpPzIza+PKy6cHDMbxiSwj9AbG7bui9JK8/vi5f8h6AsAAAAAAAAAAAAAAAAA8FE7rcm+jdddFLd/YWrUFXOkB0ai+zcD8eL/6I31W4eSE4oTf69qiIXXNsQVM8qTVm4w1q3ujA19yS5n19VfvyyWz6swsRc+AUz2BQAAAAAAAAAAAAAAADg/nd5k37lz4rbRoG9+X7y47q148PHtY4K+RcPR8esdsfr7r8ejz+UiV2zV1MaNfzAn2kvHOduap6QhawAAAAAAAAAAAAAAAAAAzlnjDPtWxpIvT4vmYtA3RqLj5+/EY5uHS0dOZMtPt8XjryTnVDTVx+/eVFuqOZsqo2lKWVoDAAAAAAAAAAAAAAAAAHCuKrvzvlcPpvWHm9sS93xjWjQWynzXrvjLH+yI3uTIh6iP2/5kTrQXc76De2PNd9+JTcmBiAWtce/1tVGzPxdP/Ydt8cL85lj2pfpom5ZOpi2cv7Zw/sZkr6A6Fi6ZE4vbJkdddRpozY9Ed2d//GJzLj5IOhH79sWLY6cNN0yLr36lKT570dHX7Y71T3fHi31Ja9Syb8+PBU0RvZs7474fj6T3rC5cmxzP5/bF1v/ZHY/+dG/SGGPRzZfHktbC+ocGY93DnbEh7Y9+58mNRMczr8eqQy+o4JTXPivuuLMhmieVRUUpkH20o777pkvjoSsnF4p9sen+N2NN0h2jMq7+YnN86craaK4tj4o0Gl589rdf74t1T/ZGV9I67Di/59LP18e8hvT6AyMx0L031v+4KzYe9c5H77f4mrporkmf88DByPUNxqZ/ei/WfUiwHCZCWeFP74bPz0j3xufpf9oZB0/9/6gT5v675qUVAAAAAAAAAAAAAAAAAOeTqqqqsnFN9m27akop6FsMjb792qkGfYt2xwvb80lZWxPXLEjKI1RNiubrWuP2JU1J0DefJuaG8mOCvlNj2bfnxtLPFEO3SRg0f6DwT0V5NF/aGEuXtMTy0e3LyUqLWhZeFPd8qyUWX5Zed+DgmOuaYvk3L4pFyanHqKmti1tWjN6z0CheV1BRMznar/tUrLzx1CcVD+8v3PdEW/q9hSeK3q1pWTC+tecjV8zDFs45pHj+ofsciOFD9/kwU2PpH10SyxdeEC11aVA3/QmLz9521ay4fcWFsbAh6R2j8Hu2fHlu6fdsbypcn7ZjUnnUzZ4WS29pPeqdV8aib8wt3e9w0LewTSqLmqapsehrl8TtX65J+nAWFcO6L7zaH1fPnxa/8/kZp7QVzy1ek0XQFwAAAAAAAAAAAAAAAIDzW/nnrv+3/z6tP9Tiz8+KlmK29cD+eHlNX7yRtE/J+xdMjS/MrYrKmBSx/4P4+WvplNaW+vjKJcV+WdTPmhyT9+2N//6jzvjr/9YdP3n1g/jNuwOxqz9JqLZ9rTW+VpyYGyPRuem9+OsfvBvrNu6M53snxUWtU6K+snBofz463x6IVzf3xmulgHFlfOmGWdF+QVnk+wfjl8+8G9/9h/dj/cbdsXPylJjXUhmVVVUxo6mwptcPT479F//LjGiZUri6viaaJxfu98/vx39a/Zv40RH3K4upjZPjwC93x1vpdUUXXzE9Lq8vPGd+ON54rj860/5rv94V6395nG3X5FjQXh3FjGvva9tj1Yv70yvGu/YP4vlfFb/zYFzyW1OjsSIi986O+D+/9056r954cXvyzSWXNcbvNBdjuCPR9U998WrSLaiMRTe3xuKW4rs+GL1v7IjVf/dO/PCZnfGTfxqIwYYpcfHMiphcMznmfWpSvPDiYOSSC8f8nhXRfGFllO/eE0+sfSf+3ycKv2fx2uapMa+pPCZVHvXO586O5V+YEsU4b66rJ9Y8/nb8YH3hfoW/gX3V1TGnbiS2/OPOeGPMsGY4Wz7IjcTr2/bG5ZdMjdqadMr4Cezs3R+PFv772FX4zMriz33oyHAAAAAAAAAAAAAAAAAAzkH33nvvd8Yx2Xda1E1Jy/0jsSctT9nr+UOB0Jqa4ojco5VHTXkufvbYO/FUZxoA7RuMLaN11MbClmKaN2Lgze545Jn+Q5OFezcX9v/73hgo7lSNRPearlj7/GgqdDjWrX0nVq/tjL/8685Y+9Lh/ovPvBsvdCd7jS0N0ZaUR8rvixfXbYtHnt4dXWmrdL8Xcsmg26qqaDvepOJTNjVuuWFaNBZ/ib7+WLt2b9IuOcO1n665M2NhKVQdkdu2I+77UU909JV2C4Zi47o34/FXkt+lonlaLL2yVB4j17kjHln1bmw49BsWrv3R9tjSn+w1Fq49NH95fnVS78/Fxh90x4uj9yv8DWxY91Z85//ZFusOrQHOvmJ4txjiLYZ5T+RcCPoCAAAAAAAAAAAAAAAAcH4bR9i3IipPPuDy5PoOxmjk80R6O3bEUycMdFZHzeSk+mBwd1KM9VI+PigVFdF4bak4rG8wXn5t8FA4+LDh2LAzXdXk8mhJqiP15+KxzcdZ+bP7oqdUlEfdjFJxWhZ8fU5cMa1Q5PfFpme6YkvSPuxM1n6a2q6akoZw98XL/5g85dG2rOuPzlK+sSIu/szxpoqORFfHrkMB6cMG4+3dI0lZWxlXJFVEMrw5oqoimuelNWTsZIFfQV8AAAAAAAAAAAAAAAAAJsI4wr75GE4zmqeloSySubwnMhK97w2m9fEMRW5fUk2prU+Ksa6siGTwcD56ny8Vp6T3wGjK9KPXeF1rLJlXUagORvcr78earUn/VJ2ttV/TlP5Sg8Ox9YTh6x3RXRqlHFFTX3Pmk4Wf2xtdpVHJlXHFv74s7vj9mbGg9eR/MfBROF7gV9AXAAAAAAAAAAAAAAAAgIkyjrBvfwwko3MjqsrjgrQ8ZZdXRE1a5nJDaTUeg7GxM0n71l3aHLdfPy2dPhvROL+w/5WpUVfc6cnFC6XusRpbm2Lp0ta449uXxb13tscDxW1+Oi74o9bQFMuuqy29k3x3bzz65MmCzh/x2kf/Koby8eu0PJ7uvWn6eyImC/d1x+qf743eYuC3oiJaLpsey26eFw/9u0tjxY2NEzq5GMZrbOBX0BcAAAAAAAAAAAAAAACAiTSOsG/ECz3DSTGpMloWJOWpuvrCyWnYdyR6u04ebD2Rjie6Y2N3MWBaHq0LWuKeu+fHA386P+75WlO0llKz+2LTT7dHR+nsMWY3xvJvXR733NwcCz9dGy1NFVFTVRYVxa04WPcjVxmLbpwebcU1Dw3Gk2u7ozc5cKxzbu1nT+9z78R9D74Va365Jzr7RyJfHFxcMznarpoVd/xJayxqSM6DLIwGfgV9AQAAAAAAAAAAAAAAAJhI4wr7dvz6gzSUWh4XXz69VJ2a+rhmTppMHRqKLZuScvz2xmu/GY5cscwfLHUqik+QH4mB9/pj7d++GWu2ltqHNTTFin8zK66eUR5xYCS6O/fExp91xerHt8Zd92+Ou15KpgV/lBqv/1Tc2FpYT4xExy+3x4a+pH+MrNZeDNkWVVfEVWl5PM1Ti89QsG8kupJqAgzFpp+9G4/89evxZ9/rjHWv7Et+79ra+NIN9aUzICvFkK+gLwAAAAAAAAAAAAAAAAATaVxh39i2I17uTkO2FzbFilOc7tu+ZEa01yZ171u7YkNSjt+C1rj52uqoGdgTjz64JQm8FrcHX4/v/E1XbHwvPW+Mxs/VJxN0DwzHi//wejz4+Lux9pf98XJnOqX4ozZ3Ttx2TXUUo8+5zl2x5rkTryOrtW/dnU+K2sqYd8JpujOjuS6pcrtzx05Tngh9g7Fh3ZuxsSv5m6urn1L6BAAAAAAAAAAAAAAAAAD4uBhf2DeGY93P+6O7lAUtj7ZFl8by+ZWlIyfS/uW5cfNn0nP698TaHw8m9WlYcPHkKGZfo7IyWltPft9RV0xLJwrv3x/vHj31NypjYW06nfYjMTWW3TAtmotLGtwb6x7vSSclH19Wa3/xnwfTdU2OK/5VU6k6WvuSadFaVazy8fYrPaXeWZcfSQsAAAAAAAAAAAAAAAAAgI+HcYZ9C7Zuj0d/PhgDBwp1xeS4esklsfLmObHoiPBtZbRdNTNu+dblcdt1NUlANzcYT619N7aUjp+eTV3DUcoZV9fE4pvnxUN3z48H7mw/vN1xWaxc1hxXj5lGu6EvnVJbXR3tC6uTuqBl3vRY/q1LYumlaaD2I9B+U3Nc01RWqIbj5SffiU1J+4SKay/NtB332ocity+pamZOjcWzC8Xsxlh+c0ssStont21HbOxMgrU1c2fGPb/fFG2H3ml1LLjxkkMB7nx3f6x9qVSekcbrL4kH7m6Pv/jm2L+lwr1umBsLW4rvLKLrNyeLRgMAAAAAAAAAAAAAAAAAnH/K7rzv1VKedLwa5zfH8sVN0VqbNlL5fETFURnU3M7+eOpHXbGxL22MtaA17r2+NmpiJDqeeT1WnSwB2zAtli6dFQubyyOKYeMTRZVzg7FudWdsKN6vYWbc/kfT0ym0BWOvyw/Hy7/IRcsXL4jGocI1DxeuSQ8t+/b8WFAcatuzO+763vakeYQ5sfLu+mguVN0vbY4Hn0i6RYtuvjyWtBbWOPY7G2bFHd9ujJbivQ8cLL2n4yqu/a/fiY3F+jTXXtS+dF7c9uljpx/3bu6M+0anK990aTx05eRCsS823f9mrEm6qamx9I9aknc9Kl/4U6lIgrdF+YG98eRj7yTvedQp/J7Hez/thbXcUljLoT+dwjuKSWPutXN3rP7+9jMKi8PH1f13zUsrAAAAAAAAAAAAAAAAAM4nVVVVZeOf7Jvq3dwdj3x3a6z66e7o2JmPXBpeHQ365ofy0f3unlj/xFvx598/QdB3PBqaYsU3i+HTiI5n34q7/n+b4677D28P//37sf7NdPJvTW0suK50VUTfjnjk/+uJjv5kUm0pLJsfid53d8fav90aqzcOxcD+5NBZNW9yNI6+7UllUVF1gm1yYUtPO5O1b1n7XmzoHI5cMSBcVLiu+82eePLZNOj7ofbG2v/4Vjy2cU90DYxEvjTJOQnf5nP7ouPX78cjf3VU0PcMbHnizfjLH/fElp70XmnQN58bjs5XCvcS9AUAAAAAAAAAAAAAAAAAPoZOe7LvR63ta/NixfzKyHftij/7wY60e7TauOV/b40rph07bRfg48pkXwAAAAAAAAAAAAAAAIDz0xlN9v2otdQmS62omBSNpeo4Guqisa5YHIyh3aUOAAAAAAAAAAAAAAAAAACcs86bsO+G94YjXyyaG+L2m2fFgtbKUj9RHe2/3RIrb22MlsIT5Xv6Y/3G9BAAAAAAAAAAAAAAAAAAAJyjyu6879WDaX2Oq4xF35gbS+ZWpPuJfL447TfdKcgP7I0nH3snNvSlDYCPufvvmpdWAAAAAAAAAAAAAAAAAJxPqqqqys6byb4Rw7Hhh2/Ew0/vjo6ekVLIt6gU9D1wMHID+2LL89vjkb8S9AUAAAAAAAAAAAAAAAAA4PxwHk32BeB4TPYFAAAAAAAAAAAAAAAAOD+dZ5N9AQAAAAAAAAAAAAAAAADg40XYFwAAAAAAAAAAAAAAAAAAMiLsCwAAAAAAAAAAAAAAAAAAGRH2BQAAAAAAAAAAAAAAAACAjAj7AgAAAAAAAAAAAAAAAABARoR9AQAAAAAAAAAAAAAAAAAgI8K+AAAAAAAAAAAAAAAAAACQEWFfAAAAAAAAAAAAAAAAAADIiLAvAAAAAAAAAAAAAAAAAABkRNgXAAAAAAAAAAAAAAAAAAAyIuwLAAAAAAAAAAAAAAAAAAAZEfYFAAAAAAAAAAAAAAAAAICMCPsCAAAAAAAAAAAAAAAAAEBGhH0BAAAAAAAAAAAAAAAAACAjwr4AAAAAAAAAAAAAAAAAAJARYV8AAAAAAAAAAAAAAAAAAMiIsC8AAAAAAAAAAAAAAAAAAGRE2BcAAAAAAAAAAAAAAAAAADIi7AsAAAAAAAAAAAAAAAAAABkR9gUAAAAAAAAAAAAAAAAAgIwI+wIAAAAAAAAAAAAAAAAAQEaEfQEAAAAAAAAAAAAAAAAAICPCvgAAAAAAAAAAAAAAAAAAkBFhXwAAAAAAAAAAAAAAAAAAyIiwLwAAAAAAAAAAAAAAAAAAZETYFwAAAAAAAAAAAAAAAAAAMiLsCwAAAAAAAAAAAAAAAAAAGRH2BQAAAAAAAAAAAAAAAACAjAj7AgAAAAAAAAAAAAAAAABARoR9AQAAAAAAAAAAAAAAAAAgI8K+AAAAAAAAAAAAAAAAAACQEWFfAAAAAAAAAAAAAAAAAADIiLAvAAAAAAAAAAAAAAAAAABkRNgXAAAAAAAAAAAAAAAAAAAyIuwLAAAAAAAAAAAAAAAAAAAZEfYFAAAAAAAAAAAAAAAAAICMCPsCAAAAAAAAAAAAAAAAAEBGhH0BAAAAAAAAAAAAAAAAACAjwr4AAAAAAAAAAAAAAAAAAJARYV8AAAAAAAAAAAAAAAAAAMiIsC8AAAAAAAAAAAAAAAAAAGRE2BcAAAAAAAAAAAAAAAAAADIi7AsAAAAAAAAAAAAAAAAAABkR9gUAAAAAAAAAAAAAAAAAgIyMM+w7J1bePT8eKm7fnpP2Tm7Zt9Pz72iNRWkPAAAAAAAAAAAAAAAAAAAw2RcAAAAAAAAAAAAAAAAAADIj7AsAAAAAAAAAAAAAAAAAABkR9gUAAAAAAAAAAAAAAAAAgIwI+wIAAAAAAAAAAAAAAAAAQEbK7rzv1YNpfQrmxMq766O5WPbsjru+t73UPZll354fC5oKxdBgrHu4MzYk7VR1LLxxdiz6dHU0VpclrfxIDOzcG+v/sSs2vpe0jjC7MZYvbopPz6qMmoqklR/KR3fHrlizrje6ktYho/fv3dwZ9/14JBYuaYmvfnryoWu7XtgcD/9jUp/WegAydv9d89IKAAAAAAAAAAAAAAAAgPNJVVVVWYZh36mx7FufigUz0lBt0YHCNjprOD8cL/90a6x+Pt0vaLzuorj9C1OjLg3qxoGDkY+yqEivyQ/sjScfeyc29CX7RaP3z3X2xMtTGg/dL1+4V8Wkkeh45vVYtanYGf96gI+fssL/Am74/Ix0b3ye/qedcXAc/0edKMK+AAAAAAAAAAAAAAAAAOenbMO+C+fGA1+siYo4GL1vdMfqH6VTeWfXx9IvNMU10/fFur9+N0o53KK5hXt/vXDviojczv5Y//SO2NA5XDrUcuWs+L2vNEZrTTHU2x1//nhPqV80ev98biSicLz7192x5sndpXu1zJsasXVvct/xrgf42JreWBW3/cFFMaPweSp29u6PR//undhV+MyCsC8AAAAAAAAAAAAAAADA+akY9h2dW/uRW9RaFaUBvf0DsWY0WFv03u5Yu+bN+POjgrWLPz+tFPSN/j3x+Pe7DgV9i7peej8eeWJP9Bbqmtb6WNaQ9MeqqCmPPa91xcNp0LeoazToWzDe9QAfX8XQbjG8Wwzxfpisg74AAAAAAAAAAAAAAAAAnN8yC/vmD6RFTWW0HSece6SZ0T6zrFR1be2OLaXqKFv7oqu/WEyOlmtKnSPtz8WmtXvTnWONbz3Ax92pBH4FfQEAAAAAAAAAAAAAAAA4U5mFfTduzsVAsaiqicW3zosVN06P9tmlQ8f6THU0ViVly1Vt8cCd7cfZLor2uuSciurk8wgD+2J9Wh7PuNYDfCKcLPAr6AsAAAAAAAAAAAAAAADARMgs7BsvvRNrnh+KXHGibnVltF01M267dX488MeXxC1fnBaNyVmJKWVRkZZRUairTrCNPs3olN7xGM96gE+M4wV+BX0BAAAAAAAAAAAAAAAAmChld9736sG0PgVNseKO5mgrTs7t2R13fW970j6JZd+eHwuaCsXQYKx7uDM2JO3DGmpj0XXTY8Gl1dFcV542I/I7d8fq72+PLcWdBa1x7/W1URMj0fHM67FqU+mUU3Lo/qe43lNaD/CJM72xKm77g4tK9bkW9L3/rnlpBQAAAAAAAAAAAAAAAMD5pKqqqmyck333RO9gWtZWxqK0PLGmaKxNy8HheDktj9A3GBue7IwH/+r1uOtvtsfGznzkC+2KGfXx1Rsqk3N2jkSuVEyKymLQ+Gw6lfUAnzijE35N9AUAAAAAAAAAAAAAAABgIo0z7DscL3QPJ2X1lLhyYVKe0MIL4uI0nNvb3R+9SXli7+2OtY93xZb+ZLdxxgVJsS0XvUPFoixaWqeXWh+JE60H+EQqhnwFfQEAAAAAAAAAAAAAAACYSOMM+0Z0PNsfnaWsW1m0/lZrLGootY/V0BQrfqsmKor1/ly88OzoSOBTl99fnKlb1BMvdCV1xZyGWD6vVB6roTbaW8/e9N3D6wEAAAAAAAAAAAAAAAAAgDM37rBv9O2IxzYORq5Y19TGklsvjVu+VB8tpYNF1dH+2y2x8tbmaKsp7o9Ex8Z346m+0sFDFnz9snjo7stj5e/PjAWz02ZDbSz6/TnRPq24k49330hH6hZsero/SnnfSZVx9e9eGsuvq43G5FBy3Y1z455vtcZtyy6KZXPT/jiMdz0AAAAAAAAAAAAAAAAAAHCmyu6879WDaT0u7V9ujWXX1kZdaXRvqhjGPWI/Hx3Pb49VP92bNkZVxqJvzI0lc8ecnC8so6Is3YkY2NYdj/ywJ3rT/aLGay6MFddfEI1jLyvcs2LMfq67Nx7/j+/HlnR/2bfnx4KmQtGzO+763vakeYzTWw/AueD+u0407hwAAAAAAAAAAAAAAACAc1lVVVXZaYd9S2bXx1c/1xifvWhy1FUfDsbmh/LR/c7u2PiLHbHpvbR5HC3XtsSy66ZGc215VKQzhnMD++LtLbti7TP9xw/WFu659AtNcU3r5KgZzebmD0au/4N4+aVdsf65wSOuO7Wwb+K01gOQMWFfAAAAAAAAAAAAAAAAgPPTmYd9AcicsC8AAAAAAAAAAAAAAADA+akY9k3n1wIAAAAAAAAAAAAAAAAAAB81YV8AAAAAAAAAAAAAAAAAAMiIsC8AAAAAAAAAAAAAAAAAAGRE2BcAAAAAAAAAAAAAAAAAADIi7AsAAAAAAAAAAAAAAAAAABkR9gUAAAAAAAAAAAAAAAAAgIwI+wIAAAAAAAAAAAAAAAAAQEaEfQEAAAAAAAAAAAAAAAAAICPCvgAAAAAAAAAAAAAAAAAAkBFhXwAAAAAAAAAAAAAAAAAAyIiwLwAAAAAAAAAAAAAAAAAAZETYFwAAAAAAAAAAAAAAAAAAMiLsCwAAAAAAAAAAAAAAAAAAGRH2BQAAAAAAAAAAAAAAAACAjAj7AgAAAAAAAAAAAAAAAABARoR9AQAAAAAAAAAAAAAAAAAgI8K+AAAAAAAAAAAAAAAAAACQEWFfAAAAAAAAAAAAAAAAAADIiLAvAAAAAAAAAAAAAAAAAABkRNgXAAAAAAAAAAAAAAAAAAAyIuwLAAAAAAAAAAAAAAAAAAAZEfYFAAAAAAAAAAAAAAAAAICMCPsCAAAAAAAAAAAAAAAAAEBGhH0BAAAAAAAAAAAAAAAAACAjwr4AAAAAAAAAAAAAAAAAAJARYV8AAAAAAAAAAAAAAAAAAMiIsC8AAAAAAAAAAAAAAAAAAGRE2BcAAAAAAAAAAAAAAAAAADIi7AsAAAAAAAAAAAAAAAAAABkR9gUAAAAAAAAAAAAAAAAAgIwI+wIAAAAAAAAAAAAAAAAAQEaEfQEAAAAAAAAAAAAAAAAAICPCvgAAAAAAAAAAAAAAAAAAkBFhXwAAAAAAAAAAAAAAAAAAyIiwLwAAAAAAAAAAAAAAAAAAZETYFwAAAAAAAAAAAAAAAAAAMiLsCwAAAAAAAAAAAAAAAAAAGRH2BQAAAAAAAAAAAAAAAACAjAj7AgAAAAAAAAAAAAAAAABARoR9AQAAAAAAAAAAAAAAAAAgI8K+AAAAAAAAAAAAAAAAAACQEWFfAAAAAAAAAAAAAAAAAADIiLAvAAAAAAAAAAAAAAAAAABkRNgXAAAAAAAAAAAAAAAAAAAyIuwLAAAAAAAAAAAAAAAAAAAZEfYFAAAAAAAAAAAAAAAAAICMCPsCAAAAAAAAAAAAAAAAAEBGhH0BAAAAAAAAAAAAAAAAACAjwr4AAAAAAAAAAAAAAAAAAJCRsjvve/VgWn90GppixTebo602YmBbdzzyw57oTQ+d6xbdfHksaS2PGBqMdQ93xoa0f/48U2Us+sbcWDK3ImKw8Az/ufAMfekh4Lx0/13z0goAAAAAAAAAAAAAAACA80lVVVXZKU72rY3lK+bHQ3cXtpWXxJKGpHsqGq+/JB4oXlfY7vlabdK8rr4Uii2qm1sfi5Py/HauPNOVs2LFrZfGLQvT/WPMiAXFoG9RbW0s+FxSAgAAAAAAAAAAAAAAAADw0TvFsO9gPPnmUFJWVMenP1eZ1B+qNm6cVx2laOmBodjy7GCpG8/tjo60HNi2O9Yn5fntHHmmRZ+ZFm2zJ8fM+rRxjJ2xaVs+KQcHY9MvkhIAAAAAAAAAAAAAAAAAgI/eKYZ9I3qf3hOd+5O6+VMzoy0pT25ufbSmU4Dz2/fE2r6kjr6eWPXdzXHX/ZvjOz/sid60fV47R57pgurytDqR4djwwzdK67zru52xYfQ3AQAAAAAAAAAAAAAAAADgI3fKYd+IXfGr36QTYRtqY9GVSXkyC36rNhpL1Ui8/fquUsXZVHjf1WkJAAAAAAAAAAAAAAAAAMA5bxxh34hNrw3FQKmqiIs/01SqTmx6fPZTFUk5mIsXNiUlZ1N11ExOSwAAAAAAAAAAAAAAAAAAznlld9736sG0PgW1sXxFa1zdUCj35+Kp/7At1icHjrVwbjzwxZooxn17N3fGfT8eTPolTbHijuZoq47IdXbHnz/ek/YTjfNnxpLPNUR7U3lUpHHkfG5fbH15V6x9pj96k1bBnFh5d300x0h0PPN6rDpOoHjRzZfHktbyiKHBWPdwZ2xI+6Narp0TS66pi4sbDt8rNzAUrz23PR57fihpjHHi7zvRMx3un9y+2HT/m7Em3SsqvYcF9dE2oyJq0tz0cd/DtRfFPYtq44KKskPPcKQjv/vD3kk0TIuvfqUpPnvR5KirLkt6Bw5Gru+DePmF7lhznPey7NvzY0HT6G89EguXzInFhYeuS5+7tO7/2R2P/nRv0gAmzP13zUsrAAAAAAAAAAAAAAAAAM4nVVVVZeOa7BsxGE++mQY9q2riihsqk/oYlbH08iToGweGYsuzY4O+J9d4XWvcvmR6XDEjDd8eSPoVNZOjfUFL3PGHzdGatM5Mw7RYeuvlcccN9dE2GirOJ4dq6qrj6hvmxsoba5PGGTkYw/sORn7/8bdDhvLRnZbFCb2Ll82L/+NrhfcwOw365pNzR9/D7cvGTFbuGYnh4md6TkmhHnuf0vFTMW9W3HFrSyy+rBjUTYK++eJvMKksappqY0HhvdyztDEaS0eOVVNbF7esmBtLP5MGfcf+ftd9aoLeKZw9ZYU/+9/5wozT2orXAgAAAAAAAAAAAAAAAMB4lH/u+n/779P6lOTeKo/LP1sb9eURF9RUxFvPD4yZtJuaOzt+77rqqCmU+a7e+KtffZD0D5kS1/721GisKBzvH4yfvpxL+7Xxe787I1qnFMpcLjb8t7fjr/5Ld/zkn3bHW/mKmD29Mgbe2h4/2ZYmSKMuFn6hOqbGwejd1hPPd6XtMS6+YnpcXj+pcKPheOO5/uhM+3FZc/yba6pj8oGR6H51Z/ztP7wTP3xmZ/zkzZGY3VobzTVlMbVxchz4ZeHe6SVFJ/y+Ez5TLl78H7ti/S+P3V44WBvXzq2KysL6O3/VGWs60+dqaIqvfWVq1E8qPFdnX6z7L9viP/3jrvjJq/tj8uzauPiCSTG5sLYZhXf78u7C+bsH4hel76yKf1l6HxHdr2yJ/2v16L364rXSFydO+AyF+674gxlxcemHG46XN7wbj/5we6zbmLyXGS01Mbt2UtRMr41LJvfHc4d+h4h/8b/MiJbC71ZZXxPNk0ei85/fj/+0+jfxo8K1z/dOiosKP2p95fHfKZxr+vfm43/9UnNcefkFcelFtR+6XTC1Mv7bz3bEB7mR9Bs+Wos/Nyb8DwAAAAAAAAAAAAAAAMB549577/1OcZ7tOO2KX/0mHYHbMCU+Ozcpx2q7cko6+XUk3n59V6k6NdNiTkPx82B0vrAt1m0enUc7HB3PdcXDf/V6PPLMKc+oPbmX3onv/31XPPqD1+PBdT3R0Zf23+uN1b8YjIFiXVUd7V8sdSdew8xYvrC2FIjOde6Ix54d81x93bF6zbux+vGOuO/x92PTe6P9/li3rj+6Shnbymi9amKn5LZ9sTHaigsq/G4dG7bG6ucGDwe5C+/lse93xYul91QWLf9idiwoHThKfl+8uG5bPPL07hjNXvdu7o5HXsglg5OrqqLtuBfCuWNX7/549O/eiZ2Fzw9TPKd4bvEaAAAAAAAAAAAAAAAAABiv0wj7Rmx6bSgJw0ZltP1Wfak6rD4WtVYm5WAuXtiUlONTFnVNxfm0Z1fX1v7YMhqkHeulwegeKhZlUV1X6kywyliytClaqwplbjDWP9lzzHTk3s498XLncYLNfT2xoz8pa2qqk2JC1MbClvR36xmINcf93fbGY5vT0G5tTVxzvNBuf65wznHW/ey+6CkV5VE3o1TAOe1UAr+CvgAAAAAAAAAAAAAAAACcqdMK+8ZLhyfh1n2qIRYnZWJhQ8xLB872dvbE+LK+O+O17oOlqvHTn4q/uPXC+OpVtemU4I+P9psuioXNZYVqJDp+0RkbRqcKn5LhGC5N9p1o02LmtKQa6B0z0fdoY0K7jS0TO1kYzjUnC/wK+gIAAAAAAAAAAAAAAAAwEU4v7BuD8eSbpdG3EVXV0b4wKYsWX1IdFcXiwFBseXaw1Dt1w7Fu7Y7Y0l8M/JZF3ewLYvGNrXHPn14eK2+eEwtnJ2dNrOpY8KU5cds3L417/l17PHBncZsZbRM5NHeseXPid+dPLr2jga3dseqkaejKaLtuVtxy8yWx8o8vT9fWHtc0pIfPkg9y6ejg49oXA+lPP7GTheHcdLzAr6AvAAAAAAAAAAAAAAAAABPlNMO+Eb1P74nOUs6tLFovn5VM322YFVfMKU6sjchv3xNrxzWxNtXXE4/+9ZZ4+Ild8fK7w5HLF3qTyqO5tT6W/uFlseK6yuS8M1YZV1/fGvesvCSW/XZ9tF84ORpryqKiKtnOjqmx/Pr6aC4mffv6Y83f707ax9FybUusvGNerPhyY1zRWh3NdeWH1lZx2r8acDrGBn4FfQEAAAAAAAAAAAAAAACYSGcQG90Vv/pNMYlb0FwXN86NaPtiXbSUvnEk3n59V+nQ6ep6aUes/s9b488f3Bqrftof3cVpspMqom3B7FiQnHJG2m+6KP7NgtporIjIDw7Fll/virXr3omH798cd93fHR3p9NqJtODrc+Lq4lTe/L7Y9ExXbEnax2i8rjVW3DAtmouDc4f2RcdrvfHUundj1ari2jbHpp7kvLNlSs20tDqeyVGXDvTN5c7CS4Jz1GjgV9AXAAAAAAAAAAAAAAAAgIl0RjNiN702FAOlqjJar6qPhS3p1N3BXLywKSnP3HB0PNcVD/5zLkrR4trKuLjUH6s86prS8pQ0xaLLJkdxwG6uszv+8rtvxaNP7oiNr+yNruSEibegNZbMK97xYHRv7o41W5P2sSpj8ZW1UVMs+/rj0YffjFVr34/1r+yJjtOZlHzKBqN3MKnqGmuTSc3H88XJhbdXNBK9XekF8AlRDPkK+gIAAAAAAAAAAAAAAAAwkc4o7Bsv9RwKoDa2zIiWdCBsb2dPTFjW92gHDkYuLSPyMZTm7pqmT0+KsRqmxYUXlKc7Yx2eTrunvyd6k/KweZVRd2Zv5kgNTbHic0mAN9/dG48+sTfpH9cF0VibVLk9Q/FaUh7W0Hho7ROrPzZ0DidlU10sO+745KmxfH5NKSQ9sYFuAAAAAAAAAAAAAAAAAIBPpjOMtA7Gk28OJWVdZTIN9sBQbHn2NCe+NjTHHSvnxwN/PDeWXXd4umzLlbPi9mvSkOnOD2JjqVu0I97uOViqKi5situvn3b4mmvnxB3fbImrG9LGEYZiIE0MN7WMOaehNhbc0Br3/OvGaK5Ke2esMhbdOD3aiknf/bn42druY8PFR+iJ3mRcctTMnBrXz07qiOpo/+2WWHnrrGhPw8DHGhN+Tp+rcX5z3Pb15mhL2ifV8WxvdJTeS3m0LZoXt4z5DWJ2fSz7o9F3dTC6Xn3v7AW6AQAAAAAAAAAAAAAAAAA+Ic54fm3v03uiMw2YFuW374m16bTfcZteXgr0VtTVxIIvt8Y9d8+PB/50ftxxU2O0lsbi7otNP3//iLDsuo390Z0vVuXRuqAl7vnT9uSaG+qjZfJwvPzKUJQOH6H30BTbiqZpsXzF/HiocM1DK1pj2bW1Ufl+T2zsSkLEZ+zK2fGl1nS6cEV1fOmPCuu78zjbrbOScwrWv5FL1lxTG1+9NV3b3ZfEbV+aFk25PfHUG+kE3mP0xdadafg5fa57vtYU7fMa48aFpfbJ9fXEqid6o6uY366ojCtGf4OVhfvfOicWNBef42AMbN0Rq5850RoAAAAAAAAAAAAAAAAAADhVZxz2jdgVL703ktYj8fbru9L6NGzdHg9+vys2vLkvcmlCt6K4wvxI9L7bH2v/9s1YszXpH1K45tEnemJLz0jkDxT2J5VFxYGRGHiveP7WWL1tf6RDfI+wZe3bsfaVw/cpvol8bl+8vLErHvnP3fFy/7ER4dPyqcqoS8vS2qpOtB3+KXqf3RarnxuM3nRocmltQ8PR+ev345FV78b69/PHCTAXDcdT67rjxZ3puygaykfXK93xD4fHIZ/c1vfj4b/pivVvDMXAUBocLiawDxyMXM9gbHp6W3zn73s+ZDoxAAAAAAAAAAAAAAAAAACnouzO+16doBG2AGTh/rvmpRUAAAAAAAAAAAAAAAAA55OqqqqyCZjsCwAAAAAAAAAAAAAAAAAAnA5hXwAAAAAAAAAAAAAAAAAAyIiwLwAAAAAAAAAAAAAAAAAAZETYFwAAAAAAAAAAAAAAAAAAMiLsCwAAAAAAAAAAAAAAAAAAGRH2BQAAAAAAAAAAAAAAAACAjAj7AgAAAAAAAAAAAAAAAABARoR9AQAAAAAAAAAAAAAAAAAgI8K+AAAAAAAAAAAAAAAAAACQEWFfAAAAAAAAAAAAAAAAAADIiLAvAAAAAAAAAAAAAAAAAABkRNgXAAAAAAAAAAAAAAAAAAAyIuwLAAAAAAAAAAAAAAAAAAAZEfYFAAAAAAAAAAAAAAAAAICMCPsCAAAAAAAAAAAAAAAAAEBGhH0BAAAAAAAAAAAAAAAAACAjwr4AAAAAAAAAAAAAAAAAAJARYV8AAAAAAAAAAAAAAAAAAMiIsC8AAAAAAAAAAAAAAAAAAGRE2BcAAAAAAAAAAAAAAAAAADIi7AsAAAAAAAAAAAAAAAAAABkR9gUAAAAAAAAAAAAAAAAAgIwI+wIAAAAAAAAAAAAAAAAAQEaEfQEAAAAAAAAAAAAAAAAAICPCvgAAAAAAAAAAAAAAAAAAkBFhXwAAAAAAAAAAAAAAAAAAyIiwLwAAAAAAAAAAAAAAAAAAZETYFwAAAAAAAAAAAAAAAAAAMiLsCwAAAAAAAAAAAAAAAAAAGRH2BQAAAAAAAAAAAAAAAACAjAj7AgAAAAAAAAAAAAAAAABARoR9AQAAAAAAAAAAAAAAAAAgI8K+AAAAAAAAAAAAAAAAAACQEWFfAAAAAAAAAAAAAAAAAADIiLAvAAAAAAAAAAAAAAAAAABkRNgXAAAAAAAAAAAAAAAAAAAyIuwLAAAAAAAAAAAAAAAAAAAZEfYFAAAAAAAAAAAAAAAAAICMCPsCAAAAAAAAAAAAAAAAAEBGhH0BAAAAAAAAAAAAAAAAACAjwr4AAAAAAAAAAAAAAAAAAJARYV8AAAAAAAAAAAAAAAAAAMiIsC8AAAAAAAAAAAAAAAAAAGRE2BcAAAAAAAAAAAAAAAAAADIi7AsAAAAAAAAAAAAAAAAAABkR9gUAAAAAAAAAAAAAAAAAgIwI+wIAAAAAAAAAAAAAAAAAQEaEfQEAAAAAAAAAAAAAAAAAICPCvue8ylj0jcviobvnx0N/0hqLGtI2AAAAAAAAAAAAAAAAAADnvfGHfW+6NAmeFraVN6W9CVMbi5bOjZXfnBNXp52PvblNccs3L43bb5yWNo42IxbMrUjK2tpY8LmkBAAAAAAAAAAAAAAAAADg/HeOTfadFgs+XRPN0yvjgrTzsTe/Pq64cHLMbEgDvcfYGZu25ZNycDA2/SIpAQAAAAAAAAAAAAAAAAA4/51bYd/PVMSUtPykuLqmPK1OZDg2/PCNuOv+zXHXdztjQ1/aBgAAAAAAAAAAAAAAAADgvHduhX0by6MmLT8pmqd8WNgXAAAAAAAAAAAAAAAAAICPq3Mq7Ns4rSIq0vqToTKappSlNQAAAAAAAAAAAAAAAAAAnzRld9736sG0PjU3XRoPXTm5VHa/tDkefKJUJha0xr3X10bN/lw89R+2xQvzm2Pp5+tjXkN5VBRjxQdGYqB7b6z/cVds7EsuKVp6a3t8timiour4wddcZ3f8+eM96V5qdmMsX9wUn55VGTVpQjg/lI/ujl2xZl1vdCWtIxWv+VfT49MzKg5fk9sXW1/tixfeG0kaBUM9/bHlvUJReJ7/q/A8U8Y8z7Iv1UfbtHQa7+DeWPvdd2JjsheN82fGkgWF40d//8u7Yu0z/dGbtApmxR13NkTzpLKoOG66eSQ6nnk9Vm1K9hbdfHksaS3cc2gw1j3cGRuS9mEN0+KrX2mKz140Oeqq03d44GDk+j6Il1/ojjXPDyW9sUZ/x77+WLWqK3LXtsSy66ZGS136bPmR6O7cHf91TXdsSTrAOer+u+alFQAAAAAAAAAAAAAAAADnk6qqqrKzM9m3alK0fHlu3L6kKdqbyg9P651UHnWzp8XSW1pjUdoqGtifBG3zB0ofJfn9Bw9tucI2VuN1F8Vf/G+z4uoL06DvgcJ5hWsrqiui5TOz4vY/vigWNSTnHjJvTqwsXjM7DeIWrimqqJkc7dfOiuVLWg5tv3tN6dBhhedpvq619DyloG8+Xc9QPg36VsfiZfPi//ja9Lhi9PvTc0rfv6Albl/WVNpP5CM3XPhI11BSfIZDz3wghse8i5OaNyvuuLUlFl9WfSjoW3qPk8qipqk2FtwwN+5Z2hiNpSPHUVjsFUvnxe03TEuCvqP3rSiP5kub4pZvzYm2tAWfBGWF/4x+5wszTmsrXgsAAAAAAAAAAAAAAAAA43F2Jvumu/m+PfHkk92xobOYbK2Ohb//qVhyWWUp/Nu7uTPu+/Fg6bxRHzrBtmjunFj59fpoLnxJbmd/rH96R/r9ES1Xzorf+0pjtBYWcOQ04NpYvqI1ri4GgHO52PCTd2Pd5uI1lXH19RfG7y2oKa05P5iLrdty8drz78fGsZN9Y6RwWXlU5vfGz9a9F08V79dQG+0X7I8tpbo57vhWU7RUHIzezr5Y/9P3Y1Px+oZpsWTJrFjUUpyWOxwv/nBrPLatUB7SFCvuaI626hNML06d8L00FK6/pXB9afHD8fLPt8e65waTCcLFKcY3zYirZxTvfTC6NnXEw88k76lkzO9YNPBubzy5/njrPhidz26JR0bHF8MnwPTGqrjtDy6KGYXPU7Gzd388+nfvxK7CZxZM9gUAAAAAAAAAAAAAAAA4P529yb4Fuc4d8ciqdw8FcSOGYuOPtseW/mSvsXnaiafNnsTiz08rBX2jf088/v2uMd8f0fXS+/HIE3tKYdea1vpYNjrdd25DtJbqfGz579vSoG/RcLz4TGH/zXxpr+KDffHoujToe4TyqCnPxc8eeycJ+hb1DSZB31LdHavXvBurH++I+x5PA7Olfn+sW9cfXaVpuZXRelVtqT1R2r7YmAR9YyQ6NmyN1aNB36L3euOxwvt5sa+4UxYt/2J2LCgdONrB6H6lKx75z0et+wd90VnKLZbFzNaxU4nh468Y2i2Gd4sh3g+TddAXAAAAAAAAAAAAAAAAgPPbWQr7jkRXx67oSvcOG4y3d48kZW1lXJFU4zAz2meWlaqurd2xpVQdZWtfdJUCxZOj5ZpSJ2JGeTpteCQGXioVR9g0mK5pamUsTKpj9HbsiKdKwdnj6+3cEy+PCR4f0tcTO9KAc01NdVJMiNpY2FKZlD0DsWZTUh5pbzy2ORelKHNtTVxz3LTv/uhc1384JHzIjugeSKqaqYcnAMMnxakEfgV9AQAAAAAAAAAAAAAAADhTZ22y71nxmeporErKlqva4oE724+zXRTtdck5FaPZ2p0jkSsV5VF3Zak4woLa8qTYOxwbk+ooI9H73mBaj9dwDJcm+060aTFzWlIN9I6Z6Hu0Z/dFT6koj8aWiZ0sDB93Jwv8CvoCAAAAAAAAAAAAAAAAMBHOr7DvlLKoSMuoKNRVJ9hGn2o0ZLutLzpKideKaP/K3FgyP52IG5Vx9fWF/UuTb+1+Lx3Be9oqo+26WXHLzZfEyj++/FAA+ZqG9PBZ8kHuZOveFwNDSTWxk4Xhk+F4gV9BXwAAAAAAAAAAAAAAAAAmyvkV9j1kJDqe2Rx33X/y7cEn09NjMNb8tDe6iqHXmppY9LV58dCftsdDd8+L5QtqoqbQzvfsjv/6xOlO741oubYlVt4xL1Z8uTGuaK2O5rryY8PHwHlpbOBX0BcAAAAAAAAAAAAAAACAiXR+xVB3jkSuVEyKyvEOqd26N97uHymV+Xzhn0llST2Uj65X3o9Hvrc9tpQ649d4XWusuGFaNBfXNLQvOl7rjafWvRurViWh402lqcJnz5SaaWl1PJOjLn1XuVw64hcYt9HAr6AvAAAAAAAAAAAAAAAAABPp/Ar7bstFbymvWhYtrdNLrVO16BstsbC5PAbeeCf+7MHD03//7OE34uF1vdGVnjd+lbH4ytrSdODo649HH34zVq19P9a/sic6+konnCWD0ZsOIq5rrI3GpDzWFydHU6kYid6u059cDCSBX0FfAAAAAAAAAAAAAAAAACbS+RX2jZ54oas4ljeiYk5DLJ9XKo/VUBvtrZXpTlF9tM0sL1UVU6ZEW0OpnCAXRGNtUuX2DB07Hbih8dBk3YnVHxs6h5OyqS6WLUjKI02N5fNroqJYDubihU2lJgAAAAAAAAAAAAAAAAAA54hzKuzblTuQFNXV0b6wmJCtjoVLWmP5mCDrpqf7o5T3nVQZV//upbH8ujFTbRtqY9GNc+Oeb7XGbcsuimVz037sjs6+g6Wq5sLpsWLF/HjoT9vjgTsPb/f+8aVx2/XTTjwh94R6oncgqWpmTo3Fs5O6uPb2326JlbfOivY0DHysocjtS6pD185ujOU3t8SipH1SHc/2RkeuWJVH26J5ccvYdzG7Ppb9UUtcXQo2H4yuV98LWV8AAAAAAAAAAAAAAAAAgHPLORX27XglF72lqjzavnhJPHT3JbH0M7Vx9TUt0VbqF/R1x+pn9kRvMfBbPTmu/nJr3HP3/Hhg5fx4aEVrLLmqJhorInI9g/HytuSSohf+uS+6hgpFmieOSWVRUXV4q6mbHO0LWuKOm5vGHfhd/0YuSvOGa2rjq7cWg8SFrbD22740LZpye+KpN9IJvMcYjE3vpcdGr711VlzdOi0Wfu2ECeHD+npi1RO9yXNVVMYVY9/FrXNiQXNxmvHBGNi6o/DOTrQGAAAAAAAAAAAAAAAAAACyck6FfWPru7H2ucHoLYZXiw4cjFzP3tjw7I7oSFtFvS+8G/f97fbY+Oa+yJVSthEVFYV/8sXzB2PTTzvj4f/4fmxJDkXjda1x+5LGaDk4GE/9YHPcdf/Y7a149OldsWV08m9rfSwuVaeu99ltsXrsugtvNT80HJ2/fj8eWfVurH8/n4SBj2PL2vdiQ+dwjA41jvxIdL/ZE08+O5g2PsTW9+Phv+mK9W8MxcBQ8gyld1F6d4V38fS2+M7f96QhagAAAAAAAAAAAAAAAAAAziVld973apIQ/diqjeUrWuPqhoPRuXFLPPJs2j7a3Avjnm9cEI2xLzbd/2asSdsA57r775qXVgAAAAAAAAAAAAAAAACcT6qqqsrOrcm+Z0V11NUUP8uiYnJlqXM8jW1V0Vgs9h8wBRcAAAAAAAAAAAAAAAAAgI/EJyDs2xNdfcnw4par5saKG+qjraG0m5g9NRYvuTTuuKa6sHMwul/bGeuTIwAAAAAAAAAAAAAAAAAAcFaV3Xnfq0kS9uOsoSlWfLM52mrT/aIDByNfnPZ7KO58MAa27ohH/r7HZF/gvHL/XfPSCgAAAAAAAAAAAAAAAIDzSVVVVdknYLJvQV9PrPruW7H214PRnTsY+QOF3qQ06JsfiYGde2PjE9viO4K+AAAAAAAAAAAAAAAAAAB8hD4Zk30BPsZM9gUAAAAAAAAAAAAAAAA4P31yJvsCAAAAAAAAAAAAAAAAAMA5SNgXAAAAAAAAAAAAAAAAAAAyIuwLAAAAAAAAAAAAAAAAAAAZEfYFAAAAAAAAAAAAAAAAAICMCPsCAAAAAAAAAAAAAAAAAEBGhH0BAAAAAAAAAAAAAAAAACAjwr4AAAAAAAAAAAAAAAAAAJARYV8AAAAAAAAAAAAAAAAAAMiIsC8AAAAAAAAAAAAAAAAAAGRE2BcAAAAAAAAAAAAAAAAAADIi7AsAAAAAAAAAAAAAAAAAABkR9gUAAAAAAAAAAAAAAAAAgIwI+wIAAAAAAAAAAAAAAAAAQEaEfQEAAAAAAAAAAAAAAAAAICPCvgAAAAAAAAAAAAAAAAAAkBFhXwAAAAAAAAAAAAAAAAAAyIiwLwAAAAAAAAAAAAAAAAAAZETYFwAAAAAAAAAAAAAAAAAAMiLsCwAAAAAAAAAAAAAAAAAAGRH2BQAAAAAAAAAAAAAAAACAjAj7AgAAAAAAAAAAAAAAAABARoR9AQAAAAAAAAAAAAAAAAAgI8K+AAAAAAAAAAAAAAAAAACQEWFfAAAAAAAAAAAAAAAAAADIiLAvAAAAAAAAAAAAAAAAAABkRNgXAAAAAAAAAAAAAAAAAAAyIuwLAAAAAAAAAP9/9v4/yMv6vhe/Xwu7y67LCuwiK6xxg+xq4ESPens2piSSHLGV2y93SpPS3NrUTM10mN5fO3XE0+hMJne+mVFb7dApnQ6TieeOSfWb0qScDPVresQk2NBavh5NUUEFJIsuuuAuP5bNLvBZ9r5+LSywKMjiB8zjMV58Xtf7+n1d7/W/57wAAAAAAAAAykTYFwAAAAAAAAAAAAAAAAAAykTYFwAAAAAAAAAAAAAAAAAAykTYFwAAAAAAAAAAAAAAAAAAykTYFwAAAAAAAAAAAAAAAAAAykTYFwAAAAAAAAAAAAAAAAAAykTYFwAAAAAAAAAAAAAAAAAAykTYFwAAAAAAAAAAAAAAAAAAykTYFwAAAAAAAAAAAAAAAAAAykTYFwAAAAAAAAAAAAAAAAAAykTYFwAAAAAAAAAAAAAAAAAAykTYFwAAAAAAAAAAAAAAAAAAykTYFwAAAAAAAAAAAAAAAAAAykTYFwAAAAAAAAAAAAAAAAAAykTYFwAAAAAAAAAAAAAAAAAAykTYFwAAAAAAAAAAAAAAAAAAykTYFwAAAAAAAAAAAAAAAAAAykTYFwAAAAAAAAAAAAAAAAAAyqTi7vtfHirqc1/bjLjntydHU+VQdG14Ix56Yn+xIXHLrHj4qglJcSDWP7A1Vuajp2TerVfEwpbxEQN9sXpZR6wtxuGcdNK5XhXzvjgzFs6sjOhL5vL3krm8u9jEh9oDS9uKCgAAAAAAAAAAAAAAAIDzSXV1dcVph30X/9GcaG8sVkZROjgY+3b2xfP/8U78eMNAMTo25n7xilg0c3y+cnww98MU9m1viW/eWBe1xeq7G4wtT78aK9YXqx+oupi3aFq0TzwQa763I14oRj98qmLRH7bF3KZ8rWvD5njoiUP5SjmcdK7PiHvunRzFbSb3uTG5z2Kl0H5TS8xtGYwXv/1mrCnGOP8J+wIAAAAAAAAAAAAAAACcn9Kw77iifl9KB4eOLofzscrq8dFwyYUx/5aZ8fUvNEZDPjwm1v2v3ugqpdVQdL3W/evRgbc04h2PuhyOQ8W7/+BNivaP1UbT1Kq4sBj5UJo5LWYPJ2gTTR+ZFq1FfW7ZFeu3ZX8gWWff9f+al0c1xrUfr4vmiyaM6d8lAAAAAAAAAAAAAAAAAPD+vf/OvqN2wa2K1uunxaJPToqmmnR9KDrXb4llT38AXVA/pJ19R+vOes74+KXx9YUTo/5ceW9nSevn2mLJnKpiLVWKTU+8Fo9sKFY/aO97rjfFXX/WGM3jTv9vhHObzr4AAAAAAAAAAAAAAAAA56cz7ux7okOx5dnOeOif9kVPtl4RzS16iH5oNYzPAskfbpNjXksR9O3qi46DaVEZbf95ajZ0XplZFbVj/BcPAAAAAAAAAAAAAAAAAJyZsxP929yb5iJzEyfENUXJh0vDpMqoLOoPrblToq0uLzs7OmLTzrwRduW0+pifVeeRpl+HcDYAAAAAAAAAAAAAAAAAnF8q7r7/5Ty9eIoW/9GcaG9MioG+WL2sI9bmw8eZFHf8SXPMTkOSu/fG/Ss6i06/iVtmxUNXTYiKkx7fGEvuaorWmoj+jq742uPdxXhqRtxz7+RoSqquDRvjoSfy0Uxy3oeT80YciPUPbI2V+egINTF34YyYn5y4Pjl3qtR/IDa/+E5sabo4FraMP/kzTZkUC2+aGtc2TzhybJQGo6tjT6x5qite2F2MDRu+l+TZVyTP3n9dc9z6qQujqbYi397VE0v/+9t5PZr2lvjmjXVZMPOE5zwFzcn1fqd9YjTXj4/KNM59eCj6+w7EK8/uiMeeG8h3OkHyfhY0xW9cccHR+zw8GL1d+2PNP3fGurfyodSiL8+OTyRzoLK62O84I7/bvFuvyN9t955Y+q0d2dixTvZNh+fBUHQ8symWb0y+wYJp0f6Rojvt4VJsevq1eOS5fO/M6X6nU3DzH8yO+c3Jcx7sjx//5bZYc9Wl8fVbJkZ9sq3zuc2x7KlD+Y7HG54D72uep6rimhunx/wr645+j4FSdG55J1YenhJ3nWSuH3nfI6479wttyVjlSb/Xyb8N54sHlrYVFQAAAAAAAAAAAAAAAADnk+rq6oqz09n3qklxSdENteetPUeDvuUypSFuXzIzFn38aNA3ShGVtRNidntzLGgeXwyOou3iuOvLzTFv1tEAaelw8k/l+Gia1Ri3ffmyWHSynF1tZcy+ZVbcedOkPLCZXDPVP3CSgOgZq4p5X7g8u17LpCLoWxqKGFcRtcnNX3PTzPj6FxqjId/5iIY5yTPelTzH1UeDpdkzjhsf9dMnxaLfnxWLZ2bDmd6Dg9lvtk+hdHDoyNKfLGOnImoaGmPJl5Jv0FIVtZFcI7u3wegdGfQ9k+90MlMujtnT8/fR+8buWJMWG/bGm0XX6uZZ06I1L8fYxFj4B5fFbe0TjwZ90+9YUxnNH7847pxTnY+doq4D+YcqFfMvNfJ7lQ6O+JBERfLKf/PTF72vJT0WAAAAAAAAAAAAAAAAAE7H2IZ9p9RF+00tcd9v5Z1PS7v2xKofFcnIsqmKeQsuiiunpCm8oeh5rStWrNgYSx9KlhUdsfq1QxGV+Z4naowltzREc03yLL19se6J12PpAxvjq3++Me5/vCte3J0GMGti7mdnjB76HFcT7XMmxKGuPbHyO8U1v7M9Hv/p8V1cx0brgktjQVtl8jiD0fXS8HNuSu759Vj5XH/0R0XUt02Nxe3FAYXWORdmzxgDB+KFn3bE/cUzLntqX/SkAdHKCXHtp6Zm+6bWPP5afPUvN8WTb+Sh37SL7JPJejqWLvf/YGzj3RfOmhqtE0qxaV1yb3+eXOPPN8eKH7ydh28zZ/idTqL1hvpozv5CSvHmK3uysYi9sbajCGtPuSDmjghBj5XZC6fHvCKA3t/ZU8ydo9/xUOXpJUq3rN6af5uNB4qRA/H8iO/11e+8S5fpX0NDyXR5/uW9cc2cSfGbn7rolJZ03/SY9FgAAAAAAAAAAAAAAAAAOB3vP+xbUxcL7p4dDw4vfzYnHl7SEouvq4uG0qHY8ou3Y/m3d8SmYveymTkt5rYUwcmOnbHih92xZXe2GrG7L9b+cHM82VGEVo/T+rmGaK1NioP98bPHOmLVhoF8Q6Knozse/fvu6DiYrDTWx/zjArSZ6vFR27cvHv/vO2L9W8XYW/tj03A9pqbGgjkTstxyzyud8dDqEc8ZA7H+qW3x+CtpSHV8tF4945juvut/sD0eWb09li3bGo8923ekE3Pnc2/Gmo68HWzltPq4Oas+eLW146Lj37fFI88M31syvzYfvc8z/k6jmpR1Es6k82RDXqa2JPfRlVVV8dH/Mjmrxs7UmH/58HX3xuPfffvo3Cm+47KXzlZnaIa903MwHvmH7bEr+X0v6T7pvukxAAAAAAAAAAAAAAAAAHC6zqizb2V1xdFl5JlqqqL1iilx842TjgmVlkPr1RcU93AoXvm37iMB0fdWF3Ob89Bl7xu748dHgrMj7N4Zm3elrTzHR9Olk/KxYwxFx3+8eUaB56Y5IwLVJyyXxaJiv0i70FYnv4cHYtPP9udjx9n0i/78+afUxNxsZFhyzEv7o7NYG2n99gPRnxbV4+LCbKQMdu+LJ585WcB1LL7TKK6aFJfU5WXXGztjS17mdu+KLXnaN+o/MiXm5+XYGP6O6dx5sXPUudNz+HBRcTadSuBX0BcAAAAAAAAAAAAAAACAM/X+w74DfbH6gY2x9Jjl9XjkqXfixV2DEbUTYnb7jLjz843FAeUxe0rRJbX/YPxyW16emonRUJ9X9S3TRwna5stnpldk+1RWpz11j3cwutYV5ftVOSJQPcpSPF1cM60q6+ob42riE384+r0++Dv1efB5XEWkjXBPyTmQK+3fN3Bs2PYYp/+d8urdzf/PdZGd9nBy7X89Pmh8KFa92h9Zz+Pq2rjyxmxwTBz5jmMxdzhj7xb4FfQFAAAAAAAAAAAAAAAAYCycUWffEw3Epud2xqPf7oz13Wkn1Yqov7whbpuZby2H2uEM7q8OxellJ8cf7Vb8boHb4X0Op8879ro2HB+oHrlsjZXFfhcm9zJs1Psslnc1fXLcvODSuPMrbfHN4aDsvLpTDwaXxVn4TlMujitn5O+qtGNfrBqtW/C63ugsMp7NLRePWQfrI99xoBRF82DKbLTAr6AvAAAAAAAAAAAAAAAAAGNljMO+w/bHyg2/iv6srooZH8uK89a7B27z5Wvf7yn2LrNROy4fvxwNCWemTIqFt7bFg1+eEfOvnhgtF1VF7XBIdrSGxeeoU/1O7xX3bbjugmgu/jIqL5kWD987Z5RlWrRU5/tEU30sKGOgnbNvZOBX0BcAAAAAAAAAAAAAAACAsXSWwr6Jw8Vv6uxd5dRVjovWojw1pRgosnxV1XV5cQ7r7C9e+Lhxp9mJd2Is/t0ZMa+lKipjKHrf2h/r/+3teOwHr+cB2af7itD2uWqsv1NdLJhVU9Snqipa/8vkoh4jp/0dOduGA7+CvgAAAAAAAAAAAAAAAACMpbMXw60ZF1VFeUzwd1hNZTQV5dnUtX8wL2qrTjPsuzu6evOqoWnyaR77wdvSeTAP5VbXRNvcbOjUtDfGlY0VSTEYW366Jb7xne2x8mc98cLmgXz7WLmgKk7ntk7dGH+nqxqjdUpe9m7dcUJn4GOXjnhhd75vffOkmJeXxzrNeb52bykvqpPjdAs+56QhX0FfAAAAAAAAAAAAAAAAAMbSWQr7VsXC1pqozOpDseOVrMj1Ho48zlgdTaOkPxvm1ERDdbEyBta+eTC/XnVtzL7pSPz4qCmNMXva+GJlpEOxZlsReJ0yMeZfP8qxmZqY3Xa6nWDPgvV745d9aVERLVc2x+xs8EQNLROPhFkzF1UWHWRL0fPsoawaafaUyqOh7ffhSMfh2ur46Cjh1ea5E+LCon5/xvY7zft4bdRn1aHY8n/vyaqT64t/f6t4ZzUXxFUj5/P7necbD0RPVlTFR0ftFjwxFjeP4R8IAAAAAAAAAAAAAAAAAFBWYx72bWhpjNu+clnMa0q7xUb0b+uJx7ZlZe6ZX8XOLAVZES3/ZWYsnDMczqyJuQsuizsXToqGsbyrZ/bFL4ssaPPVH43br6+Lhnw1mq+6OO78UlO05mnXE/Q81RObsgDt+Gj99MxYctPkaM62pGqi/TOXxD13XRZ3fKEllrQXw2WzJ1a9PJAHTKdMilu/0hzzWo4GX9PvsvhLbfHfbr00vvL5GUc74HaV8o7AUR0t6bvP6nT/ybHo1ra4/eoJRWj7REeCvDU1MXtuGqRNvuHClrhtxLvYsrk/8sa7VXHlb10Sc6dnK9k93ry4Le68obYIG79/Y/edpsZV04vg9+5fxb+PnLcnseWZ3ujMXkMyn6+4+Mj7S+d58moTpznPt+2OLd15WT+rKe4c8SzpN7x9yUeiPevE/D6MCCDn37oqrrnx0rjjxrpsFAAAAAAAAAAAAAAAAAD44FXcff/LQ0V9Shb/0Zxob8zr0sFjD62sPjaE2P9WTzz+nbdjU7E+bPYts+L2q0aESEvJeSrzY0u798WLA/VxzfSK6O/oiq89XiQfMzPinnsnR1NSdW3YGA89kY9mknM+nJwz4kCsf2BrrMxHMw3Xt8Rdn607Gio9PBSlqIjKNGw5MBDrNg7FJ66tjcqBvli9rCPW5nvl2prizgWN0TIyD5kmJkckYEu9++PJx7bH2t3FwLvcyylpb4lv3pjf7wnP+a6qYu6ij8bCj1Udvb2Rz5oZjM7nOmPZU/uL9Ylx+x9fGldOKlZTaXg13f9wKTrW74u4tiFaqkd5lrZL4r4vXHg04Dps995YsaIztmQrVTHv1stiYcuI7skj3l/vmz3xZn1DzE6uf+yzNsaSu5qitSaZRyfMg1G8n+90nIabLov7rsu7/3Y+tzl5Ryd2Oh7N/C/NjpsvSefvoXjh+5uPhNvf9zxvS+b5byfzfOS9J98k+4alUmx67lfRdH363k/8JvNuvSJ/16PN5SnT4s4/nJp8y2J92MH++PFfbos1xSrnnweWthUVAAAAAAAAAAAAAAAAAOeT6urqitF6i56yNNw7csmUhqK/uy/W/7Qjlo0S9E1temJ7/P36/dHVX4SFKyuiNFCKzpfejuUr3oyNvYP5+BjpeTa5l3/uiY69xXnHJfd7eDC6tnbHY995PVZ1Hiq6245ic1cs/15HrH5pIHoHhu83WQ4nz9k7EC/+245Y/jcnD5B+sA7FulWbY/kTPbGpezALiGbPmnzl0sHkeTv2xOrHXx8R9E3tj0f/z7fjhV3F/pnk2XbtizWrt8Xyn/ZGT9Y1dxSb34xVz/ZFT9E5OXsn3ftj7TM7i6Bv6lCsfbwjVmXvrxhK3l+p/0BsWt+ZvNu3Y+evjg2Nvy9n/J3qYsGsPOibBmVfPMWgb2rNq78q5k9VtFw9MatS73ueb94RD/2PnfHiiG9SGYPR+9beWPV3r8UjP03ma96i9/Ts3hmP/XTv0ftJpO/mhbVvCfoCAAAAAAAAAAAAAAAAQJmcdmdfAM4tOvsCAAAAAAAAAAAAAAAAnJ/OuLMvAAAAAAAAAAAAAAAAAADw/gn7AgAAAAAAAAAAAAAAAABAmQj7AgAAAAAAAAAAAAAAAABAmQj7AgAAAAAAAAAAAAAAAABAmQj7AgAAAAAAAAAAAAAAAABAmQj7AgAAAAAAAAAAAAAAAABAmQj7AgAAAAAAAAAAAAAAAABAmQj7AgAAAAAAAAAAAAAAAABAmQj7AgAAAAAAAAAAAAAAAABAmQj7AgAAAAAAAAAAAAAAAABAmQj7AgAAAAAAAAAAAAAAAABAmQj7AgAAAAAAAAAAAAAAAABAmQj7AgAAAAAAAAAAAAAAAABAmQj7AgAAAAAAAAAAAAAAAABAmQj7AgAAAAAAAAAAAAAAAABAmQj7AgAAAAAAAAAAAAAAAABAmQj7AgAAAAAAAAAAAAAAAABAmQj7AgAAAAAAAAAAAAAAAABAmQj7AgAAAAAAAAAAAAAAAABAmQj7AgAAAAAAAAAAAAAAAABAmQj7AgAAAAAAAAAAAAAAAABAmQj7AgAAAAAAAAAAAAAAAABAmQj7AgAAAAAAAAAAAAAAAABAmQj7AgAAAAAAAAAAAAAAAABAmQj7AgAAAAAAAAAAAAAAAABAmQj7AgAAAAAAAAAAAAAAAABAmQj7AgAAAAAAAAAAAAAAAABAmQj7AgAAAAAAAAAAAAAAAABAmQj7AgAAAAAAAAAAAAAAAABAmQj7AgAAAAAAAAAAAAAAAABAmQj7AgAAAAAAAAAAAAAAAABAmQj7AgAAAAAAAAAAAAAAAABAmQj7AgAAAAAAAAAAAAAAAABAmQj7AgAAAAAAAAAAAAAAAABAmQj7AgAAAAAAAAAAAAAAAABAmQj7AgAAAAAAAAAAAAAAAABAmQj7AgAAAAAAAAAAAAAAAABAmQj7AgAAAAAAAAAAAAAAAABAmQj7AgAAAAAAAAAAAAAAAABAmQj7AgAAAAAAAAAAAAAAAABAmQj7AgAAAAAAAAAAAAAAAABAmQj7AgAAAAAAAAAAAAAAAABAmQj7AgAAAAAAAAAAAAAAAABAmQj7AgAAAAAAAAAAAAAAAABAmQj7AgAAAAAAAAAAAAAAAABAmQj7AgAAAAAAAAAAAAAAAABAmQj7AgAAAAAAAAAAAAAAAABAmQj7AgAAAAAAAAAAAAAAAABAmQj7AgAAAAAAAAAAAAAAAABAmVTcff/LQ0V9HpgR99w7OZqSqmvDxnjoiXyUD5uqmPfFmbFwZmVEX1+s/l5HrN1dbDqbpjTGki81RWtdRO+2rlj+/e7oKTbBueyBpW1FBQAAAAAAAAAAAAAAAMD5pLq6uuK0w77zbr0iFraML9aOc3goSgdK0fnG3vj5T3bGC2Me0Dz3w76z514SN19TF831xTs6PBi9XftjzT93xrq38qHTc/SZR1VKzr97IDa99E6sebbvQxJOPfaZP7BvvWBWPHz1hGLlQKx/YGusLNbgXCbsCwAAAAAAAAAAAAAAAHB+SsO+44r6fSkdHDqyZMZVRGVtVbRcPjVu+0pb3HF9VT7+a6Eq5n3h8rj9hgtHBH2TZdz4qJ8+KRb9/qxYfKZ5vDRMffw7r0zOf1FdtH+2Je76w4tjdj56ntsV67eV8rKvL9b/a16edc/uiS19edm7bU+syUsAAAAAAAAAAAAAAAAAgLPmDDr7jtL5dPrEmH9dU8z7+ISoTddLA7H226/H6jHr8HsOd/a96tL4+i0Toz4p+zu74x9Xd2WdjRvmNMVtv9kYLekL2b03VqzojC3ZAafq6DP3d3TF1x7vzocLzVdNi5t/ozFmT6nI1tN9liX7fDg6/AKnQmdfAAAAAAAAAAAAAAAAgPPTGXf2PcFb+2PN6q2xbP1AZH1ZK2viyhvqsk0fdnPn1GZB3+jbH6u/mwd9Uz0bu2L5T/ZHb7oy5YKYOzMbHjOdG3bGIyveOHK92paGWDDG1wAAAAAAAAAAAAAAAAAA4OwY27Bvoefp/dF5MK8vnPTrEfZtqCle5UAp1ufVURveisdWdcYj39kcj24rxsbU/nhsY38esI6qmDEnKwAAAAAAAAAAAAAAAAAAOMdV3H3/y0NFfUrm3XpFLGwZn1QHYv0DW2NlPnycxlhyV1O01iTlrj2x9Ns78uGRpkyKm/9rY3zi0glRX1ORjx0eiv7dv4oXn++Klc8N5GPHmBH33Ds5mpKqa8PGeOiJfHSk5uua43faJ0Zz/fioTPO36Tn7DsQrz+6Ix0Y9Z03MXTA95n2sJhqG76M0GL279seaf+6MdW/lQ+9l7heviEUzk/eyd1+s+Ns3Y0sxfuaOPnN/R1d87fHufPh4My+J+754YTQk5Yn7VcU1N06P+bNroyl5L5nsXffF+p+/Fas3HsrHhrW3xDdvrIvag/3x47/cFs/PaYrFn5kcrZOKY/v2x6q/3h7r0vqWWfHwVRMidu+NFSt2RtPCj8T8y2uivjrZdngwerZ1x6Mr34nOZDX9Nouvz79NJnnPXa/sisdX92TbRzoyzwb6YvWyjlhbjGemN8Ti+Y1x5cVVUVuZD5UGStG15Z1YecK5kme/oSnmX1sfTbUj59loz3503p70XafX/uyUuLJ5wpFr5/OlL/59fVf8+Ph3mVj8R3OivTHt8twR9/9oMOYunBHzk4vUp38fiVL/gdj8H13xyE/35wPHGJv5yamrSF7zTZ+6qFg7PU/9fFcMndb/UcfGA0vbigoAAAAAAAAAAAAAAACA80l1dXXFWensGzNro6EIMvbu6cuLkdoujru+3JyHQosAY+lw8s+4iqhtrIv2m2bGfYsasuDqqauKeV+4PO68aVK0TCqCvqWh/Jz1NXFNcs6vf6HxuHNOjMVfmRmLrk7vdzgImiyV46N++qRY9Pttcft1+fB7WbexP3rTYlJdzG/Phj5YdeOSN1A4PDJtODEW/eFlcVv7xKNB37QFcPauJ8a8z10Wd900MR8/XvW4aLq+Je5c2JgHfdP3mRoo5UHfkWor4xO3XhaLPl4EfVPjxkfDrGlx+6KJ0ZCcZ0nybbKgb/qOU8l7bvr4xbHk1uO/y7tomxH3/P7F0X5JEfQtzlVZUxnNybnu/ONLYm4+lEjmxBdnxm1zLxwR9E2WEc9+52dr8/FT0HD9pfH19NotRdA3ec/ZvM3my4Uxf+HM5HwneZeJ2rr6uH1JMt/Sd5T+fQzfe+2EmH39R+KeBcd3wR67+cmpS8O6z7+8N66ZMyl+81MXndKS7pseU46gLwAAAAAAAAAAAAAAAADnt/G/ceP/5/9b1Kfko1dOjSsmp0nawej8+e54OR8eoSrm/T+b4upsn1K8/uyOeKEr35KZ0hhLfvei+GiasSwdihfXvhmPfH9HrF63K/7n1sG4qLk2pteNi9qpdXHZhL3x7LYiEZmpj7mfrok0TtnXtSv+dXM+mmpdMDN+7z9VR2VyX10v7Yq/+8ft8f2n34n/+fPe2FNbE5fNqIq6xuTcB7vjueHWr3Ob40tzqmJcDEXPa12x4lvb44fZfRyKuvrquKhqINb9aN8JXWdH1fWruPDyhvjoxHHRMH1iTOjeE6/1FNvOyNFnLu3ti5++2J8PH6fhv0yN+U15q9mdm7cn7y0rs7Dr/EvSoG4ptjz/djz66Bvxw39NnvHlX8WBC+tiVmNlTL64JibvSL7lnvyYaJ4c//Wy6uRLViTbJsSEA/vjJz/siL/9v7qy4954szfe2Vt8l+SZfzO9bmV1TJ88FB3PvR3/v/Qa6XufckFcMa0y6pLrXH1pTdQd7I+1/9cv42/+R3qeg3HRzPqYfkFFVE2uian7uo+ZJ0fmWTJHXnt2b3QU4/NvuSSZWxX53Hm6Ix76h7eSb7wrXt43PiY3Jve8a3c8vqno4Dxzetz26QsinWr9nd2x8vFfxnfXFM9eUxMz6gdj0z/viteONHy+IK775MRoSB7nhHfdNiP+99+6MNsW/f2x7n++EX/9j2/HmmS+PNczLqYn87ahJrmHS+riI8c9y3/6f1wUzRckfxmTa6NpwmB0/K/iHRXHXtpyQUyuqoiJDRPi8L/tideL49L5+fvJ/Bw/FvOT0/Kr/sF4ddv+uOKyiVFXW4TkT2JXz8F45B+2xzvJb7nM/43GogIAAAAAAAAAAAAAAADgfPLNb37zG2PY2bcmZn9yRtz5x62xsCUPx/V3dMeqDVl5ROsNDdGaNVMdjC1rN8ejz/bFkUzsWz3x2Lc744Xd6UpFNP+n6XFqTXKnxoI5EyLNYfa80hkPre6OLdk5UgOx/qlt8fgrh5J6fLRePeNIF9l5LWk4OLG3N1b+sOdoaPKtPbFq5db42t++GeuLofc05YLkUoN5XVsb825pifnT89WzbkpjLL58Ql6XBmLL83kZM5tj7sz0WwxFx79vixVP7Tn6jLv7Yu0Pfxk/60y7H0+IKz85WlhwfNSO74+fPbY9ftyRvr9Ectym4foYyff86eux/Mg1kveefIfNaWPn6sqory7Fpp9si9Ubh8+zNx77h93RmWWGK6Np1vFdbUfTGK1T8w63PVt2xKPPHUnpRueGt+ORb70a9/9wOLGcmFOTf+uD/bHuu13FvEqkz7769fjGXyX3c2SevLv510+KLEtdOhDrf7QtmddHr92zsStWPLYztmRDlTH7uotH71ScHPvC6m0j3lF+7PLn+7Nmy1FdHa0jJnw6P7NuzWMxPzltaXg3DfGmYd6TOReCvgAAAAAAAAAAAAAAAACc384g7Dsh2u+dEw8fWS6LOz4zOVomVUQcTrvrvh3LHu8+GuTN1MXc5iy+GNHdGytHTSruj8c2FuHHutq49lTSvjfUx4zq5PfwQGz62f587DibftGf38uUmpibjUSUhpsG11ZF65Sifh8a5jTHPV9pjnktlREDpehNb762Lm7+vdECvzPinvR93T0zbi5G3rfpE2P+gplx31eaorUmHRiKro07jwRYW6++IA+d9vXFvz8zWkD3UPz4lwPZu047KV+TDx6jZ8vO+PEpBWJL0fPs8dfYE1veKQLQAwdiy3HB79jdH/uK5rm1tdkDvIeh7L/UhfV1owdqRxr+vtWV0dRW1O/LtJg9LQ8Z93fuiZVF1+Rj7O6ONb8snr+pLuaPNp/29idze5Tv8MyB6M6K8VF/UVZkxmp+8v69W+BX0BcAAAAAAAAAAAAAAACAsXBGnX1LB4ey5aih6HltZ6z41qvx0Oqe44K+qUkxbVJe9faM6Oh7vBHhx4bm9+74es20qrwD6ria+MQfzo4H7x5l+Z36PBw6riKyxsKJdRv7ozctqmtj/pfbYsmCqTH7dLvxzpwRd9ySd30t7dobj33ntfjG/9gTXScL/LZXRX36O3g4v/ZpqG1pGhGuTpYvXxo3X10bDWnH2cOD0fn8jnjkiaNh59lTimB1ch+/M9o7SZdP1ObdjcdXxIXZziMNRs9baWves2Vv9BYNcmsvKDoTv6ueeP7NLAYelc1T464lLbH4kxOjORsZxbP7ozPbvSqu/O3L467PT4v2luKdnI7ramNaGiZP9HTlM3M0WzoPRp5dro6mK7PijKTzc19anMn85IyNFvgV9AUAAAAAAAAAAAAAAABgrJxB2PdAPP+Xm+KrybJ0RVdsyVKOFdFw2aS4dmq2w7v6Vf/eohrNgaMh0FPo+Hphdd51NVWZ1CdbTrBhe6x8biD60w6qNVXRevW0uOPLc+LB//2yuP2GSe/dOTaqYuFn86BvDPTFkz/sjBfSLribd8RDJwn8tjZXxwVpsW8g1mUjp+FwHq4eufT3HoiO196Jld99NZb9895jAtS1WYo3MW7095Etw/sMpb15y+gUZ+L6H+yIdW/l3YJrp9RF+2cujbv+bHZ8/cuXxM1zjgvy7u6KR/9lf/SkD5Y8aPPlU2PxrW3x8J/OiiULGk4eEj7ekXsbTN53UY5mc6kI+1ZETZboPkPJ/PyHM5qfjJWRgV9BXwAAAAAAAAAAAAAAAADG0hl19j1id3es+Mn+vFNt5YRov7E5ZmcbPmADfbH6gY2x9F2XrbGy2D216anX42vf6ojVv+iLrt48RFpZXxNXzm2O//aVGe/xHA3RelEeIu755TuxNg36Dtucdtnde1zgd3LM+0geSO3s6Mp+T0f/GzuzcPXI5Wt/szWW/3BnrH+r2Gk03XtGeQ/HLX/Vcfrh47LYH6u+82rc/3hXrO8oQuHjKqJ++oUx/3Otcc8tE/PdCj3Pbo/7H3o9Vv7bvujYOxilNDhbOyFar7447vqTlpg3Jd/vXHVm85OxNBz4FfQFAAAAAAAAAAAAAAAAYCyNTdg3lXbJfeVQXk+ZFIsWHRu6PN4FtZOKajQTor5o6NvfX7T4fRedWevTxLhxUZtXp2d3X6x9siMe+ptXY+l3dsS6jlLW5bbyoslx803HdYsd6bqaaCje4KGDfXkxQs/Gznjk6X15Z9k08Pv706OtLqkP9seLT2e7nFX7BobyonJctObVh0ZPR3esfHxrfGPZxlj2RE9s6U2ftSKaPj4tFp0Q4B2I9T97M5b/7avx1TQ4+9KBvANvXV185qbJ2R7vqpheEeOj9t069rZVFvNvKAberQPw6Xq/85Mxl4Z8BX0BAAAAAAAAAAAAAAAAGEtjF/ZNbFr1VrxQdLdt+FhzLGnP66P6oqfIxNY31EVDXp7ohgnRmBWD0dN5Yoj2eFs6D8av0qK6JtrmZkPv31t7YtXjnbFpb77acNGFeTGaraU8NJqoGjd66LLn+Tdjxb/sj94snVkRlclP1ys7Y0229exa312EEifVxidm5uWHUeeGt2PFE73Rk64k36GpLRseXRqcXb011nXmQej6yRdkv+/quYHoKQK/DU35zBxNa3N1EfY9GF0vZsXYO535CQAAAAAAAAAAAAAAAACc88Y07BuxPx57ek90pcHWGB+tv9ES847psro31nYU3X8b62PxCWHg1MS4bU5tFoqNvv54fn02+O7W742OLBNcES1XNsfsbPBEDS0To/WErq/vrnQwe5jR7e6LriKL3DBrxnHPelRP94HoKR471TRr6kn3HUs9/9oXnVlItSo+9snGk4arm9smRnNRn/+G4lCW/D5FpcGieDdd8eKOPBxc2zw5Fo8WnJ7SGPM/WgS+k0mxpgi9n23vOj8BAAAAAAAAAAAAAAAAgHPeGId9E5t3xD9tPBBZBLG2LuYvODZkuuWZntiStcMdH63z2uL260d0+J0+ORb/YXNckwVhh6Lz5bfiVLK+EXti1csD+TWnTIpbv9Ic81qOdtptaGmMxV9qi/9266Xxlc/PiNZivP0Ll8fD914R93x+WrRPLwan1MW8ZJ/Zk9KVUrz5WtFCdVR7Yu3mo8+64LaWWHRVTbYl1dAyOW7+/Kz45u80Rkttcra9h6I3Dd/WJfv+7vBznkW73451W/MwaG3LtLjz1ouPPmei+appcftXroi7vnBpLPniyTvWnjsmxx1/MicevmtW3P6ZyUcCyun3vf236vN51DcQL76UDUfDjZfFg/fOjq9/acaI+VAT7TfNjLnNFdla5xtZP+D3tObZvXmIvXJCtH9u5nHfeVrccdu0aM2GSrHpubfzLsNn6MznJwAAAAAAAAAAAAAAAABwrhv7sG9i0xNvx/O7ik6oLdPithuOBm9jd3eseKInOgeSurIqrvxsS9x375x48J458fCXZ0R70/hkw1D0bt4Zjz49oh3ue+h5+o1Y/cqhLHhbe9GkWHhrWzz8Z7PjwT+bE/fd2hTtl1RFZQxGV8e+2JIdURW1Wfvg8dF0+dRY/OXk+vfMjoeXtMTCy9N9I3q3dceqDek+J7flye3x5OZSdt3K+rqYe8tlyXWTcyXPdN+tM2L+5ROidtxQ9GzdGcv/dnMsX9sXada5snFS/N7vzjhpF+Kxsv4HO2Ltm+ndVUR9S0P+nMl7Se/vrlumxpUXJe+7VIpf/nJffsC5bMr45KslaibElZ+cEXcV8yb9vldOqYg4XIot648GxJtq0kBv8tyXTD4yHx6+97JYfF1t1CZbSrv2xI+fOsU5tnlHPPIv+6M3m2C1xXcenl9TY3Z9eq3B6Hwu2e895sypGZv5CQAAAAAAAAAAAAAAAACc285K2DeiL1b+sCc602BkVETLJz4Si0Z0lI3Nb8ey73TGmtcGoncgDwVXpunFw0PR390X65/aFt/4Qfdpdkc9FOtWbY7lT/TEpu7BKKUddMdVRGXyhKWDach3T6x+/PVY9tT+fPdk/7Xffy1Z3xudvcX+lXm31/7eA7FpfWcs//6p3ENynh+8FsuT83TsHb5uvqU0UMquu+o7m+L+le9EZzLW82xHPL4h7wZc2Tg5bv2DprMc+N0fq7+3LVb8dMRzJu8lld5f52vvxMq/ey0eefbUg9VlkwbF//r1WPXS8fNmMHp37Y+1q5PnHPEcm57YGn/xo+5j5kOq1H8oOl56O5Z/e0dsykZOTc+z2+Mbf/d2rO84EP3pByzmV5SS67+1L9b8aOT8OlNjNT8BAAAAAAAAAAAAAAAAgHNZxd33v5ynJgE4Lz2wtK2oAAAAAAAAAAAAAAAAADifVFdXV5ylzr4AAAAAAAAAAAAAAAAAAMB7EfYFAAAAAAAAAAAAAAAAAIAyEfYFAAAAAAAAAAAAAAAAAIAyEfYFAAAAAAAAAAAAAAAAAIAyEfYFAAAAAAAAAAAAAAAAAIAyEfYFAAAAAAAAAAAAAAAAAIAyEfYFAAAAAAAAAAAAAAAAAIAyEfYFAAAAAAAAAAAAAAAAAIAyEfYFAAAAAAAAAAAAAAAAAIAyEfYFAAAAAAAAAAAAAAAAAIAyEfYFAAAAAAAAAAAAAAAAAIAyEfYFAAAAAAAAAAAAAAAAAIAyEfYFAAAAAAAAAAAAAAAAAIAyEfYFAAAAAAAAAAAAAAAAAIAyEfYFAAAAAAAAAAAAAAAAAIAyEfYFAAAAAAAAAAAAAAAAAIAyEfYFAAAAAAAAAAAAAAAAAIAyEfYFAAAAAAAAAAAAAAAAAIAyEfYFAAAAAAAAAAAAAAAAAIAyEfYFAAAAAAAAAAAAAAAAAIAyEfYFAAAAAAAAAAAAAAAAAIAyEfYFAAAAAAAAAAAAAAAAAIAyEfYFAAAAAAAAAAAAAAAAAIAyEfYFAAAAAAAAAAAAAAAAAIAyEfYFAAAAAAAAAAAAAAAAAIAyEfYFAAAAAAAAAAAAAAAAAIAyEfYFAAAAAAAAAAAAAAAAAIAyEfYFAAAAAAAAAAAAAAAAAIAyEfYFAAAAAAAAAAAAAAAAAIAyEfYFAAAAAAAAAAAAAAAAAIAyEfYFAAAAAAAAAAAAAAAAAIAyEfYFAAAAAAAAAAAAAAAAAIAyEfYFAAAAAAAAAAAAAAAAAIAyEfYFAAAAAAAAAAAAAAAAAIAyEfYFAAAAAAAAAAAAAAAAAIAyEfYFAAAAAAAAAAAAAAAAAIAyEfYFAAAAAAAAAAAAAAAAAIAyEfYFAAAAAAAAAAAAAAAAAIAyEfYFAAAAAAAAAAAAAAAAAIAyEfYFAAAAAAAAAAAAAAAAAIAyEfYFAAAAAAAAAAAAAAAAAIAyEfYFAAAAAAAAAAAAAAAAAIAyEfYFAAAAAAAAAAAAAAAAAIAyEfYFAAAAAAAAAAAAAAAAAIAyEfYFAAAAAAAAAAAAAAAAAIAyEfYFAAAAAAAAAAAAAAAAAIAyEfYFAAAAAAAAAAAAAAAAAIAyEfYFAAAAAAAAAAAAAAAAAIAyEfYFAAAAAAAAAAAAAAAAAIAyOf2w7y2z4uF752TLPbcUYwAAAAAAAAAAAAAAAAAAwGnT2RcAAAAAAAAAAAAAAAAAAMpE2BcAAAAAAAAAAAAAAAAAAMpE2BcAAAAAAAAAAAAAAAAAAMpE2BcAAAAAAAAAAAAAAAAAAMqk4u77Xx4q6lNzy6x4+KoJWdm1YWM89ERW5tpb4ps31kXtwf748V9ui87PXhr/23+eGE21ybbDQ9HftTv+8Udvxwu7IxrmNMWiT02OtinjozKNHJcGo6dzTzz5ZFe2fTTN182IhdfWx0eHj0n09w7EK8/uiMeeG8gHjnPCdRLZMf+rOzb25usRQ9HbuS+2jLzu9Ia4bX5jfOziqqitzIdKA6Xo2vJOrFzdE5350AhVcc0NTTE/ub+m2op8KH3m3X2x/udvxeqNh/IxgDH2wNK2ogIAAAAAAAAAAAAAAADgfFJdXV1xdsK+cSBe3BAxO9kvy8keTpYiaFvqfCf+4t8q447fnhxN6cYR21Kl7j3x6Ld2xKZiPTNlUiz63MUxd/r4YiBRSpYihJuGdbt+sT0eerKvWM81XN8Sd302vZ9CKXnUyiKIe4zB2PL0q7Fifb7WcP2lceenJ0b98PkPDyWXqzgSFi717o8nH9sea4+Eg6ti3hdnxsKZR27ouOcajI5nt8fyn/YX68C5qiL5X8RNn7qoWDs9T/18Vwyd3v9Rx4SwLwAAAAAAAAAAAAAAAMD56SyGfVND0fPazlj5k+7YsrsqWm+YEbfPTbeVore3MuprD8WLP30jHs068tbE/Ftb4uaWPMzb+dzmWPbUiE64V10aX79lYtQfHoyuje/Eqp+n50zGpzfE7Z9riiunVEQU3YTXZAekpsadd0+LluqI0u59sfpHb8a6t9Lxmpj7+Y/Ewsursqxwf3dfbHmjPzY8uzPvKDxzRtzzhTyI3L9rb6x5ames7cjvpfmqi+N3/mtDtCQP2N/RFV97vDsbj5nNcd8XJ0VDUvZ3dsc/ri66E0+pi3mfaorPzBqK5x/dFqtHdg4GzllTG6rjjt+9NC5Kfk/Frp6D8cg/bI93kt9yEPYFAAAAAAAAAAAAAAAAOD+lYd8RPXXHVs9Lb8T9PyxCuXEotjyzI57vSuvKqK+P6PzFL4ugb2og1jzeFZuKxrxN06fkxbAN2+PbP+iMR777ajy0evicibd64tF/7YvetK6uidk3ZKO5G+qjOc3pHR6If//74aBvaiDW/fCX8e/ZvST29cajTxZB38T8T03KOw7v3RePf7vzSNA31bnh7Vj+xL7oSeralsmxePg259REVh7sj3XfLYK+qd19sXb16/GNvxL0hfNJGtpNw7tpiPe9lDvoCwAAAAAAAAAAAAAAAMD57SyFfQejp2t/UQ87FGt3DQdnD0TnyM69mT2xsziksiZN2x6rc/Pe2HQksDvChr7oyjLDFVFTn43k6sdlnXvjYHIvJwRtD0XPwGBW1U6syX5z02L2tIqs6tzcFZuy6jibd0fn3rSYEM3XZiMRh4vf6spo0mATPhROJfAr6AsAAAAAAAAAAAAAAADAmTprnX1H03N4OBU7un1FADcuqIq5efX+9R6OUvpbPT4ajmsUHFEVDTXjs6p//3B34cTHa6Ih7QacaL66NR68e/Yoy6UxuwgVVw7nhJ/dHzuyi1XFlb99edz1+WnR3lKVbQLOX+8W+BX0BQAAAAAAAAAAAAAAAGAsfKBh31NWEXlX3hPURPtnZsQdX5oV9/3pcPh2WrSObM477Jl98cs0xzuuJj7xe5fE3On5cHqOuZ//aHyiKa0Ho/P1nmw0c0HF0etWJnX1SZbhtzacXd7dFY/+y/7oSQO/lZXRfPnUWHxrWzz8p7NiyYKGaM73As5DowV+BX0BAAAAAAAAAAAAAAAAGCsVd9//8lBRn5pbZsXDV03Iyq4NG+OhJ7Iy194S37yxLmpjMLY8/WqsWF+MDzty7IFY/8DWWJmPHjHv1itiYcv4iIG+WL2sI9YW42nH3GtunBELrq2LhtFTwJnj76fh+kvjzk9PjPrhY0rJo1ZWFCsR/R1dsezx7jgS932v+39PaRh5anxiTl00148/GgruS57ne8nz7C7WgfPO1IbquON3L83qcy3o+8DStqICAAAAAAAAAAAAAAAA4HxSXV1dcW529j3O7Fsujd9rz4O+pb6B2PSLd2LV6u2x7IGNsfSBrtiSdvAdRc+rffFm/1DE4aEoZV1386Bvqf9AbFrfeWzQN7VrMPqzYlxUjdYt+D0NxPqfvRnL//bV+Oq3OmL1Swfy89XVxWdumpztAZyfhjv86ugLAAAAAAAAAAAAAAAAwFg6D8K+jTHv8gmRNudNO/H+xV+/Ho88uTPWvbQ/OvMdTqIuFn9+Wsyuj+hcvyW++lAaDM6Xr/7V1njk6b3HBn1T2/qjJwsOV0Rzy9Rs6H3b3RdrV2+NdZ154+T6yRdkv8D5Kw35CvoCAAAAAAAAAAAAAAAAMJbOg7DvhKgvuuzu23tcJ95UW1XUj/oU9dHSmHbyrYjaC+uiOR98D93xfGfaAjiicsaUuK0tK080pS5mt1QVK6eoNFgUAAAAAAAAAAAAAAAAAACQOw/CvgPR259Xjc3Ncc2UvE4Dt+03tcR9v90QTdXF2DF6Y8fevGqYMyPuundOPPxns+PBu48u3/zjmXHbdUWSuLD+qb2R5X3HVcU1/9usuO36umjIN2XXnLdgZtz3lZa4Y/GlsXhmPtxw42Xx4L2z4+tfmhHzjoSAa5L7mxlzm9PAcUTnGyfElAEAAAAAAAAAAAAAAAAA+DV3HoR9e2Jtx6GsqmycFLctSUO7ybKkJRZfVxdVb3fHus6hbPux+uJnv9gfvYeTMl1S4yqisvroUjupNq65aWbcc8vEYofE7q549Ol90ZMGfmsmxDWfbYn77p0TD96TX3Ph1bXRUBnR390XL27LD2mqyTsI118yORbe2paFih++97Lk/mqjNtlS2rUnfvxU/gwAAAAAAAAAAAAAAAAAADDsPAj7Rmxa9ctY9dKB6E8DuKnkrkv9B+LFdZ2x/Htd8eLe4Q1Hzb5lVtz52YlRu3tvPPatjbH0gRHLio549Gd7ojPrGFwRTW2NMTc7Ktfz/Jtx/9/tiHVbj16zsjL5pzSUhXzX/7Qjlv33t2NTvik2PbE1/uJH3bGpezBKabB4XN7Nt9R/KDpeejuWf3vHkX0BAAAAAAAAAAAAAAAAAGBYxd33vzxaW9zz3NS48+5p0VJ9KF78/uZ4tOjAe4IbZsaDc2ujcqAvVi/riLXFMMD55IGlbUUFAAAAAAAAAAAAAAAAwPmkurq64rzo7Hv6qqOmOv2tiMr6bGBU7RdXRdqwN23f25mNAAAAAAAAAAAAAAAAAADAB+dDGvbti5296W9lzL5xVtz2yYnRnI3nGlomx6Jb2+J3ZqVR38HY8oudsSXfBAAAAAAAAAAAAAAAAAAAH5iKu+9/eaioP1zaZsQ9vz05mrLWvYVS8qiVFcVKajA6n+uMZU/tL9YBzj8PLG0rKgAAAAAAAAAAAAAAAADOJ9XV1RUf0s6+ic074qFvd8aa1waid6DIMw8HfUuD0fPm3lj9+OuCvgAAAAAAAAAAAAAAAAAAlM2Ht7MvwK8JnX0BAAAAAAAAAAAAAAAAzk8f7s6+AAAAAAAAAAAAAAAAAABwjhP2BQAAAAAAAAAAAAAAAACAMhH2BQAAAAAAAAAAAAAAAACAMhH2BQAAAAAAAAAAAAAAAACAMhH2BQAAAAAAAAAAAAAAAACAMhH2BQAAAAAAAAAAAAAAAACAMhH2BQAAAAAAAAAAAAAAAACAMhH2BQAAAAAAAAAAAAAAAACAMhH2BQAAAAAAAAAAAAAAAACAMhH2BQAAAAAAAAAAAAAAAACAMhH2BQAAAAAAAAAAAAAAAACAMhH2BQAAAAAAAAAAAAAAAACAMhH2BQAAAAAAAAAAAAAAAACAMhH2BQAAAAAAAAAAAAAAAACAMhH2BQAAAAAAAAAAAAAAAACAMhH2BQAAAAAAAAAAAAAAAACAMhH2BQAAAAAAAAAAAAAAAACAMhH2BQAAAAAAAAAAAAAAAACAMhH2BQAAAAAAAAAAAAAAAACAMhH2BQAAAAAAAAAAAAAAAACAMhH2BQAAAAAAAAAAAAAAAACAMhH2BQAAAAAAAAAAAAAAAACAMhH2BQAAAAAAAAAAAAAAAACAMhH2BQAAAAAAAAAAAAAAAACAMhH2BQAAAAAAAAAAAAAAAACAMhH2BQAAAAAAAAAAAAAAAACAMhH2BQAAAAAAAAAAAAAAAACAMhH2BQAAAAAAAAAAAAAAAACAMhH2BQAAAAAAAAAAAAAAAACAMhH2BQAAAAAAAAAAAAAAAACAMhH2BQAAAAAAAAAAAAAAAACAMhH2BQAAAAAAAAAAAAAAAACAMhH2BQAAAAAAAAAAAAAAAACAMhH2BQAAAAAAAAAAAAAAAACAMhH2BQAAAAAAAAAAAAAAAACAMhH2BQAAAAAAAAAAAAAAAACAMhH2BQAAAAAAAAAAAAAAAACAMhH2BQAAAAAAAAAAAAAAAACAMhH2BQAAAAAAAAAAAAAAAACAMhH2BQAAAAAAAAAAAAAAAACAMhH2BQAAAAAAAAAAAAAAAACAMhH2BQAAAAAAAAAAAAAAAACAMhH2BQAAAAAAAAAAAAAAAACAMhH2BQAAAAAAAAAAAAAAAACAMhH2BQAAAAAAAAAAAAAAAACAMqm4+/6Xh4r6lMy79YpY2DK+WDvO4aEoHShF5xt74+c/2Rkv7C7Gf23UxbxF06J94oFY870d8UIxCnA2PbC0ragAAAAAAAAAAAAAAAAAOJ9UV1dXnFFn39LBoSNLZlxFVNZWRcvlU+O2r7TFHddX5eO/NiZF+8dqo2lqVVxYjAAAAAAAAAAAAAAAAAAAwMmcQdj3QDz/l5viq8Wy9IGNsfQ72+PHLx2I/nRzZVXM/vRHYuGUbOdfDx+vjAuKEgAAAAAAAAAAAAAAAAAA3ssZdfY9wVv7Y83qrbFs/UCU0vXKmrjyhrps06+FhvFRW5QAAAAAAAAAAAAAAAAAAPBexjbsW+h5en90HszrCyf9+oR9GyZVRmVRAwAAAAAAAAAAAAAAAADAe6m4+/6Xh4r6lMy79YpY2DI+qQ7E+ge2xsp8+DiNseSupmitScpde2Lpt3fkwyNNmRQLb5oa1zZPiPp0v1RpMLo69sSap7rihd3F2LBbZsXDV02I2L03VqzojJ45TbHoU5Ojbcr4qEwjy+92bKH5uhmx8Nr6+OjwMYnSQCm6tu+Jn/1k54nHtbfE/3FjXVxwsD9+/Jfb4vnkmos/MzlaJ6XPn+jbH6v+entM+/Ls+ERjRGV1RT5+nP6Orvja493FWlVcc0NTzE/uo6m22P/wUPTv7ov1P38rVm88lI8BnKIHlrYVFQAAAAAAAAAAAAAAAADnk+rq6oqz0tk3ZtZGQxHg7d3TlxcjtV0cd325OebNOhr0LR1O/qkcH02zGuO2L18Wi06WXautjNmfnRl3fa4xZjeOP9pJd/jYL10a84qho6pi3hcujztvmhyt6TFZODjPOFfWVEbz5VOT42bGwpNds3pcNF3fEncubMyDvsWxMVCKdclP78HBbDV7hkLp4NCRpT9Zcsl9fHFm3Db3whFB32QZVxG1jRNj3ucuizs/W5uPA2VRkfxp/uanL3pfS3osAAAAAAAAAAAAAAAAAJyOs9DZtyrZ57Jin1JseuK1eGRDviXXGEv+tClaa5OtvX3x7890xaoNA9mWhpbGWLhgWlw5pSKie0+s+NaO2JJtSQx39j08FKVxFdH/Zk88uebtWP9Wsm1KXdx8U3N8ZlZlFv7t3bwjvvGDPdlhqdnJsbcnx6bb+jt7YvVTxXFpl90bZ8T/69q6qE839u2PlX+9Pdanm1LDnX1jMPr7x0dVaX/8bPVb8eOOQ9k1Z194MDaldeHIuxnoi9XLOmJtMX7EzOa474uToiEp+zu74x9XF12Ik3PN+1RTcv9D8fyj22L1SToTAx+MqQ3VccfvXhoXJb+nYlfPwXjkH7bHO8lvOejsCwAAAAAAAAAAAAAAAHB+GuPOvjUx+5Mz4s4/bi2CvhH9Hd2x6pigb0Tr5xqyoG8c7I+fPdZxJOib6kn2f/Tvu6Mjzcs11sf89nz8GOMq4lBHVyz/3nBgN7G7L368sjNeLEKy9S1TYn5eJqbG/I/lQd/Srj3x6HdHHBeH4oWnO2L5v/RFf7paNzHm3lSVbTnW+Kgdn97v9jzom0quOTLoe0rm1GRB3/TZ1323CPqmknOtXf16fOOvBH3hXJCGdtPwbhrifS/lDvoCAAAAAAAAAAAAAAAAcH47g7DvhGi/d048fGS5LO74zORomVQRcXgwul56O5Y93h09xd65upjbnIdpe9/YHT8eLdi6e2ds3pU2Gx4fTZdOyseOcSBePOG8qb548o0DeVldFS0fz8u4oT6as+acg/HLDSM6BY/Q8+w7sWVvXjfPvCgP5B6nZ8vO0e/3dBwufqsro0kjTjinnUrgV9AXAAAAAAAAAAAAAAAAgDN1Rp19SweHsuWooeh5bWes+Nar8dDqnlECuROjoT6v6lumx4N3zx51+cz0imyfyuq0H++p69lVyjv0RmVc2JQVMXdGddbVNw4fis712dAo+uKXewbzsn5CnNhQeDB63uor6jPw7P7oLKVFVVz525fHXZ+fFu0to3USBs4F7xb4FfQFAAAAAAAAAAAAAAAAYCycQdj3QDz/l5viq8mydEVXbMlSthXRcNmkuHZqtsMoxkfl8BUrK6Ky+iTL8D6HRwaJT8H6Q7GvKCtrit/hcx0cPLJtNC/2Fm13q8fFhfNvItgAAHqzSURBVHk19nZ3xaP/sj960sBvZWU0Xz41Ft/aFg//6axYsqAhmvO9gHPIaIFfQV8AAAAAAAAAAAAAAAAAxsoZdfY9Ynd3rPjJ/uhN68oJ0X5jc8zONpxc14aNsfSBd1++9v0TewO/q5nj4lzvk9vz7Pa4/6HXY+W/7YuOvYNRSjPGtROi9eqL464/aYl5U/L9gHPHyMCvoC8AAAAAAAAAAAAAAAAAY2lswr6pDdtj5SuH8nrKpFi0aGJeH6MUA0U+rqq6Li/GUtP4qM2Kwejtzoo8TJuqHv+uHXuvrC9excHD79oBeGwMxPqfvRnL//bV+Oq3OmL1Swcia4xcVxefuWlytgdwbhkO/Ar6AgAAAAAAAAAAAAAAADCWxi7sm9i06q14YXdeN3ysOZa05/VRu6Mra/+bbG+aHK15OWZap1cXYd9S9LyaFbFuVxFAHlcVzSfcz7C6+Ojk8XnZeyDW59UHY3dfrF29NdZ1DmWr9ZMvyH6Bc08a8hX0BQAAAAAAAAAAAAAAAGAsjWnYN2J/PPb0nugqpfX4aP2Nlpg3JdtQOBRrtg3k5ZSJMf/6qrw+QU3Mbqsp6uONj9q2ohxpyrRYcFlxvt0D8XwROo6n90VHls0bHx+9asaoAeOG66dG66S87ty2K3rysjxKg0UBAAAAAAAAAAAAAAAAAMCH3RiHfRObd8Q/bTwQWd63ti7mL2iMhmxDruepntjUl1bjo/XTM2PJTZOjOduSqon2z1wS99x1WdzxhZZROgOnKuPK326L26+vO3LehjlNseS2xmipTtcGY8vznbEl25J6J9a8kt9P5UWT4/Y/uDjap+dbIqqi9YZL485P1+Udgfv2x7qnik7A70Nn/+G8qKmJ2XPTsHJNzF3YErcVz9Fw42Xx4L2z4+tfmhHzWoaDzskz3zQz5jZXZGudb5Q1agwAAAAAAAAAAAAAAAAAwAeo4u77Xx4q6lMy79YrYmHL+KQ6EOsf2Bor8+Hj1MXir1wa7RelAdah6Fi3JZY/MyJE29YUdy5ojJa6Yj2VpXHzMlXq3R9PPrY91g536L1lVjx81YSkGIz+/vFRm6Vzk/0OJ4cdiSwPRdeGN+KhJ/YX68OqYt4XZsaCtsqjlyglj12ZB2wzAwOx7p9ej1Wbi/VUe0v8HzfWxQVpgPjpV2PF+mL8ZNouifu+cOEx4ebM7r2xYkVnVCXPcHvyDEfu4XByD+OO3kNp15549Ns7YlOxDnAqHlg6WrtzAAAAAAAAAAAAAAAAAM511dXVFWPf2TfTFyt/2BOdWXvfimj5xEdi0ZFuuonNXbH8ex2x+qWB6B0ossZpAvbwUPT3DsSL/7Yjlv/NiKDvMUrx4qOdsbbjUKSNdIeDvulxLzy1bZSgb+pQrP3Ba7H8qT2xpXswCwgPB31LA6XofO2deOw7xwV934/Nb8aqZ/uiZ6BYT5+ne3+sfWZn1ml40xNb4y9+1B2bhu+hCPqW+g9Fx0tvx3JBXwAAAAAAAAAAAAAAAACAXyun3dm3bI509n23jsIAv3509gUAAAAAAAAAAAAAAAA4P53Fzr4AAAAAAAAAAAAAAAAAAMB7EfYFAAAAAAAAAAAAAAAAAIAyEfYFAAAAAAAAAAAAAAAAAIAyEfYFAAAAAAAAAAAAAAAAAIAyqbj7/peHihqA89ADS9uKCgAAAAAAAAAAAAAAAIDzSXV1dYXOvgAAAAAAAAAAAAAAAAAAUCbCvgAAAAAAAAAAAAAAAAAAUCbCvgAAAAAAAAAAAAAAAAAAUCbCvgAAAAAAAAAAAAAAAAAAUCbCvgAAAAAAAAAAAAAAAAAAUCbCvgAAAAAAAAAAAAAAAAAAUCbCvgAAAAAAAAAAAAAAAAAAUCbCvgAAAAAAAAAAAAAAAAAAUCbCvgAAAAAAAAAAAAAAAAAAUCbCvgAAAAAAAAAAAAAAAAAAUCbCvgAAAAAAAAAAAAAAAAAAUCbCvgAAAAAAAAAAAAAAAAAAUCbCvgAAAAAAAAAAAAAAAAAAUCbCvgAAAAAAAAAAAAAAAAAAUCbCvgAAAAAAAAAAAAAAAAAAUCbCvgAAAAAAAAAAAAAAAAAAUCbCvgAAAAAAAAAAAAAAAAAAUCbCvgAAAAAAAAAAAAAAAAAAUCbCvgAAAAAAAAAAAAAAAAAAUCbCvgAAAAAAAAAAAAAAAAAAUCbCvgAAAAAAAAAAAAAAAAAAUCbCvgAAAAAAAAAAAAAAAAAAUCbCvgAAAAAAAAAAAAAAAAAAUCbCvgAAAAAAAAAAAAAAAAAAUCbCvgAAAAAAAAAAAAAAAAAAUCbCvgAAAAAAAAAAAAAAAAAAUCbCvgAAAAAAAAAAAAAAAAAAUCbCvgAAAAAAAAAAAAAAAAAAUCbCvgAAAAAAAAAAAAAAAAAAUCbCvgAAAAAAAAAAAAAAAAAAUCbCvgAAAAAAAAAAAAAAAAAAUCbCvgAAAAAAAAAAAAAAAAAAUCbCvgAAAAAAAAAAAAAAAAAAUCbCvgAAAAAAAAAAAAAAAAAAUCbCvgAAAAAAAAAAAAAAAAAAUCbCvgAAAAAAAAAAAAAAAAAAUCbCvgAAAAAAAAAAAAAAAAAAUCbCvgAAAAAAAAAAAAAAAAAAUCbCvgAAAAAAAAAAAAAAAAAAUCbCvgAAAAAAAAAAAAAAAAAAUCbCvgAAAAAAAAAAAAAAAAAAUCbCvgAAAAAAAAAAAAAAAAAAUCbCvgAAAAAAAAAAAAAAAAAAUCYVd9//8lBRn0dmxD33To6mpOrasDEeeiIfPSuuuiS+vuDCqN+9J+7/1o7oKYbPKVMaY8mXmqK1LqJ3W1cs/373mNzn7Ftmxe1XTYjK0oFY/z+2xsrNxQbgnPLA0raiAgAAAAAAAAAAAAAAAOB8Ul1dXXHaYd/FfzQn2huTYqAvVi/riLX58Mm1t8Q3b6yL2qQcu2DuBxf2vfkPZsf85orofG5zdM5sy5/9tB2I9Q9sjZXF2phbMCseunpCVGQrY3WthljypxdHa/rhEv0dXfG1x7vzFeCcIuwLAAAAAAAAAAAAAAAAcH5Kw77jiprRTLk4Zk+viDjYH5ueOhSHDg5FabTlcLF/YtTtyXKo2H5WPLsntvblZe+2PbEmL89QT6zdfCBKaVk6EC/+34K+AAAAAAAAAAAAAAAAAABjTWffd9Fwy6y476oJUXpzZ3z1e+8Uoyc68k7OdgdfgFHo7AsAAAAAAAAAAAAAAABwftLZ913VxYKPTEh+S7H5P04e9AUAAAAAAAAAAAAAAAAAgPdL2PdkPt4YrVOS376BeHFDPgQAAAAAAAAAAAAAAAAAAGOp4u77Xx4q6lOy+I/mRHtjUgz0xeplHbE2Hz659pb45o11UZuUXRs2xkNP5MPHmDIpFt40Na5tnhD1NcVYaTC6OvbEmqe64oXdxdgRM+KeeydHU1Idf87h++vZ2BH3/+hgXHPj9Jh/ZV001VZk20v9B2Lzi+/Eqqf3Rk82Mrr2xZfH4lmV0fNKcp5VfcXo6I68kzgQ6x/YGiuz0WMde1+DMXdhc9z8sQlRW5lv73x+Yyz757yOqIm5C5riN6644Mh9x+HB6O3aH2v+uTPWvZUPHdUYS+5qitbk3fV3dMXXHu8uxhO3zIqHr5oQsXtvrFjRGf3XNcfi6ydGc/34fHvxnv9pZVdsykeOSo59KDm24oTnGr7eUHQ8symWb8y/X3vL0efp7x2IV/71jXjs+UP5wDGS51s4I+a3pt+7eL7sPvbGv27sj1/lI8nrPBAvbB4oVoCTeWBpW1EBAAAAAAAAAAAAAAAAcD6prq6uKH9n37aL464vN8e8WUeDvqXDyT+V46NpVmPc9uXLYtH7yLHV1k2MhX9wWdzWPjEPzKbnTFTWTojZ7c1x5+IsnXsSU+MTH0lTq4ei4xfvHvQ9Xel9Lf7KzFj08TwYmz1rDEZ/EWhumJO8j7uSZ756REA53Wfc+KifPikW/f6sWDwzGz49ycWuTF7knTdNyoO+xfsYfs+3f2VGtBZDp64iai5uiju/lH+/LOhbnLc2+ZjX/NZlsaQ9Xz8qef4/Sp+/5kjQ9+j3bohFC5vjtuHlsw3JFeCDVZFMut/89EXva0mPBQAAAAAAAAAAAAAAAIDTUeawb2MsuaUhmmsiSr19se6J12PpAxvjq3++Me5/vCte3D0UUVMTcz97+kHU2uaGmDd9KDqe2xHLknMuzc75TmzqzRsZ189qjDuuysoTza2P5urkt6s3ntyWD42VqmmT49qLDkfnL/L7Sp912Q86Y/X6fHvrnAuz9xEDB+KFn3bE/cP7PLUvekrJeOWEuPZTU7N9T0tNXcz9WFX0v9kTK7+Tv4+lKzpjbedgtrnyokmxYG5WnpamyxujZcKheLG41/S8R+41xkfrtc3HfLvWz02P9sY0ETkYHes7jzzf/T/qjo7+fJ84WIqOrXtj3fM9cVptp2EMDCWT7vmX98Y1cybFb37qolNa0n3TY9JjAQAAAAAAAAAAAAAAAOB0vP+wb01dLLh7djz4Xsu8uqgtDjle6+caojXdeLA/fvZYR6zaMJBvSPR0dMejf98dHQeTlcb6mH9Ch9j3UHk4tqzdFsuf2hOdxVBPx8545Il90ZOtVUbbfx4tNFsVi66oTbZGdL7RXew7diprx8e+Vzpj2ZNH76tz8/4j9fofbI9HVm+PZcu2xmPP9h25fudzb8aajixBG5XT6uPmrDodQ9H1Umcs/97bsf6tYmj33lj93d35O46KmNbybt2OT6K/L378d5vj0ePudeWWQ/nKlJq4dkpeRtTF3OaqrOrd2hXLn9575Jiejcn6T/ZHb7pSPRhdKztj1XNH5wN8kN7pORiP/MP22JX8vpd0n3Tf9BgAAAAAAAAAAAAAAAAAOF1n1Nm3srrivZc0NTuqEcHPN3bHj3dn5bF274zNu9JWmeOj6dJJ+dip6u6NFc8WgdORtu2MLd15WTnlgrgmL4+a0hgfvSj5PdgfLz41yvFnKjnv+lX7i5XRDMSml46Gf0dav/1AZM1vq8fFhdnI6TgYHauPhmuP2pk2MM7UTpyQF6ehf+f+WDMcHh5hS+fB/F6jMhrasiJRE7XFJX7VtycvRtpQil9lRXLMdVkBZXMqgV9BXwAAAAAAAAAAAAAAAADO1PsP+w70xeoHNsbS91qe7itCn8ebGA31eVXfMn30rsDJ8pnpFdk+ldUnTQ2fpkPRtX8wL2sr45K8OqL1hvpoTt5KaWdvrCnGxlTvgXi6KE/b4eL3vDUQ/Qfy6oK6yXkx0lWVcUFWlKLnuayAsnq3wK+gLwAAAAAAAAAAAAAAAABj4Yw6+56Z8VE5fPXKUToCDy/D+xxOO/yOjbV7S3kxriJq86ow3G24FJv/4518qFymT46bF1wad36lLb45HH6eV3fc/Z5v+mJdR572rZ/VFHfeOCkasrWIhjnJ+n+dGFn+u7s/ns9GofxGC/wK+gIAAAAAAAAAAAAAAAAwVsoY9j2qa8MoHYGPW772/Z5i7zPXWn2Sx76qMT46KfntG4jnN+RDH7gpk2LhrW3x4JdnxPyrJ0bLRVVROxx8HqvmxmW05YmuWNeVdlYeHy3tzXHfvXPiwT+bE/d9rjFa0iRz6UCs/+mO2JLtDeeGkYFfQV8AAAAAAAAAAAAAAAAAxlIZw76lGCiyclXVdXnxAWmuLR57oBRdeZWZ9/HarLNsT0d3vJAPfcAmxuLfnRHzWqqiMoai9639sf7f3o7HfvB6Hnp+ui/6iz3PX/vjlTcO5c9Ryrs1Z92bS4PJ8+6NVX+3NVZuzobhnDIc+BX0BQAAAAAAAAAAAAAAAGAslTHsuzu6evOqoWlytOblB6AuPjp5fF72HYoX8yoxNa6ano4fiC3P9OVDH7T2xriysSIpBmPLT7fEN76zPVb+rCde2DyQb/8waG+J//d1NVHbuy8eeWjT0e7ND72aPG9nrHur2A/OQWnIV9AXAAAAAAAAAAAAAAAAgLFUxrDvoVizrQixTpkY86+vyusT1MTstpqiPg3V42J2UY7UcMO0mD0pr3u69kZPXkbceGG0VCe/XX2xZnc+9IG7qDJqs6IUPc8eyqqRZk+pjJO9pfNF+0cnxAVpUVUVLS3n+9MAAAAAAAAAAAAAAAAAAJyZMoZ9I3qe6olNWRPd8dH66Zmx5KbJ0ZxtSdVE+2cuiXvuuizu+EJLLGkvhk9V/YVx+5JLYt6RQGlVXHNjS9z5idqoTFf7+2Ldj4Y7+FbFopY0UDwUHVvePhoA/qB1laI/K6qjZeGkaMjqiIaWybHo1ra4/eoJ+b2fx9Z3HoosxlxTG/OTZ3r43jnx4N2zjy53XR73LG6Ka6ZkuwMAAAAAAAAAAAAAAAAAfKiVNewbsSceebI7OtLMbWVltF43I+66d048fE+y3HtZLP7khdFUE1Hq7Y9Nm/MjTtnAYByacmEsTAOlfzY7OV9b3NZeF/VpWrZ0INY/0RFr8z0jZk6L2U3J78GB2PRMPlQWz3XHlr1pURFNH2+O+9J38Wdz4r5bZ8Tcj1RE5/qe6DiY7Xn+2tgT67sG8/pw/lNZXXF0qamMplmNcdvtLTFP4BcAAAAAAAAAAAAAAAAA+JArc9g3sbkrln+vI1a/NBC9A0P5WBrIPTwU/b0D8eK/7Yjlf7M91u7ON52yvt5Y9qM0PDuYPGVFPnZ4MHrf2hur/m5rrBwRHm696oKsi27vG7tjTT5UJvvj0f/z7Xhh12CUiiBs2m24f9e+WLN6Wyz/aW/0DDcjPh9NaYwlX2qOuU0RW555PZb++cZY+sDRZdkP3o41Ww9FKd23ti7ar8+OAgAAAAAAAAAAAAAAAAD40Kq4+/6Xi4Tth8PiP5oT7Y1J0b0nln5rRz74ribHHX8yI2bXlWLTE6/FIxuKYcZc6+faYsmcqih1vhNf/e7OYvR4dXH7H7fElZMiujZsjIeeKIaBk3pgaVtRAQAAAAAAAAAAAAAAAHA+qa6urih/Z99yu2RCxL6+eGFdV6wS9D2rmuvy6VZZOS7rpDyqKfXRUJ8WQzGwJxsBAAAAAAAAAAAAAAAAAPjQEvZ9syse+U5HPPbM3ugphjg71r51KEpp0TQl7rz14mhvqcrGczUx+5PNcc+XG6I5mZWl7r2xZl2xCQAAAAAAAAAAAAAAAADgQ0rYlw/OT9+IJ7elcd+KqG9piMW3tsXD986JB++Zk/xeFnd8ZlI01USUevfHk/+wIzblRwEAAAAAAAAAAAAAAAAAfGgJ+/IBOhRrv/9aLHtqT2zpHoxS1uY3orIy+efwUPT3HohNz+2I5X+zPdbuzrcBAAAAAAAAAADA/5+9ew+us7wPPP6TdbFk+SrZFtjGWgUbYwMGJ9TAOoSUS7MM8QTa4AmwGzohwzAdyJZCkoa0JZmkQAM03YZh2UzIFlLCLKQFxmUgJYE4lAKOuWMcfIkw2MayLfluSZYs7XnPeeULMcYXwWPB5zPz5jzvc55z3ve8FvnvOw8AAAAAfJiVXXPDwt58DMAAdOO1k/MRAAAAAAAAAAAAAAAAAANJVVVVmZ19AQAAAAAAAAAAAAAAAAAgEbEvAAAAAAAAAAAAAAAAAAAkIvYFAAAAAAAAAAAAAAAAAIBExL4AAAAAAAAAAAAAAAAAAJCI2BcAAAAAAAAAAAAAAAAAABIR+wIAAAAAAAAAAAAAAAAAQCJiXwAAAAAAAAAAAAAAAAAASETsCwAAAAAAAAAAAAAAAAAAiYh9AQAAAAAAAAAAAAAAAAAgEbEvAAAAAAAAAAAAAAAAAAAkIvYFAAAAAAAAAAAAAAAAAIBExL4AAAAAAAAAAAAAAAAAAJCI2BcAAAAAAAAAAAAAAAAAABIR+wIAAAAAAAAAAAAAAAAAQCJiXwAAAAAAAAAAAAAAAAAASETsCwAAAAAAAAAAAAAAAAAAiYh9AQAAAAAAAAAAAAAAAAAgEbEvAAAAAAAAAAAAAAAAAAAkIvYFAAAAAAAAAAAAAAAAAIBExL4AAAAAAAAAAAAAAAAAAJCI2BcAAAAAAAAAAAAAAAAAABIR+wIAAAAAAAAAAAAAAAAAQCJiXwAAAAAAAAAAAAAAAAAASETsCwAAAAAAAAAAAAAAAAAAiYh9AQAAAAAAAAAAAAAAAAAgEbEvAAAAAAAAAAAAAAAAAAAkIvYFAAAAAAAAAAAAAAAAAIBExL4AAAAAAAAAAAAAAAAAAJCI2BcAAAAAAAAAAAAAAAAAABIR+wIAAAAAAAAAAAAAAAAAQCJiXwAAAAAAAAAAAAAAAAAASETsCwAAAAAAAAAAAAAAAAAAiYh9AQAAAAAAAAAAAAAAAAAgEbEvAAAAAAAAAAAAAAAAAAAkIvYFAAAAAAAAAAAAAAAAAIBExL4AAAAAAAAAAAAAAAAAAJCI2BcAAAAAAAAAAAAAAAAAABIR+wIAAAAAAAAAAAAAAAAAQCJiXwAAAAAAAAAAAAAAAAAASETsCwAAAAAAAAAAAAAAAAAAiYh9AQAAAAAAAAAAAAAAAAAgEbEvAAAAAAAAAAAAAAAAAAAkIvYFAAAAAAAAAAAAAAAAAIBExL4AAAAAAAAAAAAAAAAAAJCI2PddTD3v6LjpG9Pilq8eHXMm55MAAAAAAAAAAAAAAAAAANCPDjj2nXP5tLilL4JtyicPxPSJ8TfZ57Pj8nH5ZP+YeU5jXP3lCXF2fn7w6uKMyYOjIhtWDI4T/qC+OAsAAAAAAAAAAAAAAAAAAP3p4Hf2rRgcHz99bNTlp/unNuacOjSG52f9qz4+fnxtjB8z+ADvaW/aYt6SzujOht2d8cpvWouzAAAAAAAAAAAAAAAAAADQnw4+9i2oGD8yLpien+yPmaPjhPdtk9yKqKnKh/1g0cPL4i9vfC2uvXlZ3LcknwQAAAAAAAAAAAAAAAAAgH50SLFvFthOPXVcTMrP9m1oXHpybdTkZ/2uqTJqDvHXAAAAAAAAAAAAAAAAAADAB+mg89ju9h2lQf2IOPdTlaXxPtSdNTamjshGvdG2Mf9sf2oof/9CYgAAAAAAAAAAAAAAAAAAeB+UXXPDwt58vF/mXD4tZtZHtC9vizdG18XU2sLk1i1x3z++GfNLS/ZiZFz2lXGlta0b4hdbhsXZjeXF8bU/XFVasofKmHHWkXH21JpoGFZYl+npjfb1W2P+f7wdc1/rKs0VzPr85JjdWBEVVWX5zDvsfo2ZjfGds2qjZnt7PHprczw/rSHmfHpkTBqRX6PwOx4o/I6nsvF5R8ct0wcXBp0x/8ZlcV82t4dd91hfWx4VWTad3ePWzvjtM6vingUdpWW5umljY/Z/HRVT6/O1Bd3tnbHklXXxwC83RltpCuCA3Xjt5HwEAAAAAAAAAAAAAAAAwEBSVVVVdtA7+0Z0xQMvtkd3NqwdGmecl5W8ezfpvPpS6Bs7YumLq6K9OPtuhsYFX/pYXDJz6K7QN7vIoLKoqS9c53Mfi6vPGVqaL2jp7Cm+dhdvpKR7e+9uR+n9PVQNioZTG+Oq2fWl0Lc77507ukuh73va8x6L8W72Hdk9DquOGed8LK7/Qn3UlRZHXfFao+OEMX1RcGm+omZwTJ05Pq7+YkM0lqaAxMrKIv7o9DEHdWSfBQAAAAAAAAAAAAAAAIADcQg7+7bEX/+0o3DeWDyP7e3xix83x6PrS+t2GjU2rvrS6GisiuhuaY3v/bglTrh4Ssx+l519z/hC4b2mLMDtjqUvrom5j22Ildkbo2rjjDPHxbnHVEZFT2fMv29Z3Ndc/EjJe+7EW9C3s2/siPb28qjs3hK/mvt2PLq8q/j9U4dvj0XZOLOP79t5j9Ebm5evj0eeWB3z387eqY6Z5zTE2ScNia7X3oqbH95SmKuNS65ojBmjCsP29pj37yvynYkrY9KpY2P2yUOje9Hv4ge/3LVbMZDW6LqquOzCiTGm8Lo/1rZtjzvvfzPWFV5TsLMvAAAAAAAAAAAAAAAAwMB0iDv7ZrbGfc9sic3ZsKomPv7pXTvu9pl51shi6JvtBLzoyZZoK86+i6bxMSuPaJc/2xx39IW+mfVbY96/vBG/WpntoDs4TjgtK4wPVnnUlLfHr+55sxT6ZgrfvzP03Zed95gFz2viBz/tC30zHTH/seVxw82L8tA3MyLGZaFv9pueb85D30xXLH1mZXz/tteFvnCYyaLdLN7NIt73kjr0BQAAAAAAAAAAAAAAAGBgO8TYt+Dlt+PZLMAtqJs0NmYXw9bcqCNi1tEVxWH78ra4a0lx+K4mnTQk6rLB1q3x7K/3FsB2xaNvdER3YVQzujZmlCYPStvSNb+/C/F+2HmPWaz7dOu+4+U9lMWw+t+PoYHD0/4Ev0JfAAAAAAAAAAAAAAAAAA7Voce+WYD75MZo6SkMK6pj5rm7dtw949wRMT67QndHzH+ktTS5D1NHVZYGNbXxx9dMjZv2dpxSE8V8uLwshhcXH4wd0fb21nx8YHbeY/v2WNpcGu7b2vhtSx5DH3tUXP+nE+K/nVSbB8PA4Wxfwa/QFwAAAAAAAAAAAAAAAID+0A+xb0Hzqpi3LNtvN6KmsS4unVwYTJ4QsxrLi3PZLrpz92MX3ZrSJsCFuyqLiqp3OfrW9EZxh98P2s573NYVT+XDfeuKuQ+siUUbs+C3LIYdOTzOPrcxrvv6lPjqxeNi1pGlVcDhaW/Br9AXAAAAAAAAAAAAAAAAgP7SP7FvwfyftcbSjmxUGVNPPyJmnzastHttx9Z46oEt2Wj/tW6Ia298bd/HPyzfz9j2MLC+Ne68fVF8/+F18cqKrmjPKuVB5dHQODIu+OIxccWp+W7BwGFp9+BX6AsAAAAAAAAAAAAAAABAf+q32DeiNe57uaO4225Fw6iYdWRZcbZl8bqYVxy9t00d2e63BRWDYlJpdNgphrqZIZUxKx/ur5Uvr4m7frIk/vrmJXHHExujJYujB1XEpJlHxszSEuAw1Rf8Cn0BAAAAAAAAAAAAAAAA6E/9GPtGtP1yTSzamI3Ksl43YuuWmPfw1mxiv8xvzQO6ETVxSlNpeLhZtL6rNKipikkHfY9dsfSZlXHzc+3FODpqK+O/FOeBw1kW+Qp9AQAAAAAAAAAAAAAAAOhP/Rr7RmyJuxZsjfbiuDeWv/h2zC+O90/bf26NlT3ZqDKOPa0+6oqzv2/85KExPh9/0Ja+uC3aiqPKmPQu91jXODQmjcpP9kdPb/7MAAAAAAAAAAAAAAAAAAD4KOnn2Ldg/vK442cr454H3ox7fp3vgru/1q+Op5YV97qNmsaxcdXFR8TMI4unReOnj41Lvzwlrv78xLjiC/X5bG5zT2mX3KiKxtkjoi4qY8ZZE+Oys2qLs/2meU08tXxHcVi6x4aY0Rf2jqqNM2YfHVd/YWJ8+cJxMbU41xBXf3Va3HRlU8w5tXZnHDx++hFx1cdroiI7WbstnirOAgAAAAAAAAAAAAAAAADwUdL/sW/ByiUb44Xfbs13wD0w83+2KuatyLLdshjWWBdz/nRa3PL1qXHLN6bF1eeNjhPGlEd0d8cbb2wqfaDPK1tj5fZsUBYNx4+P674xOS6ZOTSmnjQ2zi4u6C9dMe+R1fFCa29hnN1jfVxyReEev1o4rmiM2ccPjppBvbFpbUe0ZMtHlxeD3ophNTHzDxsL9zUtbvp69lvqorGm8EZ3Z8x/cvVBPSsAAAAAAAAAAAAAAAAAAAa29yX2PTRbYu5PmuOOJzbGys07orunMDWorPhOd0d3rFy8Lu7758Vx5zPv2DV4/Zq4p/CZlvYswi1p39wRL8x7O36Rn/eb9Rvjnh82xwOvdsTmjvx6WdHbvSM2r90STz3cHDc80FYKeJesipt/tDLmLeuM9tLWw1GRPfXC2rYVG+OBf14W9y0pzQMAAAAAAAAAAAAAAAAA8NFSds0NC3fVsQAMODdeOzkfAQAAAAAAAAAAAAAAADCQVFVVlR2GO/sCAAAAAAAAAAAAAAAAAMBHg9gXAAAAAAAAAAAAAAAAAAASEfsCAAAAAAAAAAAAAAAAAEAiYl8AAAAAAAAAAAAAAAAAAEhE7AsAAAAAAAAAAAAAAAAAAImIfQEAAAAAAAAAAAAAAAAAIBGxLwAAAAAAAAAAAAAAAAAAJCL2BQAAAAAAAAAAAAAAAACARMS+AAAAAAAAAAAAAAAAAACQiNgXAAAAAAAAAAAAAAAAAAASEfsCAAAAAAAAAAAAAAAAAEAiYl8AAAAAAAAAAAAAAAAAAEhE7AsAAAAAAAAAAAAAAAAAAImIfQEAAAAAAAAAAAAAAAAAIBGxLwAAAAAAAAAAAAAAAAAAJCL2BQAAAAAAAAAAAAAAAACARMS+AAAAAAAAAAAAAAAAAACQiNgXAAAAAAAAAAAAAAAAAAASEfsCAAAAAAAAAAAAAAAAAEAiYl8AAAAAAAAAAAAAAAAAAEhE7AsAAAAAAAAAAAAAAAAAAImIfQEAAAAAAAAAAAAAAAAAIBGxLwAAAAAAAAAAAAAAAAAAJCL2BQAAAAAAAAAAAAAAAACARMS+AAAAAAAAAAAAAAAAAACQiNgXAAAAAAAAAAAAAAAAAAASEfsCAAAAAAAAAAAAAAAAAEAiYl8AAAAAAAAAAAAAAAAAAEhE7AsAAAAAAAAAAAAAAAAAAImIfQEAAAAAAAAAAAAAAAAAIBGxLwAAAAAAAAAAAAAAAAAAJCL2BQAAAAAAAAAAAAAAAACARMS+AAAAAAAAAAAAAAAAAACQiNgXAAAAAAAAAAAAAAAAAAASEfsCAAAAAAAAAAAAAAAAAEAiYl8AAAAAAAAAAAAAAAAAAEhE7AsAAAAAAAAAAAAAAAAAAImIfQEAAAAAAAAAAAAAAAAAIBGxLwAAAAAAAAAAAAAAAAAAJCL2BQAAAAAAAAAAAAAAAACARMS+AAAAAAAAAAAAAAAAAACQiNgXAAAAAAAAAAAAAAAAAAASEfsCAAAAAAAAAAAAAAAAAEAiYl8AAAAAAAAAAAAAAAAAAEhE7AsAAAAAAAAAAAAAAAAAAImIfQEAAAAAAAAAAAAAAAAAIBGxLwAAAAAAAAAAAAAAAAAAJCL2BQAAAAAAAAAAAAAAAACARMS+AAAAAAAAAAAAAAAAAACQyAca+865fFrc8o3Ccfm4fAYAAAAAAAAAAAAAAAAAAD66yq65YWFvPt6nLNSdWZ+fHJDOmH/jsrivMNr5Ha0b4tofriq+C8ChufHayfkIAAAAAAAAAAAAAAAAgIGkqqqqbL939u3a3hvdezt68gUFe32/cHTl7wMAAAAAAAAAAAAAAAAAALvs986+72bXjr+7dvB9N3b2Beh/dvYFAAAAAAAAAAAAAAAAGJgOaGdfAAAAAAAAAAAAAAAAAACgf4l9AQAAAAAAAAAAAAAAAAAgkbJrbljYm48PypzLp8XM+mzUGfNvXBb3FWf3bufa1g1x7Q/bYtbscXH2pOoYVl16v7u9M5a81BJ3PrGlNPF7KmPGWUfG2VNromFYeWmqpzfa12+N+f/xdsx9ras012dmY3znrNqo2d4ej97aHCv/cGJ89sSh0VBTeC/7XMv6+NeHVscL6yPqpjXEBZ8cGZNHlUdFlkB374i2lRvikUdaiu/v1ZF1ccnZ9XHsEZVRU1Ga6u7ojpal6+K+uW2xsjS1m8L9f6ohzv74sMI9lJWm9nX/APvhxmsn5yMAAAAAAAAAAAAAAAAABpKqqqqyNLHv+i3xStTGCaP6gtfCsXOP4d5oefHNuPmRrfl5n6FxwZfGx6yGPPLNdBeOPLKN2BErF6yM7z+2WyjcF/sW7u2VlyOmTh9cWr7b9bpXrovvPV0Rl50/MhqyN/e4l8L7rRvirh+uikX5eZ+6UyfGVacPjWF91+/pLdxOWSkULujevCUeuefNmLczFK6MM77QFLObdt7wO661I5Y/82b84In2/BxIoazwf0vnfHJMfnZgHvuPtdF7SP+PenDEvgAAAAAAAAAAAAAAAAADU7rYN9PTHcufXxP/+tiG4g642c66l/xRfTRmu+7mO/H+oriw5IwvTInZTeUR3d2x9MU1MTf/XIyqjTPOHBfnHlMZFT2Fe7ivcA/NxY/sFvtmeqNt8Zq47/HWWLq+MiZ9alxcOit7rzs2b66IYTVd8coTb8VdCzoKa6vj7Isb4781lsLilQuWxPcf223X3aZx8dXPl+Lg9rUb4xePrYl5y0vvj59+RPzxmXXF39G+vCX++qetxfloGh/XfWFE1BWG7Stb41/n5jsGZ/f/yYb49NG98fxdzTH33XYRBj4wo+uq4rILJ8aYwuv+WNu2Pe68/81YV3hNQewLAAAAAAAAAAAAAAAAMDBlse9ue9h+gLo744W5zfGDvmC3oO21lvjB8+3FzXoLdxaTZhanS5rGx6ws9I3eWP5sc9yx2+di/daY9y9vxK9W9kYMGhwnnNZXE++p7dW34oZ/yULf7Kwrlv56VTzfko0rYtiwiJUvvpGHvpmO+MVPW2JRvrlww5GjSoPc2Z8cUdoFeOOm+OmPVu4MfTMrX14dP3h4U7QVxjWNI2NO30enVRdD3yxkfuruPPTNZPc/93fx7X8Q+sLhIot2s3g3i3jfS+rQFwAAAAAAAAAAAAAAAICBLU3su7E97nltt51y+/y6M0r74JbHsDHFQdGkk4aUQtmtW+PZX+/lc9EVj77RUQyFa0bXxozS5G52RFvLlnzcpyvmre37rs5YufvOvUUbYk3+kYrqrOztMzamji0rjlYuaYlFxdE7LFkfKzdmg8Ex/uPFmYie/LWqIhpswgmHvf0JfoW+AAAAAAAAAAAAAAAAAByqNLHvAZo6qrI0qKmNP75maty0t+OUmigmueVlMby4+L219fQVuHu3qWNHaTCkMmaVRhHHV0ddVWk4/qRJe7+XaybG1GGlNRXVpdd4ZkusLG5bXBknnH9MXP0nY2NmY/67gMPSvoJfoS8AAAAAAAAAAAAAAAAA/WFAxL41fRvrDiqLiqp3OfrW9EZxh99+VRalkDgzpHCtfBgV77iH3Y++J9vXE69vibue3BJt2c0Vbnb8MaNjzsWT45Y/PzquOLcuxpdWAYeZvQW/Ql8AAAAAAAAAAAAAAAAA+kvZNTcs7M3HB2XO5dNiZn026oz5Ny6L+4qze7dzbeuGuPaHq0qTexgXX/3GyGgojFpefi1ufrg0+96fexczG+M7Z9VGTeyIpb98Pe6Yn8/3Oe/ouGX64MJg7/d+xsVTYnZjeUTH1pj7/eUxL5t8r+98T9Ux89Oj45RptTF+WPmuKHhr4Ro/KVxjfX4OHFZG11XFZRdOLI4Pt9D3xmsn5yMAAAAAAAAAAAAAAAAABpKqqqqyAbGz76aOvEeuGBSTSqN01u6I9uJgUFRWFwcHqCPm/2pF/OD21+Mvf7g85r7aWfq+2tr49DkjiyuAw0/fDr929AUAAAAAAAAAAAAAAACgPw2I2Hd+ax7WjaiJU5pKw2Sa26OtIxuUxfjG0cWpg7Z+a8ybuyyeWlmKmYeNHFJ8BQ5PWeQr9AUAAAAAAAAAAAAAAACgPw2I2LftP7fGyp5sVBnHnlYfdcXZ3zd+8tAYn4/fP63x/Mru4qhi3Ki4ZHJx+PtG1cbUxsr8ZD9178gHAAAAAAAAAAAAAAAAAAB8FAyI2DfWr46nlpUC25rGsXHVxUfEzCOLp0Xjp4+NS788Ja7+/MS44gv1+ez7Z/5jG6PY+w6qjBmfPTouObV2V4A8qjbOOLcprvtyY1w2Z2LMyXcirjvrY3HTN6bG9f9jXJyxMwKujpnnNMWs8WXFs5VvtRVfAQAAAAAAAAAAAAAAAAD4aBgYsW/B/J+tinkrssK2LIY11sWcP50Wt3x9atzyjWlx9Xmj44Qx5RHd3fHGG5tKH3g/rW+Ju365Kdqy26keHDP+sDGuK9zHTV8t3NMVjTH7pJqoq4hob90arzSXPtJQnQW9hXufMDJmXzw5v/ePxZyTa6Km8E732g3x6GNdxbUAAAAAAAAAAAAAAAAAAHw0DJjYN2JLzP1Jc9zxxMZYuXlHdPcUpgaVdsTt7uiOlYvXxX3/vDjufOaDCWbbnl8RN/zzqnhqWWe0lzYdjoqKwv909xYj3/lPLI/v/3h1LCq9FYseXhbfe6g1FrW+497bu2L5q6vjBz9atXMtAAAAAAAAAAAAAAAAAAAfDWXX3LCwNx8DMADdeO3kfAQAAAAAAAAAAAAAAADAQFJVVVU2gHb2BQAAAAAAAAAAAAAAAACADxexLwAAAAAAAAAAAAAAAAAAJCL2BQAAAAAAAAAAAAAAAACARMS+AAAAAAAAAAAAAAAAAACQiNgXAAAAAAAAAAAAAAAAAAASEfsCAAAAAAAAAAAAAAAAAEAiYl8AAAAAAAAAAAAAAAAAAEhE7AsAAAAAAAAAAAAAAAAAAImIfQEAAAAAAAAAAAAAAAAAIBGxLwAAAAAAAAAAAAAAAAAAJCL2BQAAAAAAAAAAAAAAAACARMS+AAAAAAAAAAAAAAAAAACQiNgXAAAAAAAAAAAAAAAAAAASEfsCAAAAAAAAAAAAAAAAAEAiYl8AAAAAAAAAAAAAAAAAAEhE7AsAAAAAAAAAAAAAAAAAAImIfQEAAAAAAAAAAAAAAAAAIBGxLwAAAAAAAAAAAAAAAAAAJCL2BQAAAAAAAAAAAAAAAACARMS+AAAAAAAAAAAAAAAAAACQiNgXAAAAAAAAAAAAAAAAAAASEfsCAAAAAAAAAAAAAAAAAEAiYl8AAAAAAAAAAAAAAAAAAEhE7AsAAAAAAAAAAAAAAAAAAImUXXX9gt58DMAAdOs3p+cjAAAAAAAAAAAAAAAAAAaSqqqqMjv7AgAAAAAAAAAAAAAAAABAImJfAAAAAAAAAAAAAAAAAABIROwLAAAAAAAAAAAAAAAAAACJiH0BAAAAAAAAAAAAAAAAACARsS8AAAAAAAAAAAAAAAAAACQi9gUAAAAAAAAAAAAAAAAAgETEvgAAAAAAAAAAAAAAAAAAkIjYFwAAAAAAAAAAAAAAAAAAEhH7AgAAAAAAAAAAAAAAAABAImJfAAAAAAAAAAAAAAAAAABIROwLAAAAAAAAAAAAAAAAAACJiH0BAAAAAAAAAAAAAAAAACARsS8AAAAAAAAAAAAAAAAAACQi9gUAAAAAAAAAAAAAAAAAgETEvgAAAAAAAAAAAAAAAAAAkIjYFwAAAAAAAAAAAAAAAAAAEhH7AgAAAAAAAAAAAAAAAABAImJfAAAAAAAAAAAAAAAAAABIROwLAAAAAAAAAAAAAAAAAACJiH0BAAAAAAAAAAAAAAAAACARsS8AAAAAAAAAAAAAAAAAACQi9gUAAAAAAAAAAAAAAAAAgETEvgAAAAAAAAAAAAAAAAAAkIjYFwAAAAAAAAAAAAAAAAAAEhH7AgAAAAAAAAAAAAAAAABAImJfAAAAAAAAAAAAAAAAAABIROwLAAAAAAAAAAAAAAAAAACJiH0BAAAAAAAAAAAAAAAAACARsS8AAAAAAAAAAAAAAAAAACQi9gUAAAAAAAAAAAAAAAAAgETEvgAAAAAAAAAAAAAAAAAAkIjYFwAAAAAAAAAAAAAAAAAAEhH7AgAAAAAAAAAAAAAAAABAImJfAAAAAAAAAAAAAAAAAABIROwLAAAAAAAAAAAAAAAAAACJiH0BAAAAAAAAAAAAAAAAACARsS8AAAAAAAAAAAAAAAAAACQi9gUAAAAAAAAAAAAAAAAAgETEvgAAAAAAAAAAAAAAAAAAkIjYFwAAAAAAAAAAAAAAAAAAEhH7AgAAAAAAAAAAAAAAAABAImJfAAAAAAAAAAAAAAAAAABIROwLAAAAAAAAAAAAAAAAAACJiH0BAAAAAAAAAAAAAAAAACARsS8AAAAAAAAAAAAAAAAAACQi9gUAAAAAAAAAAAAAAAAAgETEvgAAAAAAAAAAAAAAAAAAkIjYFwAAAAAAAAAAAAAAAAAAEhH7AgAAAAAAAAAAAAAAAABAImJfAAAAAAAAAAAAAAAAAABIROwLAAAAAAAAAAAAAAAAAACJiH0BAAAAAAAAAAAAAAAAACCRsquuX9Cbjw87Z156UpzfVB4tLzwXf/tQPskHa9yYuOicsXHSUdVRU5HPrV4bX7njzfzkw2fa546Ly2ZUR6xZF3fevjxey+fhcHXrN6fnIwAAAAAAAAAAAAAAAAAGkqqqqrIPJPa96MpPxGmj85P9sW5dfOW25R+x2HdwHDPriPijE0fEUXWVu8Lagq6OrmhpXhdPPrkqnl6VT34QpkyMr10wJiZUF8bdO6K1rSu6oyc2Nq+N2x5ZV1ozUM1ojKtPq4iFty+Lf8+n+uz6e+2Ip7+9MO49bHN4KBH7AgAAAAAAAAAAAAAAAAxMWew7KB+/r1rXdkTLmj2P1m35m9s6f++9lrXb8zc/IsYdGVf8+bS48pzRcczYyqjYvvsz6YzuqsqYMPXIuOjLJ8XV59TmH3r//dGs+mLo27V6bdzx3Rfj27cvjL+9fdHAD30Lzpw+KprGVkd9fr675xZujk3be2JT8/p4TugLAAAAAAAAAAAAAAAAALyPPpCdffemb9fe9uYV8fW7WvLZPX0kdvata4grvzwhjhkS0bVpczz52PJ48JXO/M0+Q+L0C5ris01d8fN/WhyPt+XT76vCff1l4b6qO+Oln7wady7Lpz8kLvqzT8RpYzvi6W8tjHvzORio7OwLAAAAAAAAAAAAAAAAMDB9YDv78m4Gx/lzxhVD39i2OR7+p8V7CX0z2+LJBxbG1//+gwp9M9Uxojp77Y1tH7LQN2JM1A/NhwAAAAAAAAAAAAAAAAAACQ2QnX1fjZ93HBWfOXFYNAwp9cld2zripSeWxt2/eUccWzcmLpw9Nk4+qjpqKkpT2dolL70d9/+8LVpLUxGfOy7+cUZ1tDxX+O7tjXHeJ4ZFfVVhvmdHrPhNc3zvkY0x4ZSmuPSMkf13zXeaMSm++7kRMTy64rWHXo47Xsjn91u2429jfGZKdQyvzrvt7h3RumpjPP5oczy5qjRVtPP3Phd3rWmKi2eNiAnDy0vvdXTG4ufeitse21g8vejKT8Rpo4vDfVu3Lr5y2/L8pGDcmPjiZ4+M446ojJq9ZuQ7YvHPX4zb4pj4u88Mi5qOzfHgTYvj8fzdkr4dhfO1T+8217M57v/Rujji/Alx8oT8Gls2xr23LI1sWf0JE+LCM0bH5LryqMyv375uYzz92NJ48PXS+YWXz4hTjxi08/1ddrte/qyy3/c/C79v9/9Asr+J7Nk1DM2v0dMT7ZvaY+HTb8bdz24rLSpqjG9+a3Q0rCk8owe37flcCn9jrcvXxf13rYjXSovhkNjZFwAAAAAAAAAAAAAAAGBgGjA7+w6fPCW+eNqwqNm2PVrWdETLlp6oHFIdJ39mUlw0JV+UmTIxvnb5xDi9qToqthXWZWsLR3tVdUw7rTGu+NyIfOEudVOmxEWnDInYkK3tjPYojwmnFNaee0xcdW5d1PW845rnTY7LDvGafU4+dkgMzwZbtsWCAw196xriir+YEheeWPiOQTt2Xrd1e3nUT6yLC7903J7PJjd88vFxdeF31fd0lT6zYUdE9eA4ZlZTXDlrcHHNS69siOY1XdFVPOuJTfl37zw29RTf2UPhfq787xPj5HGVUbGlb23hee6+tLs72nfvYQ9UdVWcdnFjnD4uYtO60jWal2wohr4nX3BcXPcnDTFtdFm0t+XXL/yb1YweEWf+ybHx2brSV6xoaY+2dXv/ba37vLfBceZF04vPbsLQ3a6xqTdqRtbGyedOiW/u7d96+Ii4/kuF51JXuFbxnkt/Y/VNDXHppQ1Rny8DAAAAAAAAAAAAAAAAAD6ayk/59OXfyscfqKaTjohjRw2K7g2b4hcvbc1n99S3prKnM558aHHc9m9vx5O/WRtP/uf6GHrs2GgcXhGjh/bknx8WF100MY4b3hMtLyyLv/qnt0prC8fjr/bE0SeMiMaJtTHmrTXx0vrC8sLnzz2yIsoL3/2fP3s1bn80W7smXugeFqccXRPjJgyOWPF23HDb7+Ln+TXLJ42Oo4dXxoiDveY7nPGpCXFUbUTXmvXxT89vzmf3z5lzJsfpR5RH17q2uOf/vh7/79el6857qi06G+vj2PqqOOqoIbH8mfWxNvtA/nsry3vj9XmL46b/t6p0r8+sjg3jx8QJ9RVRP2JQzJ+/Md5cvj6e+U11/MGnh8TQ6Iznb14Yt+e/q3iMrS9+V2zbFo8U1meO+WxTnDu+orhT8013NJee2c7nOTgq162Lb9+yJJ7KNnE+qj7OmVSY694ev/2P1mgufkOfoTHzk8OjvqI3WpetjvkrdpurrIjhsSUe/D+vxd35733m9VKhu2rU0DhpyPZY8O/L4vadfyftMWZ6XYwbWhUjh2yJeYu2x4rX1xXe29tvWxev9m0wnT+r7Pc9mv++OO3ouOKUmhjc3RELHnw9vt93jcLzm9+V/cbqGHlkbYx7u/Cbi1s5j4xPZdeoKIvuZW/H//rfv4uH82fyi0218V+PrY6ho6pi8Mtr49X24hXgoH3mUw35CAAAAAAAAAAAAAAAAICB5Dvf+c63B8TOvi2LFsX9r3TmZ5nOuH9lR3FUM6y6+BonNsRxowuvWzbH4w/lgWaftpa4d0n2+cFx1PGl3Wv7tL/dFve/np8UtD61Md4qfvWOaF60KordZlFn/Nva7cXRoV5zp/zpd3ftKA3224Q4ubG88NoVS55qjgVtpdmSznj8rjXRnN3qyNr41IzSbJ/2t1ri/8zbcwvbp5d2RLE3HTo4TizOHLgJQyqKr5s2tOz2zLLnuTlWZ/dyCN+9S080P7s4Ht/j9+aebo7v/XBpPLjH38nGuHt56e+kfsy777C8P84/cVjUFF43NbfE3XtcI/uNi+PJFdkWxoOj6eTsD2I3HVvj8XvejmKz3OeFjdFS/CeojPq97L4MAAAAAAAAAAAAAAAAAHx0DIjYd6/WdZUC1T4TB8fw7HXoiLjoW5+If3zHcf2JpeB2+MiRUVYc7Yes39yXA7jmXuXfX1GZhbsH4JQhUZ/9y3V0xOIXSlN7WhWrN2WvlVE/sTixb892RnH5IVixpbv4WjdmXNQXRyX1s4bFEVWFQceOPYPXg7I9Vs/Lhweq4gCf8R7GxITiP/SOWP3GuuLMO2UheG/hdfio2tLEPq2N1j17awAAAAAAAAAAAAAAAADgI2rgxr7v1PdLtndFy5qOdzm2xsLXNhSjzH5xANfcmyXru4qvlSOHxMnF0X46gH+1mqHv2Gn2fbL4ibWxeFvht0w4Mq679rj45p8Vjiunx3VnZTvi7ojFv1kRi/O175txY+LCS46N6782I279qzy6npHvwnxICg+875m/VwBeXRmn5UMAAAAAAAAAAAAAAAAAgPdyANnoYa4jrzC3bI47bl8Yf7vX47dx9286S+v6wyFec8Fvt5V21B06JE6eUZzaP+8VnO6mfcved6Ltd20tce+8jbEpu7fq6mgYWzhGV0b3lm2x4JHFcdtT/fjc92La546LWy+fGKdPro36qt7Y1JbH1sUbOlSF7+j7mvf6L6ajK57OhwAAAAAAAAAAAAAAAAAA7+XDE/su7YjW7HVkdZxZV5x5/x3qNV9oiYXFFrcypp3eFNOKk/vh2W3Rmke1x+w1Eh4XRwzPXnfExjXFifdf3YS47JwRMXzN2rjhu8/FV75VOr7+94vi7sL97qE/+tvdHd0UF86ojsqezljw0KL4yndfjG/3xdbLtueLDsXaWFGsssvjiP+y952SPzumKsoKr+2bO0oTAAAAAAAAAAAAAAAAAAD74cMT+y5bFS+t7in8oiFx6sWNvxfO1p8wIa64ZOL+B7X745CvuTnufWxdtHQXhnV1cdlXjo7Tx5Xe2UPhvfMvnR63/tXxcdkfDC5MrIgFy3cUXitj8qymOHmP0HhwnHnp2GiqKgw3bI7HP6htZqcMibqKwuuQqvhEYbxPO2PlITFtVvZ7+gyO0y8cE03V+en+GlsZxStu64glL+wWFmfPraEyP9ldR2wsNrllMeTo4sR7evClzdFeeB3e1BBfPGH3ey78O886Jk6fkP2n1BmLn2kpTQIAAAAAAAAAAAAAAAAA7IcPT+wbnfHgfati8baIytGj44rrpsc3/+y40vEXM+L6P2mIaUePjE+dki/vF/1wzdeXxx0PrY0VHYXvqBsZF17+ifi7v8i/IzuunB5/d2VTnNlUGZUd3dG6qbP4scfnvh2vbeopXLcuvnjFrute/7Xj4/ym8ojujnj6kWXxWnH1B+DpjfHGlsLr8BHx2Yumxj9+6xO7jr+ZUfgNk+L8KaWlxVi5OYuVy+OYs6bG9bvd+4VTeqOtuIvuAXh6c6zONvAdOiI+f23fszu++NxOq+gqRrp72habik3w4DjxwuOLz/jWvzkprtwjPH6Hp5fHz1/viq6K6jj5gmnx3Svz6/z5SXH9OcOiJnqi5YW34s7X8/UAAAAAAAAAAAAAAAAAAPvhQxT7FrS1xG0/ao7Hl3RE+6DKaBhbXTqG9Ebrm21x/49ejjuezdf2l364Zusrb8b3bloU9z+3OVo27YiKofl3ZMfI8ogt2+KlJ5fH9275bTzYF5MWrnvH3/8u/m3RttjUU75zfX3Vjti0qnDdHy+Mez/A8HTCGUOjviKifc3GWPDShli8qiNa1pSOTd2Domb0iDhz9qQ4LV//+E8WF+698MwK916f3fvoqhiypXTfC7dk2/4eiLfj7sfaomVbT1Tmz65uaG80P9sc37t9Y7RmOyfvYXPc/fO1saKwPqoHR0NdeXS3bYkV60oh9d51xuP3vhx3PrEhVmzpjZq6/N9neFm0b9oWCx55Pf72oY35WgAAAAAAAAAAAAAAAACA/VN21fULevMxHJy6ifG1K8fEhE0b4rZ/WBaL8+ldxsXV1x0ZTVUd8fS3Fsa9+SzQP2795vR8BAAAAAAAAAAAAAAAAMBAUlVVVfbh2tmXNI6qiuHZX1J1eUyoK03trn7W0DiiqjBo2xbPlaYAAAAAAAAAAAAAAAAAACiwsy/9YFhc9GeT4rSxgyJ6dkTruq7ozt+J6qpoyErg7o54+v6Fce/r+TzQb+zsCwAAAAAAAAAAAAAAADAw2dmXfrI57r399bj/uc3R0lEWw0dXR8PY/BjSGy3N6+L+Hwt9AQAAAAAAAAAAAAAAAADeyc6+AAOcnX0BAAAAAAAAAAAAAAAABiY7+wIAAAAAAAAAAAAAAAAAQEJiXwAAAAAAAAAAAAAAAAAASETsCwAAAAAAAAAAAAAAAAAAiYh9AQAAAAAAAAAAAAAAAAAgEbEvAAAAAAAAAAAAAAAAAAAkIvYFAAAAAAAAAAAAAAAAAIBExL4AAAAAAAAAAAAAAAAAAJCI2BcAAAAAAAAAAAAAAAAAABIR+wIAAAAAAAAAAAAAAAAAQCJiXwAAAAAAAAAAAAAAAAAASETsCwAAAAAAAAAAAAAAAAAAiYh9AQAAAAAAAAAAAAAAAAAgEbEvAAAAAAAAAAAAAAAAAAAkIvYFAAAAAAAAAAAAAAAAAIBExL4AAAAAAAAAAAAAAAAAAJCI2BcAAAAAAAAAAAAAAAAAABIR+wIAAAAAAAAAAAAAAAAAQCJiXwAAAAAAAAAAAAAAAAAASETsCwAAAAAAAAAAAAAAAAAAiZRdc8PC3nwMwAB047WT8xEAAAAAAAAAAAAAAAAAA0lVVVWZnX0BAAAAAAAAAAAAAAAAACARsS8AAAAAAAAAAAAAAAAAACQi9gUAAAAAAAAAAAAAAAAAgETEvgAAAAAAAAAAAAAAAAAAkIjYFwAAAAAAAAAAAAAAAAAAEhH7AgAAAAAAAAAAAAAAAABAImJfAAAAAAAAAAAAAAAAAABIROwLAAAAAAAAAAAAAAAAAACJiH0BAAAAAAAAAAAAAAAAACARsS8AAAAAAAAAAAAAAAAAACQi9gUAAAAAAAAAAAAAAAAAgETEvgAAAAAAAAAAAAAAAAAAkIjYFwAAAAAAAAAAAAAAAAAAEhH7AgAAAAAAAAAAAAAAAABAImJfAAAAAAAAAAAAAAAAAABIROwLAAAAAAAAAAAAAAAAAACJiH0BAAAAAAAAAAAAAAAAACARsS8AAAAAAAAAAAAAAAAAACQi9gUAAAAAAAAAAAAAAAAAgETEvgAAAAAAAAAAAAAAAAAAkIjYFwAAAAAAAAAAAAAAAAAAEhH7AgAAAAAAAAAAAAAAAABAImJfAAAAAAAAAAAAAAAAAABIROwLAAAAAAAAAAAAAAAAAACJiH0BAAAAAAAAAAAAAAAAACARsS8AAAAAAAAAAAAAAAAAACQi9gUAAAAAAAAAAAAAAAAAgETEvgAAAAAAAAAAAAAAAAAAkIjYFwAAAAAAAAAAAAAAAAAAEhH7AgAAAAAAAAAAAAAAAABAImJfAAAAAAAAAAAAAAAAAABIROwLAAAAAAAAAAAAAAAAAACJiH0BAAAAAAAAAAAAAAAAACARsS8AAAAAAAAAAAAAAAAAACQi9gUAAAAAAAAAAAAAAAAAgETEvgAAAAAAAAAAAAAAAAAAkIjYFwAAAAAAAAAAAAAAAAAAEhH7AgAAAAAAAAAAAAAAAABAImJfAAAAAAAAAAAAAAAAAABIROwLAAAAAAAAAAAAAAAAAACJiH0BAAAAAAAAAAAAAAAAACARsS8AAAAAAAAAAAAAAAAAACQi9gUAAAAAAAAAAAAAAAAAgETEvgAAAAAAAAAAAAAAAAAAkIjYFwAAAAAAAAAAAAAAAAAAEhH7AgAAAAAAAAAAAAAAAABAImJfAAAAAAAAAAAAAAAAAABIROwLAAAAAAAAAAAAAAAAAACJiH0BAAAAAAAAAAAAAAAAACARsS8AAAAAAAAAAAAAAAAAACQwZMiQXrEvAAAAAAAAAAAAAAAAAAAkIvYFAAAAAAAAAAAAAAAAAIBExL4AAAAAAAAAAAAAAAAAAJCI2BcAAAAAAAAAAAAAAAAAABIR+wIAAAAAAAAAAAAAAAAAQCJiXwAAAAAAAAAAAAAAAAAASETsCwAAAAAAAAAAAAAAAAAAiYh9AQAAAAAAAAAAAAAAAAAgEbEvAAAAAAAAAAAAAAAAAAAkIvYFAAAAAAAAAAAAAAAAAIBExL4AAAAAAAAAAAAAAAAAAJCI2BcAAAAAAAAAAAAAAAAAABIR+wIAAAAAAAAAAAAAAAAAQCJiXwAAAAAAAAAAAAAAAAAASETsCwAAAAAAAAAAAAAAAAAAiYh9AQAAAAAAAAAAAAAAAAAgEbEvAAAAAAAAAAAAAAAAAAAkIvYFAAAAAAAAAAAAAAAAAIBExL4AAAAAAAAAAAAAAAAAAJCI2BcAAAAAAAAAAAAAAAAAABIR+wIAAAAAAAAAAAAAAAAAQCJiXwAAAAAAAAAAAAAAAAAASETsCwAAAAAAAAAAAAAAAAAAiYh9AQAAAAAAAAAAAAAAAAAgEbEvAAAAAAAAAAAAAAAAAAAkIvYFAAAAAAAAAAAAAAAAAIBExL4AAAAAAAAAAAAAAAAAAJCI2BcAAAAAAAAAAAAAAAAAABIR+wIAAAAAAAAAAAAAAAAAQCJiXwAAAAAAAAAAAAAAAAAASETsCwAAAAAAAAAAAAAAAAAAiYh9AQAAAAAAAAAAAAAAAAAgEbEvAAAAAAAAAAAAAAAAAAAkIvYFAAAAAAAAAAAAAAAAAIBExL4AAAAAAAAAAAAAAAAAAJCI2BcAAAAAAAAAAAAAAAAAABIR+wIAAAAAAAAAAAAAAAAAQCJiXwAAAAAAAAAAAAAAAAAASETsCwAAAAAAAAAAAAAAAAAAiYh9AQAAAAAAAAAAAAAAAAAgEbEvAAAAAAAAAAAAAAAAAAAkIvYFAAAAAAAAAAAAAAAAAIBExL4AAAAAAAAAAAAAAAAAAJCI2BcAAAAAAAAAAAAAAAAAABIR+wIAAAAAAAAAAAAAAAAAQCJiXwAAAAAAAAAAAAAAAAAASETsCwAAAAAAAAAAAAAAAAAAiYh9AQAAAAAAAAAAAAAAAAAgEbEvAAAAAAAAAAAAAAAAAAAkIvYFAAAAAAAAAAAAAAAAAIBExL4AAAAAAAAAAAAAAAAAAJCI2BcAAAAAAAAAAAAAAAAAABIR+wIAAAAAAAAAAAAAAAAAQCJiXwAAAAAAAAAAAAAAAAAASETsCwAAAAAAAAAAAAAAAAAAiYh9AQAAAAAAAAAAAAAAAAAgEbEvAAAAAAAAAAAAAAAAAAAkIvYFAAAAAAAAAAAAAAAAAIBExL4AAAAAAAAAAAAAAAAAAJDAuHHjxL4AAAAAAAAAAAAAAAAAAJDCqlWrxL4AAAAAAAAAAAAAAAAAAJCK2BcAAAAAAAAAAAAAAAAAABIR+wIAAAAAAAAAAAAAAAAAQCJiXwAAAAAAAAAAAAAAAAAASETsCwAAAAAAAAAAAAAAAAAAiYh9AQAAAAAAAAAAAAAAAAAgEbEvAAAAAAAAAAAAAAAAAAAkIvYFAAAAAAAAAAAAAAAAAIBExL4AAAAAAAAAAAAAAAAAAJCI2BcAAAAAAAAAAAAAAAAAABIR+wIAAAAAAAAAAAAAAAAAQCJiXwAAAAAAAAAAAAAAAAAASETsCwAAAAAAAAAAAAAAAAAAiYh9AQAAAAAAAAAAAAAAAAAgEbEvAAAAAAAAAAAAAAAAAAAkIvYFAAAAAAAAAAAAAAAAAIBExL4AAAAAAAAAAAAAAAAAAJCI2BcAAAAAAAAAAAAAAAAAABIR+wIAAAAAAAAAAAAAAAAAQCJiXwAAAAAAAAAAAAAAAAAASETsCwAAAAAAAAAAAAAAAAAAiYh9AQAAAAAAAAAAAAAAAAAgEbEvAAAAAAAAAAAAAAAAAAAkIvYFAAAAAAAAAAAAAAAAAIBExL4AAAAAAAAAAAAAAAAAAJCI2BcAAAAAAAAAAAAAAAAAABIR+wIAAAAAAAAAAAAAAAAAQCJiXwAAAAAAAAAAAAAAAAAASETsCwAAAAAAAAAAAAAAAAAAiYh9AQAAAAAAAAAAAAAAAAAgEbEvAAAAAAAAAAAAAAAAAAAkIvYFAAAAAAAAAAAAAAAAAIBExL4AAAAAAAAAAAAAAAAAAJCI2BcAAAAAAAAAAAAAAAAAABIR+wIAAAAAAAAAAAAAAAAAQCJiXwAAAAAAAAAAAAAAAAAASETsCwAAAAAAAAAAAAAAAAAAiYh9AQAAAAAAAAAAAAAAAAAgEbEvAAAAAAAAAAAAAAAAAAAkIvYFAAAAAAAAAAAAAAAAAIBExL4AAAAAAAAAAAAAAAAAAJCI2BcAAAAAAAAAAAAAAAAAABIR+wIAAAAAAAAAAAAAAAAAQCJiXwAAAAAAAAAAAAAAAAAASETsCwAAAAAAAAAAAAAAAAAAiYh9AQAAAAAAAAAAAAAAAAAgEbEvAAAAAAAAAAAAAAAAAAAkIvYFAAAAAAAAAAAAAAAAAIBExL4AAAAAAAAAAAAAAAAAAJCI2BcAAAAAAAAAAAAAAAAAABIR+wIAAAAAAAAAAAAAAAAAQCJiXwAAAAAAAAAAAAAAAAAASETsCwAAAAAAAAAAAAAAAAAAiYh9AQAAAAAAAAAAAAAAAAAgEbEvAAAAAAAAAAAAAAAAAAAkIvYFAAAAAAAAAAAAAAAAAIBExL4AAAAAAAAAAAAAAAAAAJCI2BcAAAAAAAAAAAAAAAAAABIR+wIAAAAAAAAAAAAAAAAAQCJiXwAAAAAAAAAAAAAAAAAASETsCwAAAAAAAAAAAAAAAAAAiYh9AQAAAAAAAAAAAAAAAAAgEbEvAAAAAAAAAAAAAAAAAAAkIvYFAAAAAAAAAAAAAAAAAIBExL4AAAAAAAAAAAAAAAAAAJCI2BcAAAAAAAAAAAAAAAAAABIR+wIAAAAAAAAAAAAAAAAAQCJiXwAAAAAAAAAAAAAAAAAASETsCwAAAAAAAAAAAAAAAAAAiYh9AQAAAAAAAAAAAAAAAAAgEbEvAAAAAAAAAAAAAAAAAAAkIvYFAAAAAAAAAAAAAAAAAIBExL4AAAAAAAAAAAAAAAAAAJCI2BcAAAAAAAAAAAAAAAAAABIR+wIAAAAAAAAAAAAAAAAAQCJiXwAAAAAAAAAAAAAAAAAASETsCwAAAAAAAAAAAAAAAAAAiYh9AQAAAAAAAAAAAAAAAAAgEbEvAAAAAAAAAAAAAAD/n307FgAAAAAY5G89jD3lEQAAABPZFwAAAAAAAAAAAAAAAAAAJrIvAAAAAAAAAAAAAAAAAABMZF8AAAAAAAAAAAAAAAAAAJjIvgAAAAAAAAAAAAAAAAAAMJF9AQAAAAAAAAAAAAAAAABgIvsCAAAAAAAAAAAAAAAAAMBE9gUAAAAAAAAAAAAAAAAAgInsCwAAAAAAAAAAAAAAAAAAE9kXAAAAAAAAAAAAAAAAAAAmsi8AAAAAAAAAAAAAAAAAAExkXwAAAAAAAAAAAAAAAAAAmMi+AAAAAAAAAAAAAAAAAAAwkX0BAAAAAAAAAAAAAAAAAGAi+wIAAAAAAAAAAAAAAAAAwET2BQAAAAAAAAAAAAAAAACAiewLAAAAAAAAAAAAAAAAAAAT2RcAAAAAAAAAAAAAAAAAACayLwAAAAAAAAAAAAAAAAAATGRfAAAAAAAAAAAAAAAAAACYyL4AAAAAAAAAAAAAAAAAADCRfQEAAAAAAAAAAAAAAAAAYCL7AgAAAAAAAAAAAAAAAADARPYFAAAAAAAAAAAAAAAAAICJ7AsAAAAAAAAAAAAAAAAAABPZFwAAAAAAAAAAAAAAAAAAJrIvAAAAAAAAAAAAAAAAAABMZF8AAAAAAAAAAAAAAAAAAJjIvgAAAAAAAAAAAAAAAAAAMJF9AQAAAAAAAAAAAAAAAABgIvsCAAAAAAAAAAAAAAAAAMBE9gUAAAAAAAAAAAAAAAAAgInsCwAAAAAAAAAAAAAAAAAAE9kXAAAAAAAAAAAAAAAAAAAmsi8AAAAAAAAAAAAAAAAAAExkXwAAAAAAAAAAAAAAAAAAmMi+AAAAAAAAAAAAAAAAAAAwkX0BAAAAAAAAAAAAAAAAAGAi+wIAAAAAAAAAAAAAAAAAwET2BQAAAAAAAAAAAAAAAACAiewLAAAAAAAAAAAAAAAAAAAT2RcAAAAAAAAAAAAAAAAAACayLwAAAAAAAAAAAAAAAAAATGRfAAAAAAAAAAAAAAAAAACYyL4AAAAAAAAAAAAAAAAAADCRfQEAAAAAAAAAAAAAAAAAYCL7AgAAAAAAAAAAAAAAAADARPYFAAAAAAAAAAAAAAAAAICJ7AsAAAAAAAAAAAAAAAAAABPZFwAAAAAAAAAAAAAAAAAAJrIvAAAAAAAAAAAAAAAAAABMZF8AAAAAAAAAAAAAAAAAAJjIvgAAAAAAAAAAAAAAAAAAMJF9AQAAAAAAAAAAAAAAAABgIvsCAAAAAAAAAAAAAAAAAMBE9gUAAAAAAAAAAAAAAAAAgInsCwAAAAAAAAAAAAAAAAAAE9kXAAAAAAAAAAAAAAAAAAAmsi8AAAAAAAAAAAAAAAAAAExkXwAAAAAAAAAAAAAAAAAAmMi+AAAAAAAAAAAAAAAAAAAwkX0BAAAAAAAAAAAAAAAAAGAi+wIAAAAAAAAAAAAAAAAAwET2BQAAAAAAAAAAAAAAAACAiewLAAAAAAAAAAAAAAAAAAAT2RcAAAAAAAAAAAAAAAAAACayLwAAAAAAAAAAAAAAAAAATGRfAAAAAAAAAAAAAAAAAACYyL4AAAAAAAAAAAAAAAAAADCRfQEAAAAAAAAAAAAAAAAAYCL7AgAAAAAAAAAAAAAAAADARPYFAAAAAAAAAAAAAAAAAICJ7AsAAAAAAAAAAAAAAAAAABPZFwAAAAAAAAAAAAAAAAAAJrIvAAAAAAAAAAAAAAAAAABMZF8AAAAAAAAAAAAAAAAAAJjIvgAAAAAAAAAAAAAAAAAAMJF9AQAAAAAAAAAAAAAAAABgIvsCAAAAAAAAAAAAAAAAAMBE9gUAAAAAAAAAAAAAAAAAgInsCwAAAAAAAAAAAAAAAAAAE9kXAAAAAAAAAAAAAAAAAAAmsi8AAAAAAAAAAAAAAAAAAExkXwAAAAAAAAAAAAAAAAAAmMi+AAAAAAAAAAAAAAAAAAAwkX0BAAAAAAAAAAAAAAAAAGAi+wIAAAAAAAAAAAAAAAAAwET2BQAAAAAAAAAAAAAAAACAiewLAAAAAAAAAAAAAAAAAAAT2RcAAAAAAAAAAAAAAAAAACayLwAAAAAAAAAAAAAAAAAATGRfAAAAAAAAAAAAAAAAAACYyL4AAAAAAAAAAAAAAAAAADCRfQEAAAAAAAAAAAAAAAAAYCL7AgAAAAAAAAAAAAAAAADARPYFAAAAAAAAAAAAAAAAAICJ7AsAAAAAAAAAAAAAAAAAABPZFwAAAAAAAAAAAAAAAAAAJrIvAAAAAAAAAAAAAAAAAABMZF8AAAAAAAAAAAAAAAAAAJjIvgAAAAAAAAAAAAAAAAAAMJF9AQAAAAAAAAAAAAAAAABgIvsCAAAAAAAAAAAAAAAAAMBE9gUAAAAAAAAAAAAAAAAAgInsCwAAAAAAAAAAAAAAAAAAE9kXAAAAAAAAAAAAAAAAAAAmsi8AAAAAAAAAAAAAAAAAAExkXwAAAAAAAAAAAAAAAAAAmMi+AAAAAAAAAAAAAAAAAAAwkX0BAAAAAAAAAAAAAAAAAGAi+wIAAAAAAAAAAAAAAAAAwET2BQAAAAAAAAAAAAAAAACAiewLAAAAAAAAAAAAAAAAAAAT2RcAAAAAAAAAAAAAAAAAACayLwAAAAAAAAAAAAAAAAAATGRfAAAAAAAAAAAAAAAAAACYyL4AAAAAAAAAAAAAAAAAADCRfQEAAAAAAAAAAAAAAAAAYCL7AgAAAAAAAAAAAAAAAADARPYFAAAAAAAAAAAAAAAAAICJ7AsAAAAAAAAAAAAAAAAAABPZFwAAAAAAAAAAAAAAAAAAJrIvAAAAAAAAAAAAAAAAAABMZF8AAAAAAAAAAAAAAAAAAJjIvgAAAAAAAAAAAAAAAAAAMJF9AQAAAAAAAAAAAAAAAABgIvsCAAAAAAAAAAAAAAAAAMBE9gUAAAAAAAAAAAAAAAAAgInsCwAAAAAAAAAAAAAAAAAAE9kXAAAAAAAAAAAAAAAAAAAmsi8AAAAAAAAAAAAAAAAAAExkXwAAAAAAAAAAAAAAAAAAmMi+AAAAAAAAAAAAAAAAAAAwkX0BAAAAAAAAAAAAAAAAAGAi+wIAAAAAAAAAAAAAAAAAwET2BQAAAAAAAAAAAAAAAACAiewLAAAAAAAAAAAAAAAAAAAT2RcAAAAAAAAAAAAAAAAAACayLwAAAAAAAAAAAAAAAAAATGRfAAAAAAAAAAAAAAAAAACYyL4AAAAAAAAAAAAAAAAAADCRfQEAAAAAAAAAAAAAAAAAYCL7AgAAAAAAAAAAAAAAAADARPYFAAAAAAAAAAAAAAAAAICJ7AsAAAAAAAAAAAAAAAAAABPZFwAAAAAAAAAAAAAAAAAAJrIvAAAAAAAAAAAAAAAAAABMZF8AAAAAAAAAAAAAAAAAAJjIvgAAAAAAAAAAAAAAAAAAMJF9AQAAAAAAAAAAAAAAAABgIvsCAAAAAAAAAAAAAAAAAMBE9gUAAAAAAAAAAAAAAAAAgInsCwAAAAAAAAAAAAAAAAAAE9kXAAAAAAAAAAAAAAAAAAAmsi8AAAAAAAAAAAAAAAAAAExkXwAAAAAAAAAAAAAAAAAAmMi+AAAAAAAAAAAAAAAAAAAwkX0BAAAAAAAAAAAAAAAAAGAi+wIAAAAAAAAAAAAAAAAAwET2BQAAAAAAAAAAAAAAAACAiewLAAAAAAAAAAAAAAAAAAAT2RcAAAAAAAAAAAAAAAAAACayLwAAAAAAAAAAAAAAAAAATGRfAAAAAAAAAAAAAAAAAACYyL4AAAAAAAAAAAAAAAAAADCRfQEAAAAAAAAAAAAAAAAAYCL7AgAAAAAAAAAAAAAAAADARPYFAAAAAAAAAAAAAAAAAICJ7AsAAAAAAAAAAAAAAAAAABPZFwAAAAAAAAAAAAAAAAAAJrIvAAAAAAAAAAAAAAAAAABMZF8AAAAAAAAAAAAAAAAAAJjIvgAAAAAAAAAAAAAAAAAAMJF9AQAAAAAAAAAAAAAAAABgIvsCAAAAAAAAAAAAAAAAAMBE9gUAAAAAAAAAAAAAAAAAgInsCwAAAAAAAAAAAAAAAAAAE9kXAAAAAAAAAAAAAAAAAAAmsi8AAAAAAAAAAAAAAAAAAExkXwAAAAAAAAAAAAAAAAAAmMi+AAAAAAAAAAAAAAAAAAAwkX0BAAAAAAAAAAAAAAAAAGAi+wIAAAAAAAAAAAAAAAAAwET2BQAAAAAAAAAAAAAAAACAiewLAAAAAAAAAAAAAAAAAAAT2RcAAAAAAAAAAAAAAAAAACayLwAAAAAAAAAAAAAAAAAATGRfAAAAAAAAAAAAAAAAAACYyL4AAAAAAAAAAAAAAAAAADCRfQEAAAAAAAAAAAAAAAAAYCL7AgAAAAAAAAAAAAAAAADARPYFAAAAAAAAAAAAAAAAAICJ7AsAAAAAAAAAAAAAAAAAABPZFwAAAAAAAAAAAAAAAAAAJrIvAAAAAAAAAAAAAAAAAABMZF8AAAAAAAAAAAAAAAAAAJjIvgAAAAAAAAAAAAAAAAAAMJF9AQAAAAAAAAAAAAAAAABgIvsCAAAAAAAAAAAAAAAAAMBE9gUAAAAAAAAAAAAAAAAAgInsCwAAAAAAAAAAAAAAAAAAE9kXAAAAAAAAAAAAAAAAAAAmsi8AAAAAAAAAAAAAAAAAAExkXwAAAAAAAAAAAAAAAAAAmMi+AAAAAAAAAAAAAAAAAAAwkX0BAAAAAAAAAAAAAAAAAGAi+wIAAAAAAAAAAAAAAAAAwET2BQAAAAAAAAAAAAAAAACAiewLAAAAAAAAAAAAAAAAAAAT2RcAAAAAAAAAAAAAAAAAACayLwAAAAAAAAAAAAAAAAAATGRfAAAAAAAAAAAAAAAAAACYyL4AAAAAAAAAAAAAAAAAADCRfQEAAAAAAAAAAAAAAAAAYCL7AgAAAAAAAAAAAAAAAADARPYFAAAAAAAAAAAAAAAAAICJ7AsAAAAAAAAAAAAAAAAAABPZFwAAAAAAAAAAAAAAAAAAJrIvAAAAAAAAAAAAAAAAAABMZF8AAAAAAAAAAAAAAAAAAJjIvgAAAAAAAAAAAAAAAAAAMJF9AQAAAAAAAAAAAAAAAABgIvsCAAAAAAAAAAAAAAAAAMBE9gUAAAAAAAAAAAAAAAAAgInsCwAAAAAAAAAAAAAAAAAAE9kXAAAAAAAAAAAAAAAAAAAmsi8AAAAAAAAAAAAAAAAAAExkXwAAAAAAAAAAAAAAAAAAmMi+AAAAAAAAAAAAAAAAAAAwkX0BAAAAAAAAAAAAAAAAAGAi+wIAAAAAAAAAAAAAAAAAwET2BQAAAAAAAAAAAAAAAACAiewLAAAAAAAAAAAAAAAAAAAT2RcAAAAAAAAAAAAAAAAAACayLwAAAAAAAAAAAAAAAAAATGRfAAAAAAAAAAAAAAAAAACYyL4AAAAAAAAAAAAAAAAAADCRfQEAAAAAAAAAAAAAAAAAYCL7AgAAAAAAAAAAAAAAAADARPYFAAAAAAAAAAAAAAAAAICJ7AsAAAAAAAAAAAAAAAAAABPZFwAAAAAAAAAAAAAAAAAAJrIvAAAAAAAAAAAAAAAAAABMZF8AAAAAAAAAAAAAAAAAAJjIvgAAAAAAAAAAAAAAAAAAMJF9AQAAAAAAAAAAAAAAAABgIvsCAAAAAAAAAAAAAAAAAMBE9gUAAAAAAAAAAAAAAAAAgInsCwAAAAAAAAAAAAAAAAAAE9kXAAAAAAAAAAAAAAAAAAAmsi8AAAAAAAAAAAAAAAAAAExkXwAAAAAAAAAAAAAAAAAAmMi+AAAAAAAAAAAAAAAAAAAwkX0BAAAAAAAAAAAAAAAAAGAi+wIAAAAAAAAAAAAAAAAAwET2BQAAAAAAAAAAAAAAAACAiewLAAAAAAAAAAAAAAAAAAAT2RcAAAAAAAAAAAAAAAAAACayLwAAAAAAAAAAAAAAAAAATGRfAAAAAAAAAAAAAAAAAACYyL4AAAAAAAAAAAAAAAAAADCRfQEAAAAAAAAAAAAAAAAAYCL7AgAAAAAAAAAAAAAAAADARPYFAAAAAAAAAAAAAAAAAICJ7AsAAAAAAAAAAAAAAAAAABPZFwAAAAAAAAAAAAAAAAAAJrIvAAAAAAAAAAAAAAAAAABMZF8AAAAAAAAAAAAAAAAAAJjIvgAAAAAAAAAAAAAAAAAAMJF9AQAAAAAAAAAAAAAAAABgIvsCAAAAAAAAAAAAAAAAAMBE9gUAAAAAAAAAAAAAAAAAgInsCwAAAAAAAAAAAAAAAAAAE9kXAAAAAAAAAAAAAAAAAAAmsi8AAAAAAAAAAAAAAAAAAExkXwAAAAAAAAAAAAAAAAAAmMi+AAAAAAAAAAAAAAAAAAAwkX0BAAAAAAAAAAAAAAAAAGAi+wIAAAAAAAAAAAAAAAAAwET2BQAAAAAAAAAAAAAAAACAiewLAAAAAAAAAAAAAAAAAAAT2RcAAAAAAAAAAAAAAAAAACayLwAAAAAAAAAAAAAAAAAATGRfAAAAAAAAAAAAAAAAAACYyL4AAAAAAAAAAAAAAAAAADCRfQEAAAAAAAAAAAAAAAAAYCL7AgAAAAAAAAAAAAAAAADARPYFAAAAAAAAAAAAAAAAAICJ7AsAAAAAAAAAAAAAAAAAABPZFwAAAAAAAAAAAAAAAAAAJrIvAAAAAAAAAAAAAAAAAABMZF8AAAAAAAAAAAAAAAAAAJjIvgAAAAAAAAAAAAAAAAAAMJF9AQAAAAAAAAAAAAAAAABgIvsCAAAAAAAAAAAAAAAAAMBE9gUAAAAAAAAAAAAAAAAAgInsCwAAAAAAAAAAAAAAAAAAE9kXAAAAAAAAAAAAAAAAAAAmsi8AAAAAAAAAAAAAAAAAAExkXwAAAAAAAAAAAAAAAAAAmMi+AAAAAAAAAAAAAAAAAAAwkX0BAAAAAAAAAAAAAAAAAGAi+wIAAAAAAAAAAAAAAAAAwET2BQAAAAAAAAAAAAAAAACAiewLAAAAAAAAAAAAAAAAAAAT2RcAAAAAAAAAAAAAAAAAACayLwAAAAAAAAAAAAAAAAAATGRfAAAAAAAAAAAAAAAAAACYyL4AAAAAAAAAAAAAAAAAADCRfQEAAAAAAAAAAAAAAAAAYCL7AgAAAAAAAAAAAAAAAADARPYFAAAAAAAAAAAAAAAAAICJ7AsAAAAAAAAAAAAAAAAAABPZFwAAAAAAAAAAAAAAAAAAJrIvAAAAAAAAAAAAAAAAAABMZF8AAAAAAAAAAAAAAAAAAJjIvgAAAAAAAAAAAAAAAAAAMJF9AQAAAAAAAAAAAAAAAABgIvsCAAAAAAAAAAAAAAAAAMBE9gUAAAAAAAAAAAAAAAAAgInsCwAAAAAAAAAAAAAAAAAAE9kXAAAAAAAAAAAAAAAAAAAmsi8AAAAAAAAAAAAAAAAAAExkXwAAAAAAAAAAAAAAAAAAmMi+AAAAAAAAAAAAAAAAAAAwkX0BAAAAAAAAAAAAAAAAAGAi+wIAAAAAAAAAAAAAAAAAwET2BQAAAAAAAAAAAAAAAACAiewLAAAAAAAAAAAAAAAAAAAT2RcAAAAAAAAAAAAAAAAAACayLwAAAAAAAAAAAAAAAAAATGRfAAAAAAAAAAAAAAAAAACYyL4AAAAAAAAAAAAAAAAAADCRfQEAAAAAAAAAAAAAAAAAYCL7AgAAAAAAAAAAAAAAAADARPYFAAAAAAAAAAAAAAAAAICJ7AsAAAAAAAAAAAAAAAAAABPZFwAAAAAAAAAAAAAAAAAAJrIvAAAAAAAAAAAAAAAAAABMZF8AAAAAAAAAAAAAAAAAAJjIvgAAAAAAAAAAAAAAAAAAMJF9AQAAAAAAAAAAAAAAAABgIvsCAAAAAAAAAAAAAAAAAMBE9gUAAAAAAAAAAAAAAAAAgInsCwAAAAAAAAAAAAAAAAAAE9kXAAAAAAAAAAAAAAAAAAAmsi8AAAAAAAAAAAAAAAAAAExkXwAAAAAAAAAAAAAAAAAAmMi+AAAAAAAAAAAAAAAAAAAwkX0BAAAAAAAAAAAAAAAAAGAi+wIAAAAAAAAAAAAAAAAAwET2BQAAAAAAAAAAAAAAAACAiewLAAAAAAAAAAAAAAAAAAAT2RcAAAAAAAAAAAAAAAAAACayLwAAAAAAAAAAAAAAAAAATGRfAAAAAAAAAAAAAAAAAACYyL4AAAAAAAAAAAAAAAAAADCRfQEAAAAAAAAAAAAAAAAAYCL7AgAAAAAAAAAAAAAAAADARPYFAAAAAAAAAAAAAAAAAICJ7AsAAAAAAAAAAAAAAAAAABPZFwAAAAAAAAAAAAAAAAAAJrIvAAAAAAAAAAAAAAAAAABMZF8AAAAAAAAAAAAAAAAAAJjIvgAAAAAAAAAAAAAAAAAAMJF9AQAAAAAAAAAAAAAAAABgIvsCAAAAAAAAAAAAAAAAAMBE9gUAAAAAAAAAAAAAAAAAgInsCwAAAAAAAAAAAAAAAAAAE9kXAAAAAAAAAAAAAAAAAAAmsi8AAAAAAAAAAAAAAAAAAExkXwAAAAAAAAAAAAAAAAAAmMi+AAAAAAAAAAAAAAAAAAAwkX0BAAAAAAAAAAAAAAAAAGAi+wIAAAAAAAAAAAAAAAAAwET2BQAAAAAAAAAAAAAAAACAiewLAAAAAAAAAAAAAAAAAAAT2RcAAAAAAAAAAAAAAAAAACayLwAAAAAAAAAAAAAAAAAATGRfAAAAAAAAAAAAAAAAAACYyL4AAAAAAAAAAAAAAAAAADCRfQEAAAAAAAAAAAAAAAAAYCL7AgAAAAAAAAAAAAAAAADARPYFAAAAAAAAAAAAAAAAAICJ7AsAAAAAAAAAAAAAAAAAABPZFwAAAAAAAAAAAAAAAAAAJrIvAAAAAAAAAAAAAAAAAABMZF8AAAAAAAAAAAAAAAAAAJjIvgAAAAAAAAAAAAAAAAAAMJF9AQAAAAAAAAAAAAAAAABgIvsCAAAAAAAAAAAAAAAAAMBE9gUAAAAAAAAAAAAAAAAAgInsCwAAAAAAAAAAAAAAAAAAE9kXAAAAAAAAAAAAAAAAAAAmsi8AAAAAAAAAAAAAAAAAAExkXwAAAAAAAAAAAAAAAAAAmMi+AAAAAAAAAAAAAAAAAAAwkX0BAAAAAAAAAAAAAAAAAGAi+wIAAAAAAAAAAAAAAAAAwET2BQAAAAAAAAAAAAAAAACAiewLAAAAAAAAAAAAAAAAAAAT2RcAAAAAAAAAAAAAAAAAACayLwAAAAAAAAAAAAAAAAAATGRfAAAAAAAAAAAAAAAAAACYyL4AAAAAAAAAAAAAAAAAADCRfQEAAAAAAAAAAAAAAAAAYCL7AgAAAAAAAAAAAAAAAADARPYFAAAAAAAAAAAAAAAAAICJ7AsAAAAAAAAAAAAAAAAAABPZFwAAAAAAAAAAAAAAAAAAJrIvAAAAAAAAAAAAAAAAAABMZF8AAAAAAAAAAAAAAAAAAJjIvgAAAAAAAAAAAAAAAAAAMJF9AQAAAAAAAAAAAAAAAABgIvsCAAAAAAAAAAAAAAAAAMBE9gUAAAAAAAAAAAAAAAAAgInsCwAAAAAAAAAAAAAAAAAAE9kXAAAAAAAAAAAAAAAAAAAmsi8AAAAAAAAAAAAAAAAAAExkXwAAAAAAAAAAAAAAAAAAmMi+AAAAAAAAAAAAAAAAAAAwkX0BAAAAAAAAAAAAAAAAAGAi+wIAAAAAAAAAAAAAAAAAwET2BQAAAAAAAAAAAAAAAACAiewLAAAAAAAAAAAAAAAAAAAT2RcAAAAAAAAAAAAAAAAAACayLwAAAAAAAAAAAAAAAAAATGRfAAAAAAAAAAAAAAAAAACYyL4AAAAAAAAAAAAAAAAAADCRfQEAAAAAAAAAAAAAAAAAYCL7AgAAAAAAAAAAAAAAAADARPYFAAAAAAAAAAAAAAAAAICJ7AsAAAAAAAAAAAAAAAAAABPZFwAAAAAAAAAAAAAAAAAAJrIvAAAAAAAAAAAAAAAAAABMZF8AAAAAAAAAAAAAAAAAAJjIvgAAAAAAAAAAAAAAAAAAMJF9AQAAAAAAAAAAAAAAAABgIvsCAAAAAAAAAAAAAAAAAMBE9gUAAAAAAAAAAAAAAAAAgInsCwAAAAAAAAAAAAAAAAAAE9kXAAAAAAAAAAAAAAAAAAAmsi8AAAAAAAAAAAAAAAAAAExkXwAAAAAAAAAAAAAAAAAAmMi+AAAAAAAAAAAAAAAAAAAwkX0BAAAAAAAAAAAAAAAAAGAi+wIAAAAAAAAAAAAAAAAAwET2BQAAAAAAAAAAAAAAAACAiewLAAAAAAAAAAAAAAAAAAAT2RcAAAAAAAAAAAAAAAAAACayLwAAAAAAAAAAAAAAAAAATGRfAAAAAAAAAAAAAAAAAACYyL4AAAAAAAAAAAAAAAAAADCRfQEAAAAAAAAAAAAAAAAAYCL7AgAAAAAAAAAAAAAAAADARPYFAAAAAAAAAAAAAAAAAICJ7AsAAAAAAAAAAAAAAAAAABPZFwAAAAAAAAAAAAAAAAAAJrIvAAAAAAAAAAAAAAAAAABMZF8AAAAAAAAAAAAAAAAAAJjIvgAAAAAAAAAAAAAAAAAAMJF9AQAAAAAAAAAAAAAAAABgIvsCAAAAAAAAAAAAAAAAAMBE9gUAAAAAAAAAAAAAAAAAgInsCwAAAAAAAAAAAAAAAAAAE9kXAAAAAAAAAAAAAAAAAAAmsi8AAAAAAAAAAAAAAAAAAExkXwAAAAAAAAAAAAAAAAAAmMi+AAAAAAAAAAAAAAAAAAAwkX0BAAAAAAAAAAAAAAAAAGAi+wIAAAAAAAAAAAAAAAAAwET2BQAAAAAAAAAAAAAAAACAiewLAAAAAAAAAAAAAAAAAAAT2RcAAAAAAAAAAAAAAAAAACayLwAAAAAAAAAAAAAAAAAATGRfAAAAAAAAAAAAAAAAAACYyL4AAAAAAAAAAAAAAAAAADCRfQEAAAAAAAAAAAAAAAAAYCL7AgAAAAAAAAAAAAAAAADARPYFAAAAAAAAAAAAAAAAAICJ7AsAAAAAAAAAAAAAAAAAABPZFwAAAAAAAAAAAAAAAAAAJrIvAAAAAAAAAAAAAAAAAABMZF8AAAAAAAAAAAAAAAAAAJjIvgAAAAAAAAAAAAAAAAAAMJF9AQAAAAAAAAAAAAAAAABgIvsCAAAAAAAAAAAAAAAAAMBE9gUAAAAAAAAAAAAAAAAAgInsCwAAAAAAAAAAAAAAAAAAE9kXAAAAAAAAAAAAAAAAAAAmsi8AAAAAAAAAAAAAAAAAAExkXwAAAAAAAAAAAAAAAAAAmMi+AAAAAAAAAAAAAAAAAAAwkX0BAAAAAAAAAAAAAAAAAGAi+wIAAAAAAAAAAAAAAAAAwET2BQAAAAAAAAAAAAAAAACAiewLAAAAAAAAAAAAAAAAAAAT2RcAAAAAAAAAAAAAAAAAACayLwAAAAAAAAAAAAAAAAAATGRfAAAAAAAAAAAAAAAAAACYyL4AAAAAAAAAAAAAAAAAADCRfQEAAAAAAAAAAAAAAAAAYCL7AgAAAAAAAAAAAAAAAADARPYFAAAAAAAAAAAAAAAAAICJ7AsAAAAAAAAAAAAAAAAAABPZFwAAAAAAAAAAAAAAAAAAJrIvAAAAAAAAAAAAAAAAAABMZF8AAAAAAAAAAAAAAAAAAJjIvgAAAAAAAAAAAAAAAAAAMJF9AQAAAAAAAAAAAAAAAABgIvsCAAAAAAAAAAAAAAAAAMBE9gUAAAAAAAAAAAAAAAAAgInsCwAAAAAAAAAAAAAAAAAAE9kXAAAAAAAAAAAAAAAAAAAmsi8AAAAAAAAAAAAAAAAAAExkXwAAAAAAAAAAAAAAAAAAmMi+AAAAAAAAAAAAAAAAAAAwkX0BAAAAAAAAAAAAAAAAAGAi+wIAAAAAAAAAAAAAAAAAwET2BQAAAAAAAAAAAAAAAACAiewLAAAAAAAAAAAAAAAAAAAT2RcAAAAAAAAAAAAAAAAAACayLwAAAAAAAAAAAAAAAAAATGRfAAAAAAAAAAAAAAAAAACYyL4AAAAAAAAAAAAAAAAAADCRfQEAAAAAAAAAAAAAAAAAYCL7AgAAAAAAAAAAAAAAAADARPYFAAAAAAAAAAAAAAAAAICJ7AsAAAAAAAAAAAAAAAAAABPZFwAAAAAAAAAAAAAAAAAAJrIvAAAAAAAAAAAAAAAAAABMZF8AAAAAAAAAAAAAAAAAAJjIvgAAAAAAAAAAAAAAAAAAMJF9AQAAAAAAAAAAAAAAAABgIvsCAAAAAAAAAAAAAAAAAMBE9gUAAAAAAAAAAAAAAAAAgInsCwAAAAAAAAAAAAAAAAAAE9kXAAAAAAAAAAAAAAAAAAAmsi8AAAAAAAAAAAAAAAAAAExkXwAAAAAAAAAAAAAAAAAAmMi+AAAAAAAAAAAAAAAAAAAwkX0BAAAAAAAAAAAAAAAAAGAi+wIAAAAAAAAAAAAAAAAAwET2BQAAAAAAAAAAAAAAAACAiewLAAAAAAAAAAAAAAAAAAAT2RcAAAAAAAAAAAAAAAAAACayLwAAAAAAAAAAAAAAAAC1b8cEAAAACIPsn9oYe6AHAERkXwAAAAAAAAAAAAAAAAAAiMi+AAAAAAAAAAAAAAAAAAAQkX0BAAAAAAAAAAAAAAAAACAi+wIAAAAAAAAAAAAAAAAAQET2BQAAAAAAAAAAAAAAAACAiOwLAAAAAAAAAAAAAAAAAAAR2RcAAAAAAAAAAAAAAAAAACKyLwAAAAAAAAAAAAAAAAAARGRfAAAAAAAAAAAAAAAAAACIyL4AAAAAAAAAAAAAAAAAABCRfQEAAAAAAAAAAAAAAAAAICL7AgAAAAAAAAAAAAAAAABARPYFAAAAAAAAAAAAAAAAAICI7AsAAAAAAAAAAAAAAAAAABHZFwAAAAAAAAAAAAAAAAAAIrIvAAAAAAAAAAAAAAAAAABEZF8AAAAAAAAAAAAAAAAAAIjIvgAAAAAAAAAAAAAAAAAAEJF9AQAAAAAAAAAAAAAAAAAgIvsCAAAAAAAAAAAAAAAAAEBE9gUAAAAAAAAAAAAAAAAAgIjsCwAAAAAAAAAAAAAAAAAAEdkXAAAAAAAAAAAAAAAAAAAisi8AAAAAAAAAAAAAAAAAAERkXwAAAAAAAAAAAAAAAAAAiMi+AAAAAAAAAAAAAAAAAAAQkX0BAAAAAAAAAAAAAAAAACAi+wIAAAAAAAAAAAAAAAAAQET2BQAAAAAAAAAAAAAAAACAiOwLAAAAAAAAAAAAAAAAAAAR2RcAAAAAAAAAAAAAAAAAACKyLwAAAAAAAAAAAAAAAAAARGRfAAAAAAAAAAAAAAAAAACIyL4AAAAAAAAAAAAAAAAAABCRfQEAAAAAAAAAAAAAAAAAICL7AgAAAAAAAAAAAAAAAABARPYFAAAAAAAAAAAAAAAAAICI7AsAAAAAAAAAAAAAAAAAABHZFwAAAAAAAAAAAAAAAAAAIrIvAAAAAAAAAAAAAAAAAABEZF8AAAAAAAAAAAAAAAAAAIjIvgAAAAAAAAAAAAAAAAAAEJF9AQAAAAAAAAAAAAAAAAAgIvsCAAAAAAAAAAAAAAAAAEBE9gUAAAAAAAAAAAAAAAAAgIjsCwAAAAAAAAAAAAAAAAAAEdkXAAAAAAAAAAAAAAAAAAAisi8AAAAAAAAAAAAAAAAAAERkXwAAAAAAAAAAAAAAAAAAiMi+AAAAAAAAAAAAAAAAAAAQkX0BAAAAAAAAAAAAAAAAACAi+wIAAAAAAAAAAAAAAAAAQET2BQAAAAAAAAAAAAAAAACAiOwLAAAAAAAAAAAAAAAAAAAR2RcAAAAAAAAAAAAAAAAAABLbAfkebBQzIBMbAAAAAElFTkSuQmCC;" vertex="1" parent="1">
          <mxGeometry width="3835" height="1972" as="geometry" />
        </mxCell>
      </root>
    </mxGraphModel>
  </diagram>
</mxfile>
